<svg width="290" height="50" viewBox="0 0 290 50" fill="none" xmlns="http://www.w3.org/2000/svg">
<rect x="1" y="1" width="288" height="48" rx="24" fill="white" stroke="#FA7575" stroke-width="2"/>
<path d="M263.286 20L269 25.122L263 30" stroke="#FA7575" stroke-width="2" stroke-linejoin="round"/>
<path d="M99.185 31H101.39V25.225C102.005 24.61 102.44 24.28 103.13 24.28C103.955 24.28 104.315 24.73 104.315 26.035V31H106.52V25.765C106.52 23.65 105.74 22.39 103.925 22.39C102.785 22.39 101.93 22.99 101.195 23.71H101.15L100.985 22.6H99.185V31ZM108.794 31H110.999V22.6H108.794V31ZM109.904 21.25C110.654 21.25 111.179 20.77 111.179 20.035C111.179 19.315 110.654 18.835 109.904 18.835C109.139 18.835 108.614 19.315 108.614 20.035C108.614 20.77 109.139 21.25 109.904 21.25ZM116.92 31.21C117.85 31.21 118.87 30.895 119.68 30.19L118.795 28.735C118.33 29.125 117.76 29.41 117.16 29.41C115.96 29.41 115.075 28.39 115.075 26.8C115.075 25.225 115.945 24.19 117.235 24.19C117.7 24.19 118.09 24.385 118.51 24.745L119.56 23.32C118.945 22.795 118.15 22.39 117.115 22.39C114.835 22.39 112.825 24.01 112.825 26.8C112.825 29.59 114.595 31.21 116.92 31.21ZM121.26 31H123.465V25.225C124.08 24.61 124.515 24.28 125.205 24.28C126.03 24.28 126.39 24.73 126.39 26.035V31H128.595V25.765C128.595 23.65 127.815 22.39 126 22.39C124.86 22.39 124.035 22.99 123.36 23.62L123.465 22.045V19.03H121.26V31ZM130.855 31H133.06V22.6H130.855V31ZM131.965 21.25C132.715 21.25 133.24 20.77 133.24 20.035C133.24 19.315 132.715 18.835 131.965 18.835C131.2 18.835 130.675 19.315 130.675 20.035C130.675 20.77 131.2 21.25 131.965 21.25ZM134.826 34.435C136.941 34.435 137.631 33.01 137.631 31.21V22.6H135.426V31.27C135.426 32.215 135.216 32.695 134.511 32.695C134.256 32.695 134.031 32.65 133.806 32.575L133.416 34.21C133.746 34.33 134.181 34.435 134.826 34.435ZM136.521 21.25C137.286 21.25 137.811 20.77 137.811 20.035C137.811 19.315 137.286 18.835 136.521 18.835C135.771 18.835 135.246 19.315 135.246 20.035C135.246 20.77 135.771 21.25 136.521 21.25ZM143.506 31.21C145.606 31.21 147.541 29.59 147.541 26.8C147.541 24.01 145.606 22.39 143.506 22.39C141.406 22.39 139.471 24.01 139.471 26.8C139.471 29.59 141.406 31.21 143.506 31.21ZM143.506 29.41C142.366 29.41 141.721 28.39 141.721 26.8C141.721 25.225 142.366 24.19 143.506 24.19C144.646 24.19 145.291 25.225 145.291 26.8C145.291 28.39 144.646 29.41 143.506 29.41ZM153.15 19.045L151.275 19.81C151.95 21.4 152.67 23.005 153.36 24.28C151.92 25.345 150.87 26.59 150.87 28.24C150.87 30.82 153.135 31.645 156.12 31.645C158.07 31.645 159.66 31.495 160.935 31.27L160.965 29.11C159.63 29.44 157.605 29.665 156.06 29.665C153.975 29.665 152.94 29.095 152.94 28.015C152.94 26.965 153.78 26.11 155.025 25.285C156.39 24.4 158.28 23.53 159.21 23.065C159.765 22.78 160.245 22.525 160.695 22.255L159.66 20.515C159.27 20.845 158.835 21.1 158.265 21.43C157.56 21.835 156.255 22.48 155.025 23.2C154.425 22.045 153.72 20.605 153.15 19.045ZM170.31 29.05C170.31 28.48 170.88 28.12 171.735 28.12C172.14 28.12 172.545 28.18 172.935 28.285C172.935 28.39 172.935 28.48 172.935 28.555C172.935 29.44 172.62 29.92 171.705 29.92C170.91 29.92 170.31 29.665 170.31 29.05ZM174.765 19.255H172.62C172.68 19.555 172.725 20.02 172.725 20.245C172.725 20.56 172.74 21.175 172.74 21.91C172.395 21.925 172.035 21.925 171.69 21.925C170.79 21.925 169.92 21.88 169.065 21.79V23.575C169.95 23.635 170.805 23.665 171.69 23.665C172.035 23.665 172.395 23.665 172.755 23.65C172.77 24.715 172.83 25.81 172.86 26.74C172.56 26.695 172.23 26.68 171.885 26.68C169.845 26.68 168.555 27.73 168.555 29.245C168.555 30.82 169.845 31.69 171.915 31.69C173.94 31.69 174.75 30.67 174.84 29.23C175.44 29.635 176.04 30.16 176.67 30.745L177.705 29.17C176.985 28.51 176.04 27.745 174.795 27.235C174.735 26.215 174.66 25.015 174.63 23.56C175.455 23.5 176.235 23.41 176.955 23.305V21.43C176.235 21.58 175.455 21.7 174.63 21.775C174.645 21.115 174.66 20.56 174.675 20.23C174.69 19.9 174.72 19.54 174.765 19.255ZM167.445 19.42L165.375 19.24C165.36 19.72 165.285 20.29 165.225 20.71C165.06 21.865 164.61 24.7 164.61 26.965C164.61 29.005 164.895 30.715 165.21 31.765L166.905 31.63C166.89 31.42 166.875 31.165 166.875 31.015C166.875 30.85 166.905 30.52 166.95 30.31C167.13 29.5 167.61 27.97 168.03 26.74L167.115 25.99C166.89 26.5 166.635 27.01 166.44 27.535C166.395 27.235 166.38 26.86 166.38 26.56C166.38 25.06 166.875 21.76 167.1 20.755C167.145 20.485 167.325 19.72 167.445 19.42Z" fill="#FA7575"/>
</svg>
