<svg width="276" height="124" viewBox="0 0 276 124" fill="none" xmlns="http://www.w3.org/2000/svg">
<path d="M26.3266 40.7088C26.3266 40.7088 22.4295 30.0488 30.962 27.5314C39.4946 25.014 42.5506 22.6934 40.0392 17.8611" stroke="#CE7736" stroke-width="0.397455" stroke-miterlimit="10" stroke-linecap="round"/>
<path d="M21.794 40.709C21.794 40.709 27.0648 35.3674 21.794 29.285C16.5232 23.2027 9.15858 29.6438 12.1117 36.4959" stroke="#CE7736" stroke-width="0.397455" stroke-miterlimit="10" stroke-linecap="round"/>
<path d="M25.0252 40.7089C25.0252 40.7089 25.3096 28.9725 20.2506 24.9098C11.9662 18.2603 11.4276 25.3786 6.27783 22.7628" stroke="#CE7736" stroke-width="0.397455" stroke-miterlimit="10" stroke-linecap="round"/>
<path d="M4.09959 22.7629C4.09959 22.7629 -0.136422 24.175 2.41123 28.0003C4.31139 30.6219 9.38855 32.6879 13.1707 28.7005" stroke="#CE7736" stroke-width="0.397455" stroke-miterlimit="10" stroke-linecap="round"/>
<path d="M25.1345 38.4172C25.1345 38.4172 23.9242 28.2376 30.5384 20.9804C36.4386 14.6145 33.1587 4.45801 33.1587 4.45801" stroke="#529E97" stroke-width="0.397455" stroke-miterlimit="10" stroke-linecap="round"/>
<path d="M23.4823 13.625C23.4823 13.625 25.9634 16.1829 25.4369 25.0142C25.1224 30.4122 25.1466 35.8233 25.5095 41.2184" stroke="#529E97" stroke-width="0.397455" stroke-miterlimit="10" stroke-linecap="round"/>
<path d="M33.5457 5.96847C33.5457 5.96847 34.5987 3.3006 33.2008 1.68599C31.8029 0.0713758 30.5684 -0.351081 30.3808 0.279717C30.1932 0.910516 28.5654 1.3619 29.3581 2.9823C30.1508 4.6027 33.5457 5.96847 33.5457 5.96847Z" fill="#52A07F"/>
<path d="M34.0479 9.93261C34.0479 9.93261 34.0902 5.93365 36.0872 4.9614C37.352 4.38268 37.6666 5.33178 38.1628 4.9614C38.6591 4.59102 39.6031 4.75884 39.5305 5.96837C39.4579 7.17789 37.5214 10.9049 34.0479 9.93261Z" fill="#52A07F"/>
<path d="M34.0724 10.4015C34.0724 10.4015 30.6412 10.6387 29.1526 8.35277C28.2933 6.8423 29.2373 6.80758 29.1526 6.33881C29.0679 5.87005 28.2933 5.59804 29.6972 5.66749C31.1012 5.73694 34.5081 7.78562 34.0724 10.4015Z" fill="#52A07F"/>
<path d="M25.4186 25.5118C25.4186 25.5118 21.9935 25.7433 20.4988 23.4631C19.6455 21.9527 20.5835 21.9179 20.4988 21.4492C20.4141 20.9804 19.6455 20.7084 21.0495 20.7778C22.4534 20.8473 25.8604 22.8902 25.4186 25.5118Z" fill="#52A07F"/>
<path d="M25.1587 17.8674C25.1587 17.8674 22.2903 19.6792 19.8213 18.3884C18.3024 17.4738 19.1072 17.0049 18.7925 16.6518C18.4778 16.2987 17.6669 16.4087 18.9256 15.8067C20.1843 15.2047 24.2025 15.3783 25.1587 17.8674Z" fill="#52A07F"/>
<path d="M23.7424 13.6192C23.7424 13.6192 20.3173 13.8565 18.8286 11.5705C17.9693 10.0601 18.9133 10.0254 18.8286 9.55659C18.7439 9.08782 17.9693 8.81582 19.3732 8.88526C20.7772 8.95471 24.1841 11.0034 23.7424 13.6192Z" fill="#52A07F"/>
<path d="M33.201 16.4896C33.201 16.4896 34.2661 12.7222 37.2132 12.1839C38.2661 11.912 38.9015 12.6527 39.7063 12.4849C40.5112 12.3171 41.6731 12.0509 40.6201 14.1632C39.5672 16.2755 35.0165 17.676 33.201 16.4896Z" fill="#52A07F"/>
<path d="M25.0194 18.1389C25.0194 18.1389 29.0799 17.6933 30.0783 14.9849C30.514 14.03 29.8423 13.324 30.1389 12.5832C30.4354 11.8425 30.8832 10.7892 28.5413 11.4721C26.1994 12.155 24.0693 16.2465 25.0194 18.1389Z" fill="#52A07F"/>
<path d="M32.9407 17.1841C32.9407 17.1841 29.2372 16.1829 29.1525 13.0289C29.0678 11.2927 30.2962 11.9525 30.6109 11.4143C30.9256 10.8761 31.3492 10.4767 31.9482 11.4143C32.5473 12.3518 34.5201 14.3657 32.9407 17.1841Z" fill="#52A07F"/>
<path d="M29.6912 21.9816C29.6912 21.9816 32.2267 18.7987 35.3856 19.9387C35.9907 20.3091 35.7366 20.8821 35.9907 21.1483C36.2449 21.4145 39.1496 22.0569 36.7592 23.1333C34.3689 24.2097 31.6518 24.8232 29.6912 21.9816Z" fill="#52A07F"/>
<path d="M29.1585 22.6993C29.1585 22.6993 25.4248 20.5812 25.9876 17.5256C26.5504 15.61 27.2402 16.3682 27.5428 16.0441C27.8454 15.72 27.6699 13.8623 29.57 16.0441C31.4702 18.2258 30.974 21.4956 29.1585 22.6993Z" fill="#52A07F"/>
<path d="M19.3734 29.2445C19.3734 29.2445 24.1177 34.0768 20.3235 37.7054C17.685 40.2228 8.94678 45.466 19.8999 52.7174H29.3825C29.3825 52.7174 37.8545 48.2844 32.8923 40.9289C28.7531 35.5931 26.7501 33.8801 30.4354 30.6566C30.4354 30.6566 25.0618 27.4505 19.3734 29.2445Z" fill="#FFAE2C"/>
<g style="mix-blend-mode:multiply" opacity="0.24">
<path d="M32.8923 40.9116C32.2085 40.0319 31.5913 39.2564 31.0346 38.5446C32.4869 41.6118 32.4869 45.0899 29.7637 47.2601C26.1329 50.7325 19.4763 49.575 17.0557 45.524C15.8454 42.0517 19.4763 39.7368 21.2917 36.8432C21.3831 36.5799 21.4459 36.3085 21.4793 36.033C21.2201 36.6563 20.8262 37.2203 20.3235 37.6881C17.6851 40.2055 8.94677 45.4487 19.8999 52.7001H29.3825C29.3825 52.7001 37.8787 48.2845 32.8923 40.9116Z" fill="#FFAE2C"/>
</g>
<path d="M22.5986 33.7586C22.6822 35.1999 22.4301 36.6409 21.8603 37.9775C21.7877 38.1511 22.0782 38.2264 22.1508 38.0528C22.7305 36.6922 22.9868 35.2255 22.9012 33.7586C22.9012 33.5735 22.5865 33.5735 22.5986 33.7586Z" fill="#FFCE88"/>
<path d="M21.7031 38.5966H21.6366C21.6281 38.5926 21.6188 38.5905 21.6093 38.5905C21.5999 38.5905 21.5906 38.5926 21.5821 38.5966C21.5639 38.6027 21.5474 38.6126 21.5337 38.6256C21.5201 38.6386 21.5097 38.6544 21.5035 38.6718C21.4974 38.6907 21.4974 38.7108 21.5035 38.7297V38.7644C21.5117 38.7887 21.5263 38.8106 21.5458 38.828H21.5761C21.6 38.833 21.6248 38.833 21.6487 38.828H21.7153C21.733 38.833 21.7519 38.833 21.7697 38.828C21.7879 38.822 21.8045 38.8121 21.8181 38.7991C21.8318 38.786 21.8421 38.7702 21.8484 38.7528C21.8536 38.7358 21.8536 38.7177 21.8484 38.7008V38.6603C21.8402 38.636 21.8256 38.6141 21.806 38.5966H21.7758H21.7031Z" fill="#FFCE88"/>
<path d="M21.0738 39.6037C20.5415 40.3472 20.0855 41.1381 19.7122 41.9654C19.6396 42.1391 19.8998 42.2838 19.9725 42.1159C20.3494 41.2884 20.8052 40.4959 21.334 39.7484C21.449 39.5921 21.1828 39.4474 21.0738 39.6037Z" fill="#FFCE88"/>
<path d="M20.6382 17.184C21.6002 17.5441 22.633 17.6983 23.6639 17.6354C23.8576 17.6354 23.8576 17.3345 23.6639 17.346C22.6557 17.41 21.6452 17.2597 20.7048 16.9061C20.5232 16.8425 20.4446 17.1203 20.6201 17.184H20.6382Z" fill="#28776D"/>
<path d="M20.9528 11.4722C21.5752 12.2676 22.3199 12.9683 23.1616 13.5504C23.325 13.6546 23.4763 13.4057 23.319 13.2957C22.5148 12.7455 21.8045 12.0796 21.2131 11.3217C21.1919 11.2898 21.1585 11.2671 21.12 11.2585C21.0816 11.2498 21.0411 11.2559 21.0073 11.2754C20.973 11.2947 20.948 11.3263 20.9378 11.3631C20.9276 11.4 20.933 11.4392 20.9528 11.4722Z" fill="#28776D"/>
<path d="M27.0043 14.8287C26.4354 15.6159 25.8424 16.38 25.2312 17.1441C25.1102 17.2888 25.322 17.4914 25.443 17.3467C26.0481 16.5768 26.6835 15.7896 27.2584 14.9908C27.3673 14.8345 27.1071 14.6898 26.9982 14.8403L27.0043 14.8287Z" fill="#28776D"/>
<path d="M21.685 22.52C22.0147 23.1792 22.4815 23.7672 23.0569 24.2479C23.6323 24.7286 24.3042 25.092 25.0315 25.3158C25.2191 25.3736 25.2977 25.0958 25.1102 25.0379C24.4214 24.824 23.7858 24.4774 23.2425 24.0194C22.6992 23.5615 22.2598 23.002 21.9513 22.3753C21.8666 22.2074 21.6064 22.3753 21.685 22.52Z" fill="#28776D"/>
<path d="M28.1419 17.3752C28.1258 19.0338 28.7557 20.6388 29.9089 21.8777C30.036 22.0166 30.2478 21.8082 30.1207 21.6693C29.0238 20.4866 28.4263 18.9559 28.4445 17.3752C28.4445 17.3368 28.4285 17.3 28.4002 17.2729C28.3718 17.2457 28.3333 17.2305 28.2932 17.2305C28.2531 17.2305 28.2146 17.2457 28.1862 17.2729C28.1578 17.3 28.1419 17.3368 28.1419 17.3752Z" fill="#28776D"/>
<path d="M33.4671 21.4665C32.9209 21.732 32.3244 21.8898 31.7132 21.9306C31.102 21.9714 30.4884 21.8943 29.9089 21.7039C29.7273 21.6402 29.6487 21.9181 29.8302 21.9818C30.4482 22.1817 31.1019 22.2611 31.7525 22.2154C32.4031 22.1697 33.0376 21.9997 33.6184 21.7155C33.7939 21.6344 33.6184 21.3797 33.4671 21.4665Z" fill="#28776D"/>
<path d="M25.4006 25.0432C25.4006 25.0432 25.4369 21.0442 27.44 20.072C28.7047 19.4933 29.0194 20.4424 29.5096 20.072C29.9997 19.7016 30.9498 19.8695 30.8833 21.079C30.8167 22.2885 28.8742 26.0154 25.4006 25.0432Z" fill="#52A07F"/>
<path d="M27.5974 22.8441C27.0308 23.6325 26.2942 24.2957 25.4371 24.789C25.4068 24.8101 25.3857 24.8411 25.378 24.8762C25.3703 24.9112 25.3764 24.9478 25.3953 24.9787C25.4141 25.0097 25.4442 25.0329 25.4799 25.0438C25.5156 25.0548 25.5542 25.0526 25.5884 25.0379C26.4911 24.5202 27.2654 23.8211 27.8577 22.9888C27.9666 22.8325 27.7064 22.6878 27.5974 22.8441Z" fill="#28776D"/>
<path d="M31.3069 12.6469C31.1132 14.0532 31.9846 15.2801 32.7955 16.3681C32.9105 16.5186 33.1707 16.3681 33.0557 16.2234C32.2751 15.1759 31.4218 14.0069 31.6094 12.6469C31.6094 12.4618 31.3311 12.4618 31.3069 12.6469Z" fill="#28776D"/>
<path d="M36.3294 13.9839C35.488 15.0414 34.3122 15.8109 32.9769 16.1777C32.942 16.1906 32.9134 16.2154 32.8965 16.2473C32.8796 16.2793 32.8756 16.316 32.8854 16.3506C32.8952 16.3851 32.918 16.4149 32.9494 16.4343C32.9808 16.4537 33.0186 16.4613 33.0556 16.4556C34.4656 16.0722 35.7064 15.2593 36.5896 14.1402C36.7106 13.9897 36.4444 13.8449 36.3294 13.9954V13.9839Z" fill="#28776D"/>
<path d="M30.7318 7.59472C31.2477 8.60295 32.1172 9.40599 33.1887 9.86381C33.3703 9.93906 33.5215 9.69016 33.3461 9.61491C32.3189 9.18162 31.485 8.41475 30.992 7.45001C30.9073 7.28214 30.6471 7.45001 30.7318 7.59472Z" fill="#28776D"/>
<path d="M37.4735 6.04951L35.3555 8.41696C35.2284 8.55588 35.4402 8.76427 35.5673 8.61956L37.6913 6.25209C37.8124 6.11317 37.6006 5.9048 37.4735 6.04951Z" fill="#28776D"/>
<path d="M82.4779 32.1624L75.2255 46.6302H76.279L85.1526 33.5606L82.4779 32.1624Z" fill="#93401F"/>
<path d="M116.988 32.4705L120.525 47.5969L119.283 48.0899L113.203 33.4373L116.988 32.4705Z" fill="#93401F"/>
<path d="M78.2678 27.5284C78.2678 27.5284 76.4465 24.5432 82.1635 25.4368C87.8805 26.3305 93.0952 19.4201 98.6816 10.7571C104.268 2.09415 113.574 -1.18384 119.467 1.9786C125.36 5.14103 124.963 28.0831 120.533 31.727C116.102 35.371 98.4815 40.9717 88.6809 35.9256C78.8803 30.8796 78.2678 27.5284 78.2678 27.5284Z" fill="#FFBAB3"/>
<path d="M119.467 1.9786C113.574 -1.18384 104.264 2.09416 98.6816 10.7571C93.0993 19.4201 87.8805 26.3266 82.1635 25.4369C76.4465 24.5471 78.2678 27.5285 78.2678 27.5285C78.2678 27.5285 78.7864 30.2941 86.1981 34.5698C85.293 33.6731 84.4884 32.6908 83.797 31.6385C82.5719 29.7125 84.6137 27.4013 86.2471 27.0161C96.456 24.705 100.131 14.69 108.707 11.6084C116.841 8.60392 121.3 16.5851 123.408 24.0347C124.633 15.8455 123.551 4.16649 119.467 1.9786Z" fill="#FFBAB3"/>
<g style="mix-blend-mode:multiply" opacity="0.22">
<path d="M108.706 11.6085C100.131 14.69 96.4557 24.705 86.2468 27.0162C84.6134 27.4014 82.5716 29.7126 83.7967 31.6385C84.4881 32.6909 85.2928 33.6732 86.1978 34.5698C86.9546 35.009 87.785 35.4609 88.6888 35.9257C98.4894 40.964 116.098 35.371 120.541 31.7271C121.9 30.6062 122.881 27.6633 123.399 24.0232C121.3 16.5852 116.841 8.60396 108.706 11.6085Z" fill="#FFBAB3"/>
</g>
<path d="M107.118 38.8029C98.0566 40.1434 86.5164 38.853 78.0798 30.0745C77.895 29.845 77.7285 29.603 77.5816 29.3503C77.0671 28.4798 76.4586 27.0122 77.3815 25.8836C78.7781 24.2157 82.829 25.1132 88.4071 27.9675C93.9853 30.8218 103.39 32.5127 109.405 29.8203L111.112 29.0499C116.347 26.627 120.545 24.4853 122.227 26.966C124.118 29.7124 116.184 37.4548 107.118 38.8029Z" fill="#FFBAB3"/>
<g style="mix-blend-mode:multiply" opacity="0.22">
<path d="M101.765 34.7198C105.252 34.1267 108.016 31.8117 110.275 29.4505L109.413 29.8356C103.398 32.532 94.0017 30.8564 88.4153 27.9829C87.668 27.5977 86.9534 27.2549 86.2633 26.9429C85.0627 27.3127 82.9188 37.9362 101.765 34.7198Z" fill="#FFBAB3"/>
</g>
<path d="M106.281 32.2393C106.281 32.2393 99.0162 26.3921 97.7748 22.1935C101.826 13.6461 111.361 11.4697 111.361 11.4697C111.361 11.4697 120.238 14.7978 120.524 21.4847C118.552 29.1924 106.281 32.2393 106.281 32.2393Z" fill="#529E97"/>
<g style="mix-blend-mode:multiply" opacity="0.18">
<path d="M110.34 26.7657C107.481 25.6101 104.215 20.4678 105.44 16.6159C106.158 13.5613 111.361 11.4697 111.361 11.4697C111.361 11.4697 101.826 13.6461 97.7748 22.1935C98.9999 26.3921 106.281 32.2393 106.281 32.2393C106.281 32.2393 118.323 29.2463 120.459 21.6927C118.266 24.9052 113.509 28.2641 110.34 26.7657Z" fill="#529E97"/>
</g>
<path d="M111.974 52.9011H110.34L107.661 37.2623C108.994 36.9743 110.29 36.5547 111.529 36.0104L111.974 52.9011Z" fill="#93401F"/>
<path d="M86.8556 25.6333C86.8556 25.6333 92.544 18.3994 96.8971 16.9434C106.216 20.1674 109.172 28.9921 109.172 28.9921C109.172 28.9921 105.44 34.173 98.3754 34.8971C90.0857 33.5644 86.8556 25.6333 86.8556 25.6333Z" fill="white"/>
<g style="mix-blend-mode:multiply" opacity="0.22">
<path d="M107.563 25.7297C109.675 32.0623 100.478 33.5645 96.0476 32.0237C91.9641 30.7372 88.4399 26.7697 89.5139 22.5789C87.9295 24.2544 86.8433 25.6334 86.8433 25.6334C86.8433 25.6334 90.0734 33.5722 98.363 34.878C105.411 34.1539 109.16 28.973 109.16 28.973C108.74 27.8458 108.205 26.7596 107.563 25.7297Z" fill="#D7E2E0"/>
</g>
<path d="M107.118 38.8031C98.0567 40.1435 86.5165 38.8531 78.0799 30.0746C77.8951 29.8451 77.7286 29.603 77.5817 29.3504C80.0318 31.8079 85.3854 35.371 95.2064 34.5544C100.878 33.8527 106.316 31.9799 111.132 29.0692C116.367 26.6463 120.565 24.5046 122.248 26.9853C124.118 29.7125 116.184 37.4549 107.118 38.8031Z" fill="#F77F72"/>
<g style="mix-blend-mode:multiply" opacity="0.09">
<path d="M120.141 27.7864C111.973 34.7199 101.356 39.3422 90.3306 36.2607C87.1862 35.4132 83.9194 34.0997 81.3467 32.1275C79.9555 31.379 78.6872 30.4434 77.5817 29.3503C77.7286 29.6029 77.8951 29.845 78.0799 30.0744C86.5165 38.853 98.0567 40.1434 107.118 38.803C115.436 37.5665 122.803 30.9527 122.517 27.744C122.139 27.5989 121.733 27.5279 121.324 27.5352C120.916 27.5425 120.513 27.6279 120.141 27.7864Z" fill="#F77F72"/>
</g>
<path d="M108.441 3.02676C106.056 4.21399 104.024 5.94455 102.528 8.06118C102.454 8.16132 102.63 8.26147 102.704 8.15747C104.181 6.07064 106.189 4.36523 108.543 3.19624C108.662 3.13846 108.543 2.97283 108.441 3.02676Z" fill="#FFE7E6"/>
<path d="M102.054 8.81711H102.124C102.151 8.81711 102.177 8.8069 102.196 8.78873C102.215 8.77055 102.226 8.7459 102.226 8.7202C102.226 8.6945 102.215 8.66985 102.196 8.65168C102.177 8.6335 102.151 8.62329 102.124 8.62329H102.054C102.027 8.62329 102.001 8.6335 101.982 8.65168C101.963 8.66985 101.952 8.6945 101.952 8.7202C101.952 8.7459 101.963 8.77055 101.982 8.78873C102.001 8.8069 102.027 8.81711 102.054 8.81711H102.124C102.151 8.81711 102.177 8.8069 102.196 8.78873C102.215 8.77055 102.226 8.7459 102.226 8.7202C102.226 8.6945 102.215 8.66985 102.196 8.65168C102.177 8.6335 102.151 8.62329 102.124 8.62329H102.054C102.027 8.62329 102.001 8.6335 101.982 8.65168C101.963 8.66985 101.952 8.6945 101.952 8.7202C101.952 8.7459 101.963 8.77055 101.982 8.78873C102.001 8.8069 102.027 8.81711 102.054 8.81711Z" fill="#FFE7E6"/>
<path d="M101.185 9.86355C100.432 10.6728 99.8471 11.6086 99.4615 12.6222C99.4166 12.7378 99.6126 12.7917 99.6575 12.6723C100.034 11.6904 100.602 10.7836 101.332 9.9984C101.418 9.90593 101.275 9.77108 101.185 9.86355Z" fill="#FFE7E6"/>
<path d="M97.0643 18.2451C101.277 20.1918 104.742 23.3273 106.979 27.2163C106.994 27.2356 107.016 27.249 107.041 27.2539C107.065 27.2588 107.091 27.2549 107.113 27.2429C107.135 27.2309 107.151 27.2117 107.159 27.189C107.167 27.1663 107.165 27.1417 107.155 27.12C104.9 23.2024 101.409 20.043 97.1664 18.0795C97.052 18.0256 96.9459 18.1912 97.0643 18.2451Z" fill="#DDEDEA"/>
<path d="M88.6686 26.2459C90.7507 29.6369 94.0887 32.1819 98.0404 33.3911C98.167 33.4296 98.2201 33.2447 98.0976 33.2062C94.1933 32.0069 90.8983 29.4861 88.8483 26.1303C88.783 26.0225 88.6033 26.1303 88.6686 26.2305V26.2459Z" fill="#DDEDEA"/>
<path d="M118.764 30.6291C116.37 33.0053 113.427 34.8294 110.164 35.9602C110.042 36.0025 110.095 36.1874 110.222 36.145C113.518 35.0005 116.49 33.1552 118.907 30.7524C118.997 30.6638 118.854 30.5251 118.764 30.6176V30.6291Z" fill="#E26259"/>
<path d="M106.477 37.279L108.343 36.8005C108.367 36.7919 108.386 36.7754 108.397 36.7541C108.409 36.7328 108.411 36.7083 108.405 36.6853C108.398 36.6623 108.383 36.6424 108.362 36.6294C108.34 36.6165 108.315 36.6114 108.29 36.6153L106.424 37.0938C106.4 37.1024 106.381 37.1189 106.37 37.1402C106.358 37.1615 106.355 37.186 106.362 37.209C106.369 37.232 106.384 37.2519 106.405 37.2648C106.426 37.2778 106.452 37.2828 106.477 37.279Z" fill="#E26259"/>
<path d="M96.9174 37.9645C99.4184 38.211 101.945 38.0808 104.403 37.5785C104.533 37.5515 104.476 37.3623 104.35 37.3894C101.91 37.8916 99.4007 38.0219 96.9174 37.7753C96.7867 37.7753 96.7908 37.9568 96.9174 37.9683V37.9645Z" fill="#E26259"/>
<path d="M111.226 12.5676C113.075 13.325 114.745 14.4208 116.142 15.7914C117.538 17.1621 118.632 18.7804 119.361 20.5527C119.41 20.6682 119.606 20.6182 119.557 20.5026C118.819 18.7085 117.713 17.07 116.3 15.6816C114.888 14.2932 113.198 13.1825 111.328 12.4136C111.21 12.3673 111.108 12.533 111.226 12.5831V12.5676Z" fill="#84C1B9"/>
<path d="M110.81 13.1763L111.034 13.9472C111.043 13.9694 111.061 13.9876 111.083 13.9984C111.106 14.0092 111.132 14.0117 111.156 14.0054C111.18 13.9992 111.201 13.9847 111.215 13.9647C111.229 13.9447 111.234 13.9206 111.23 13.897L111.006 13.1261C110.973 13.0067 110.777 13.0606 110.81 13.1801V13.1763Z" fill="#84C1B9"/>
<path d="M111.193 14.1127L112.178 14.1591C112.308 14.1591 112.308 13.9737 112.178 13.966L111.193 13.9197C111.063 13.9197 111.063 14.105 111.193 14.1127Z" fill="#84C1B9"/>
<path d="M112.149 14.0776C112.149 14.463 112.17 14.8485 112.182 15.2648C112.182 15.2903 112.193 15.3148 112.212 15.3329C112.231 15.351 112.257 15.3611 112.284 15.3611C112.311 15.3611 112.337 15.351 112.356 15.3329C112.375 15.3148 112.386 15.2903 112.386 15.2648C112.386 14.8793 112.366 14.4707 112.353 14.0776C112.353 14.052 112.343 14.0275 112.323 14.0094C112.304 13.9914 112.278 13.9812 112.251 13.9812C112.224 13.9812 112.198 13.9914 112.179 14.0094C112.16 14.0275 112.149 14.052 112.149 14.0776Z" fill="#84C1B9"/>
<path d="M112.382 15.4605L113.644 15.4143C113.774 15.4143 113.774 15.2139 113.644 15.2217L112.382 15.2679C112.251 15.2679 112.251 15.4682 112.382 15.4605Z" fill="#84C1B9"/>
<path d="M113.566 15.4604L113.664 16.6476C113.664 16.771 113.877 16.7748 113.868 16.6476L113.77 15.4604C113.77 15.3371 113.554 15.3371 113.566 15.4604Z" fill="#84C1B9"/>
<path d="M113.901 16.9011L115.106 17.0553C115.131 17.0644 115.159 17.0638 115.184 17.0538C115.21 17.0437 115.23 17.025 115.24 17.0014C115.244 16.9889 115.245 16.976 115.243 16.9632C115.242 16.9504 115.237 16.9381 115.23 16.9269C115.224 16.9158 115.214 16.906 115.204 16.8983C115.193 16.8905 115.18 16.8849 115.167 16.8818L113.962 16.7276C113.937 16.7237 113.912 16.7288 113.891 16.7417C113.869 16.7546 113.854 16.7745 113.847 16.7975C113.841 16.8205 113.843 16.845 113.855 16.8663C113.866 16.8876 113.886 16.9041 113.909 16.9127L113.901 16.9011Z" fill="#84C1B9"/>
<path d="M115.179 17.0395C115.081 17.5252 114.983 18.0071 114.889 18.4927C114.865 18.6161 115.061 18.6662 115.085 18.5429C115.183 18.061 115.277 17.5753 115.375 17.0897C115.4 16.9702 115.204 16.9162 115.179 17.0395Z" fill="#84C1B9"/>
<path d="M115.13 18.6626H116.498C116.525 18.6626 116.551 18.6524 116.57 18.6342C116.589 18.616 116.6 18.5914 116.6 18.5657C116.6 18.54 116.589 18.5153 116.57 18.4971C116.551 18.479 116.525 18.4688 116.498 18.4688H115.13C115.103 18.4688 115.077 18.479 115.058 18.4971C115.039 18.5153 115.028 18.54 115.028 18.5657C115.028 18.5914 115.039 18.616 115.058 18.6342C115.077 18.6524 115.103 18.6626 115.13 18.6626Z" fill="#84C1B9"/>
<path d="M116.437 18.6419C116.331 19.1582 116.225 19.6745 116.114 20.1831C116.09 20.3026 116.286 20.3565 116.31 20.2332C116.421 19.7169 116.527 19.2006 116.637 18.692C116.661 18.5687 116.465 18.5186 116.437 18.6419Z" fill="#84C1B9"/>
<path d="M116.253 20.2716L118.385 20.5838C118.516 20.5838 118.569 20.418 118.438 20.3988L116.306 20.0827C116.176 20.0634 116.123 20.2484 116.253 20.2677V20.2716Z" fill="#84C1B9"/>
<path d="M118.221 20.4678C118.111 20.9841 117.997 21.5003 117.887 22.0089C117.858 22.1284 118.058 22.1785 118.083 22.059C118.193 21.5427 118.307 21.0264 118.417 20.5179C118.446 20.3984 118.25 20.3483 118.221 20.4678Z" fill="#84C1B9"/>
<path d="M118.062 22.0089L119.32 22.1709C119.345 22.1769 119.372 22.1735 119.395 22.1612C119.418 22.149 119.435 22.129 119.442 22.1053C119.446 22.0931 119.447 22.0804 119.446 22.0678C119.444 22.0552 119.44 22.043 119.434 22.0319C119.427 22.0208 119.419 22.011 119.408 22.0031C119.398 21.9952 119.386 21.9893 119.373 21.9857L118.099 21.8121C118.073 21.8059 118.045 21.8093 118.022 21.8214C117.998 21.8336 117.981 21.8537 117.972 21.8777C117.969 21.8901 117.968 21.9031 117.969 21.9159C117.971 21.9287 117.975 21.941 117.982 21.9522C117.989 21.9633 117.998 21.973 118.009 21.9808C118.02 21.9885 118.033 21.9942 118.046 21.9973L118.062 22.0089Z" fill="#84C1B9"/>
<g clip-path="url(#clip0_1_3473)">
<path d="M238.756 24.875C241.482 22.7982 249.432 19.6441 256.454 20.384C259.868 20.7409 261.957 20.0465 263.203 19.2482C261.956 19.0126 260.723 18.7049 259.511 18.3267C251.56 15.6334 261.84 10.6621 256.084 7.9428C249.386 4.76922 234.563 8.59179 228.249 13.9979C226.302 15.6723 222.868 19.0925 222.174 24.544C221.408 30.5407 224.471 37.5628 232.026 39.8473H232.065C229.144 33.6494 236.329 26.7246 238.756 24.875Z" fill="#CE7259"/>
<path d="M263.203 19.2483C261.957 20.0466 259.868 20.741 256.454 20.384C249.432 19.6442 241.482 22.7983 238.756 24.8751C236.528 26.6303 234.625 28.7632 233.136 31.1768C233.785 31.0275 234.531 31.3844 235.121 32.3514C235.712 33.3184 237.412 33.1173 237.484 33.9025C237.581 35.0058 237.367 36.0961 236.257 36.5374C235.963 36.6453 235.647 36.6831 235.336 36.6478C234.574 36.585 233.813 36.7792 233.174 37.1994C233.019 37.2669 232.851 37.3018 232.681 37.3018C232.512 37.3018 232.344 37.2669 232.188 37.1994C231.837 36.9917 231.559 36.6814 231.39 36.3103C231.303 37.5211 231.526 38.7339 232.039 39.8343C245.343 43.8451 266.799 38.8544 267.655 25.7058C268.012 20.5463 266.163 19.8778 263.203 19.2483ZM260.283 25.4332C260.101 27.1076 258.011 28.2498 255.617 27.9902C253.222 27.7306 251.431 26.1601 251.612 24.4922C251.794 22.8242 253.884 21.6755 256.279 21.9351C258.673 22.1947 260.465 23.7653 260.283 25.4332Z" fill="#C6664F"/>
<path d="M227.424 25.6603C228.262 25.7113 229.074 25.97 229.787 26.4132C231.987 27.3347 231.325 25.3099 231.215 24.5765C231.085 23.7134 231.773 22.7334 232.318 21.8832C231.743 21.5666 231.147 21.2912 230.533 21.059C229.053 20.2413 227.859 21.3835 227.21 22.6555C226.856 23.249 226.442 23.8056 225.977 24.3169C225.977 24.5024 226.014 24.6861 226.088 24.8562C226.162 25.0264 226.271 25.1793 226.407 25.3056C226.543 25.4318 226.703 25.5284 226.878 25.5895C227.054 25.6506 227.239 25.6747 227.424 25.6603Z" fill="#FFB600"/>
<path d="M225.12 26.2379C225.12 27.2568 226.263 27.4839 227.003 27.3606C228.054 27.1724 228.729 27.4775 229.696 27.802C230.13 27.9589 230.597 28.0013 231.052 27.9253C231.773 27.8084 231.948 26.9323 232.019 26.3482C232.091 25.7641 232.071 25.3228 232.143 24.8101C232.24 24.1611 232.707 23.5705 232.792 22.8631C232.812 22.6709 232.782 22.4765 232.703 22.2999C232.624 22.1232 232.5 21.9705 232.344 21.8572C231.799 22.7074 231.111 23.6873 231.24 24.5505C231.351 25.2839 232.013 27.3087 229.813 26.3871C229.1 25.944 228.288 25.6853 227.45 25.6343C227.265 25.6487 227.079 25.6245 226.904 25.5635C226.729 25.5024 226.569 25.4057 226.433 25.2795C226.297 25.1533 226.188 25.0003 226.114 24.8302C226.04 24.66 226.003 24.4764 226.003 24.2909C225.488 24.8152 225.175 25.505 225.12 26.2379Z" fill="#FF9100"/>
<path d="M234.778 17.3662C235.174 17.5724 235.623 17.6583 236.068 17.6134C236.513 17.5684 236.935 17.3945 237.283 17.1131C237.932 16.6783 239.697 16.3667 240.047 15.8475C240.268 15.472 240.518 15.114 240.794 14.7767C240.676 14.2997 240.463 13.8511 240.169 13.4576C239.875 13.0641 239.505 12.7336 239.08 12.4858C238.624 12.3174 238.124 12.3057 237.66 12.4526C237.196 12.5994 236.794 12.8965 236.517 13.297C235.868 14.1082 235.491 14.595 234.369 14.8546C233.795 14.9441 233.258 15.1913 232.818 15.5685C232.723 15.6751 232.638 15.7903 232.564 15.9124C232.623 16.6004 234.271 17.1261 234.778 17.3662Z" fill="#D34040"/>
<path d="M232.967 17.6777C233.552 18.0131 234.095 18.4185 234.583 18.8849C234.901 19.2551 235.298 19.5499 235.745 19.748C236.848 20.1894 237.653 19.0406 238.289 18.3527C239.08 17.4895 240.885 17.3338 240.936 15.8671C240.944 15.495 240.889 15.1243 240.774 14.7703C240.498 15.1076 240.249 15.4656 240.028 15.8411C239.677 16.3603 237.899 16.6718 237.263 17.1066C236.918 17.3852 236.5 17.5579 236.059 17.604C235.618 17.65 235.173 17.5675 234.777 17.3662C234.291 17.1326 232.642 16.6069 232.564 15.9125C232.461 16.0504 232.389 16.2091 232.353 16.3775C232.318 16.546 232.319 16.7203 232.357 16.8882C232.395 17.0561 232.47 17.2137 232.575 17.3501C232.68 17.4864 232.814 17.5982 232.967 17.6777Z" fill="#C13030"/>
<path d="M245.856 12.6351C246.265 13.5631 245.648 14.9844 246.894 15.3154C248.012 15.5938 249.189 15.5097 250.256 15.0753C251.23 14.5561 250.295 13.2646 250.405 12.356C250.654 11.6264 251.062 10.9613 251.599 10.409C251.374 10.3114 251.136 10.248 250.892 10.2208C249.803 10.184 248.714 10.2755 247.647 10.4934C246.693 10.6102 245.46 9.8444 244.727 10.8828C244.629 11.0129 244.561 11.1628 244.527 11.322C244.494 11.4812 244.495 11.6458 244.532 11.8044C245.019 12.0964 245.746 12.3755 245.856 12.6351Z" fill="#41A4D6"/>
<path d="M245.317 13.4333C244.266 15.1791 245.525 15.6593 246.94 15.7956C248.465 15.9384 251.035 16.8859 251.807 15.5295C252.372 14.5301 250.944 13.3879 251.483 12.5312C251.684 12.2067 252.067 12.038 252.171 11.5253C252.23 11.3041 252.204 11.0688 252.098 10.8658C251.993 10.6628 251.815 10.5067 251.6 10.4285C251.062 10.9808 250.654 11.6459 250.405 12.3754C250.295 13.284 251.23 14.5755 250.256 15.0947C249.283 15.6139 248.082 15.3803 247.167 15.1402C245.921 14.8157 246.271 13.1932 246.518 12.1872C246.765 11.1813 245.038 12.1159 244.526 11.8433C244.556 11.9476 244.606 12.0447 244.675 12.1288C244.967 12.4793 245.668 12.8233 245.317 13.4333Z" fill="#2090BC"/>
<path d="M231.792 35.4407C232.694 36.4985 233.09 35.6289 233.817 35.4407C234.862 35.1486 236.043 35.7003 236.16 33.7273C236.166 33.5302 236.203 33.3352 236.27 33.1497C235.809 33.0332 235.403 32.7602 235.121 32.3774C234.531 31.4104 233.791 31.0795 233.136 31.2028C232.895 31.2524 232.671 31.3643 232.487 31.5273C231.876 32.04 231.494 32.637 230.604 32.7084C230.118 32.6975 229.633 32.77 229.17 32.9226C228.987 33.0185 228.847 33.1808 228.78 33.3762C228.712 33.5716 228.722 33.7854 228.807 33.974C229.41 34.1751 230.416 34.1687 230.806 34.3439C231.305 34.5451 231.461 35.0578 231.792 35.4407Z" fill="#7BB23F"/>
<path d="M231.325 36.1869L231.39 36.2973C231.559 36.6683 231.837 36.9787 232.188 37.1864C232.344 37.2539 232.512 37.2888 232.681 37.2888C232.851 37.2888 233.019 37.2539 233.174 37.1864C233.813 36.7662 234.574 36.572 235.336 36.6348C235.647 36.6701 235.963 36.6323 236.257 36.5244C237.367 36.0831 237.555 34.9928 237.484 33.8895C237.445 33.4352 236.867 33.3249 236.27 33.1107C236.203 33.2962 236.166 33.4912 236.16 33.6883C236.043 35.6353 234.862 35.1096 233.817 35.4017C233.071 35.6158 232.694 36.4855 231.792 35.4017C231.461 35.0188 231.305 34.5061 230.812 34.2789C230.423 34.1037 229.417 34.1102 228.813 33.909C228.878 34.1329 229.012 34.3306 229.196 34.4736C229.988 35.0577 230.845 35.2978 231.325 36.1869Z" fill="#6A9B2C"/>
<path d="M247.336 33.63C248.166 33.2276 248.53 33.7273 249.399 32.8707C249.704 32.5721 250.009 32.2217 250.347 31.9361C250.256 31.4364 250.016 31.0275 249.458 31.06C245.836 31.2287 246.356 29.5154 244.863 30.0411C243.5 30.5213 244.571 32.332 243.812 32.7019C243.416 32.8901 242.721 32.9421 242.28 33.1952C242.695 33.8442 243.928 34.8241 244.227 35.2914C245.071 36.5569 246.622 33.974 247.336 33.63Z" fill="#3A3A3A"/>
<path d="M241.949 34.1622C241.984 34.3103 242.061 34.4453 242.169 34.5516C242.789 34.9799 243.273 35.5767 243.565 36.2714C243.772 36.8231 244.499 37.0892 245.006 37.2319C246.258 37.5889 247.024 36.531 247.284 35.4926C247.647 34.0129 250.12 34.7852 250.353 33.0784C250.412 32.6999 250.412 32.3147 250.353 31.9362C250.016 32.2152 249.704 32.5852 249.406 32.8707C248.536 33.7274 248.173 33.2277 247.342 33.63C246.628 33.974 245.077 36.557 244.246 35.2914C243.935 34.8242 242.702 33.8572 242.299 33.1952C242.126 33.2782 241.992 33.4261 241.926 33.607C241.861 33.7879 241.869 33.9873 241.949 34.1622Z" fill="#262626"/>
<path d="M239.625 11.5968C239.595 11.8819 239.66 12.169 239.811 12.4132C239.961 12.6575 240.188 12.845 240.456 12.9467C241.047 13.1479 241.981 12.8753 241.864 12.1873C241.637 10.8115 239.775 11.0841 239.625 11.5968Z" fill="#D34040"/>
<path d="M254.436 11.5578C254.215 11.5419 253.993 11.5791 253.789 11.6663C253.586 11.7535 253.406 11.8882 253.265 12.059C253.124 12.2299 253.026 12.432 252.979 12.6485C252.932 12.865 252.937 13.0896 252.995 13.3036C253.054 13.5095 253.171 13.694 253.332 13.8355C253.493 13.9769 253.692 14.0694 253.903 14.1018C254.28 14.1473 254.468 13.8487 254.611 13.5502C254.68 13.3606 254.778 13.1832 254.903 13.0245C255.066 12.874 255.18 12.6769 255.227 12.4599C255.233 12.2374 255.155 12.0208 255.008 11.8535C254.862 11.6862 254.657 11.5806 254.436 11.5578Z" fill="#41A4D6"/>
<path d="M273.334 12.5831C273.269 12.4078 273.334 11.35 272.763 11.6615C271.614 12.278 271.4 11.2461 270.92 10.6101C270.652 11.1099 270.491 11.6594 270.445 12.2244C270.399 12.7893 270.47 13.3577 270.654 13.894C271.121 15.5295 270.881 16.1265 272.977 13.9978C273.254 13.7176 273.492 13.401 273.684 13.0568C273.525 12.9353 273.404 12.771 273.334 12.5831Z" fill="#9B3723"/>
<path d="M273.717 7.04077C273.607 7.60902 273.376 8.14701 273.04 8.61838C272.704 9.08975 272.271 9.48351 271.77 9.77303C271.433 9.98467 271.148 10.2711 270.939 10.6102C271.42 11.2592 271.634 12.2781 272.782 11.6616C273.367 11.3501 273.289 12.4079 273.354 12.5832C273.423 12.7711 273.545 12.9354 273.704 13.0569C275.229 10.409 273.717 7.04077 273.717 7.04077Z" fill="#41A4D6"/>
<path d="M270.167 18.2878L269.09 17.9114C269.09 17.9114 264.209 29.5543 262.431 34.889C260.937 39.7443 259.738 44.6857 258.842 49.6861C258.739 50.0928 258.739 50.5189 258.842 50.9256L270.167 18.2878Z" fill="#A85439"/>
<path d="M270.167 18.2878L271.251 18.6578C271.251 18.6578 267.876 30.8264 265.981 36.1157C264.149 40.8558 262.031 45.4808 259.64 49.9652C259.461 50.3426 259.194 50.6718 258.862 50.9257L270.167 18.2878Z" fill="#9B3723"/>
<path d="M269.349 20.6372L268.129 20.2154L270.667 13.9656L271.556 14.2771L269.349 20.6372Z" fill="#E0E0E0"/>
<path d="M269.349 20.6372L270.569 21.0591L272.445 14.5821L271.556 14.2771L269.349 20.6372Z" fill="#C9C9C9"/>
<path d="M264.216 7.13156C264.118 6.96931 264.028 5.91145 263.502 6.31383C262.464 7.1056 262.094 6.11913 261.51 5.57397C261.332 6.10464 261.263 6.66595 261.309 7.2238C261.355 7.78164 261.514 8.32435 261.776 8.81894C262.502 10.3635 262.366 10.9866 264.086 8.55285C264.312 8.231 264.498 7.88218 264.638 7.51446C264.464 7.42865 264.318 7.29602 264.216 7.13156Z" fill="#9B3723"/>
<path d="M263.684 1.5957C263.667 2.17592 263.526 2.74577 263.269 3.26651C263.013 3.78725 262.647 4.24666 262.198 4.61352C261.901 4.87983 261.666 5.20762 261.51 5.57403C262.094 6.11918 262.464 7.10565 263.502 6.31388C264.028 5.91151 264.151 6.96288 264.216 7.13161C264.313 7.30807 264.46 7.45238 264.638 7.54697C265.735 4.67842 263.684 1.5957 263.684 1.5957Z" fill="#FFB600"/>
<path d="M262.035 13.271L260.912 13.0698C260.912 13.0698 257.966 25.3488 257.064 30.8977C256.369 35.9294 255.979 40.9987 255.896 46.0776C255.87 46.4961 255.945 46.9148 256.116 47.2977L262.035 13.271Z" fill="#A85439"/>
<path d="M262.035 13.271L263.164 13.4657C263.164 13.4657 261.789 26.0107 260.763 31.5401C259.717 36.5125 258.371 41.417 256.733 46.2268C256.617 46.6282 256.405 46.9955 256.116 47.2977L262.035 13.271Z" fill="#9B3723"/>
<path d="M261.574 15.7178L260.302 15.4971L261.801 8.92285L262.729 9.0851L261.574 15.7178Z" fill="#E0E0E0"/>
<path d="M261.574 15.7177L262.846 15.9383L263.658 9.24721L262.73 9.08496L261.574 15.7177Z" fill="#C9C9C9"/>
</g>
<g clip-path="url(#clip1_1_3473)">
<path d="M169.896 4.38184V31.9065L184.459 40.3161L185.553 40.9485L185.667 41.0112L185.752 41.0568L185.9 41.1422C185.955 41.1752 186.012 41.2038 186.071 41.2277C186.436 41.4326 186.844 41.5478 187.262 41.5638C187.573 41.5608 187.877 41.4763 188.145 41.3189L191.125 39.6096C191.225 39.5643 191.311 39.4937 191.375 39.4047C191.439 39.3157 191.478 39.2115 191.489 39.1025V11.555L187.313 13.8796L186.988 13.9423L186.071 13.4295L185.752 13.2529L169.896 4.38184Z" fill="url(#paint0_linear_1_3473)"/>
<path d="M185.775 10.917V41.0569L185.923 41.1423C185.978 41.1753 186.035 41.2039 186.094 41.2278V10.7803L185.775 10.917Z" fill="url(#paint1_linear_1_3473)"/>
<path d="M176.089 4.09138L174.522 2.08015L174.363 1.81237L174.733 1.60156L191.131 11.0822C191.228 11.1282 191.311 11.2012 191.369 11.2925C191.427 11.3838 191.458 11.4897 191.458 11.5979C191.458 11.706 191.427 11.8119 191.369 11.9032C191.311 11.9946 191.228 12.0675 191.131 12.1135L188.151 13.8227C187.484 14.2045 186.766 14.1646 185.672 13.5151L184.47 12.8086L176.089 4.09138Z" fill="#FFD507"/>
<path d="M174.363 1.81226L190.145 10.9169V11.0992L186.219 13.3668L172.802 4.32486L174.363 2.22817V1.81226Z" fill="url(#paint2_linear_1_3473)"/>
<path d="M185.439 12.9224L186.219 13.3668L190.145 11.0992L189.364 10.6548L185.439 12.9224Z" fill="#D8D8D8"/>
<path d="M189.359 10.6492L189.342 10.6605L187.661 11.6348L186.875 12.0849L186.675 12.1989L185.974 12.6091L185.439 12.9168L185.433 12.9225L170.95 4.5642L170.591 4.35339L170.574 4.342L170.551 4.3249L170.574 4.31921L171.092 4.01724L171.993 3.49876L172.773 3.04296L174.482 2.06869V2.06299L177.001 3.51016L177.89 4.02863L189.222 10.5751L189.359 10.6492Z" fill="#E9E9E9"/>
<g style="mix-blend-mode:multiply" opacity="0.1">
<path d="M189.359 10.655L187.678 11.6293L172.773 3.04312L174.482 2.06885L176.858 3.43625L177.753 3.95473L177.89 4.02879L189.359 10.655Z" fill="#DCDBE4"/>
</g>
<g style="mix-blend-mode:multiply" opacity="0.1">
<path d="M171.092 4.01156L171.992 3.49878L171.998 3.50448L172.027 3.51587L186.874 12.0849L186.681 12.1989L185.974 12.6034L171.138 4.03435L171.098 4.01725L171.092 4.01156Z" fill="#DCDBE4"/>
</g>
<path d="M169.89 4.38765L184.464 12.8143L184.857 12.5864L170.277 4.17114L169.89 4.38765Z" fill="#FFD507"/>
<g style="mix-blend-mode:overlay" opacity="0.5">
<path d="M177.525 8.85458C174.209 6.92882 171.258 5.19678 171.258 5.19678L177.525 8.85458Z" fill="#C1C1C1"/>
</g>
<g style="mix-blend-mode:overlay" opacity="0.5">
<path d="M185.775 13.686L177.542 8.85449C180.636 10.6549 184.071 12.6149 185.775 13.4866V13.686Z" fill="#C1C1C1"/>
</g>
<g style="mix-blend-mode:overlay" opacity="0.5">
<path d="M186.094 13.6289C186.301 13.7388 186.516 13.8321 186.738 13.9081C187.106 14.0303 187.503 14.0402 187.877 13.9366C187.725 13.9855 187.578 14.0505 187.439 14.1303C187.302 14.2492 187.195 14.3992 187.128 14.5676C187.06 14.7361 187.034 14.9182 187.051 15.0989C187.051 15.7199 187.051 39.507 187.051 39.507C187.051 39.507 186.8 16.0674 186.783 15.4635C186.803 15.0774 186.751 14.6911 186.63 14.324C186.545 14.1339 186.39 13.9845 186.197 13.9081L186.1 13.8511L186.094 13.6289Z" fill="#C1C1C1"/>
</g>
<path d="M164.968 8.71777V35.2226L178.989 43.3131L180.043 43.9284L180.151 43.9854L180.231 44.031L180.374 44.1165L180.545 44.1962C180.894 44.3916 181.284 44.501 181.684 44.5153C181.983 44.5154 182.276 44.4346 182.533 44.2817L185.382 42.6351C185.478 42.5907 185.561 42.5223 185.623 42.4364C185.685 42.3506 185.723 42.2503 185.735 42.1451V15.6289L181.713 17.868L181.399 17.9307L180.522 17.435L180.208 17.2641L164.968 8.71777Z" fill="url(#paint3_linear_1_3473)"/>
<path d="M180.231 15.0192V44.031L180.374 44.1165L180.545 44.1962V14.9053L180.231 15.0192Z" fill="url(#paint4_linear_1_3473)"/>
<path d="M170.916 8.44423L169.411 6.50708L169.252 6.2222L169.611 6.01709L185.393 15.1331C185.496 15.1686 185.586 15.2355 185.649 15.3243C185.713 15.4132 185.747 15.5196 185.747 15.6288C185.747 15.738 185.713 15.8444 185.649 15.9333C185.586 16.0221 185.496 16.089 185.393 16.1245L182.544 17.7768C181.901 18.1414 181.211 18.1072 180.157 17.4805L179.018 16.8025L170.916 8.44423Z" fill="#2691C1"/>
<path d="M169.263 6.25073L184.459 15.0135V15.1901L180.681 17.3723L167.765 8.66648L169.263 6.65526V6.25073Z" fill="url(#paint5_linear_1_3473)"/>
<path d="M179.929 16.9448L180.681 17.3722L184.459 15.19L183.707 14.7627L179.929 16.9448Z" fill="#D8D8D8"/>
<path d="M183.707 14.7628L183.684 14.7685L182.071 15.7086L181.314 16.1416L181.126 16.2498L180.442 16.643L179.929 16.9392L179.923 16.9449L165.982 8.89434L165.634 8.69493L165.623 8.68354L165.6 8.67214L165.623 8.66075L166.118 8.37017L166.984 7.87449L167.736 7.43578L169.377 6.49569L169.383 6.48999L171.81 7.88588L172.665 8.38157L183.57 14.6887L183.707 14.7628Z" fill="#E9E9E9"/>
<g style="mix-blend-mode:multiply" opacity="0.1">
<path d="M183.707 14.7627L182.083 15.6971L167.737 7.4357L169.377 6.49561L171.674 7.81173L172.528 8.30742L172.665 8.38148L183.707 14.7627Z" fill="#DCDBE4"/>
</g>
<g style="mix-blend-mode:multiply" opacity="0.1">
<path d="M166.118 8.3645L166.984 7.87451H166.99L167.018 7.8916L181.314 16.1416L181.126 16.2556L180.448 16.643L166.158 8.38729L166.124 8.3702L166.118 8.3645Z" fill="#DCDBE4"/>
</g>
<path d="M164.962 8.72912L178.995 16.8367L179.371 16.6202L165.338 8.51831L164.962 8.72912Z" fill="#2691C1"/>
<path d="M181.838 21.2523C182.087 21.2308 182.328 21.1549 182.544 21.0301L183.467 20.4946L185.405 19.355C185.491 19.314 185.568 19.2544 185.629 19.1806C185.69 19.1068 185.734 19.0205 185.758 18.9277V22.107C185.746 22.2107 185.708 22.3097 185.647 22.3945C185.586 22.4793 185.505 22.547 185.41 22.5912L182.561 24.2378C182.252 24.4054 181.903 24.4865 181.551 24.4724C181.199 24.4584 180.857 24.3498 180.562 24.1581V20.9219C180.947 21.1514 181.39 21.266 181.838 21.2523Z" fill="url(#paint6_linear_1_3473)"/>
<path d="M180.545 39.4274V40.8119C180.937 41.0367 181.386 41.1435 181.838 41.1196C182.088 41.0996 182.33 41.0216 182.544 40.8917L183.467 40.3618L185.405 39.2223C185.491 39.1812 185.568 39.1217 185.629 39.0478C185.69 38.974 185.734 38.8877 185.758 38.795V37.4048C185.735 37.4987 185.691 37.5863 185.63 37.6612C185.569 37.7361 185.492 37.7965 185.405 37.8378L183.467 38.9773L182.544 39.5072C182.33 39.6371 182.088 39.7151 181.838 39.7351C181.387 39.7531 180.939 39.6467 180.545 39.4274Z" fill="url(#paint7_linear_1_3473)"/>
<g style="mix-blend-mode:overlay" opacity="0.5">
<path d="M172.312 13.0592C169.121 11.2018 166.306 9.53247 166.306 9.53247L172.312 13.0592Z" fill="#C1C1C1"/>
</g>
<g style="mix-blend-mode:overlay" opacity="0.5">
<path d="M180.237 17.68L172.312 13.0593C175.291 14.7686 178.579 16.6773 180.237 17.5148V17.68Z" fill="#C1C1C1"/>
</g>
<g style="mix-blend-mode:overlay" opacity="0.5">
<path d="M180.562 17.6514C180.762 17.7548 180.97 17.8443 181.183 17.9192C181.532 18.0227 181.904 18.0227 182.254 17.9192C182.11 17.9691 181.971 18.032 181.838 18.1072C181.708 18.2237 181.606 18.3685 181.541 18.5306C181.476 18.6926 181.449 18.8674 181.462 19.0416C181.433 19.6398 181.462 42.5381 181.462 42.5381C181.462 42.5381 181.223 19.9703 181.211 19.3948C181.229 19.0219 181.177 18.6489 181.057 18.2952C181.019 18.2057 180.962 18.1249 180.892 18.0574C180.821 17.9899 180.738 17.9371 180.647 17.9021L180.55 17.8451L180.562 17.6514Z" fill="#C1C1C1"/>
</g>
<path d="M160.563 14.6089V39.3589L173.667 46.9138L174.647 47.4836L174.75 47.5406L174.824 47.5861L174.961 47.6602C175.01 47.6912 175.061 47.7179 175.115 47.74C175.444 47.921 175.81 48.0225 176.186 48.0362C176.464 48.036 176.738 47.9613 176.978 47.8197L179.656 46.2757C179.744 46.2346 179.82 46.1717 179.876 46.0929C179.933 46.0141 179.969 45.9221 179.98 45.8256V21.0357L176.22 23.1267L175.935 23.1837L175.109 22.7222L174.818 22.5626L160.563 14.6089Z" fill="url(#paint8_linear_1_3473)"/>
<path d="M174.818 20.4659V47.5861L174.955 47.6602C175.004 47.6912 175.056 47.7179 175.109 47.7399V20.3918L174.818 20.4659Z" fill="url(#paint9_linear_1_3473)"/>
<path d="M166.118 14.3525L164.694 12.5407L164.557 12.2957L164.888 12.1077L179.627 20.6539C179.722 20.6879 179.805 20.7505 179.863 20.8331C179.921 20.9157 179.953 21.0144 179.953 21.1154C179.953 21.2165 179.921 21.3152 179.863 21.3978C179.805 21.4804 179.722 21.543 179.627 21.5769L176.949 23.121C176.351 23.4628 175.702 23.4343 174.722 22.8475L173.639 22.2151L166.118 14.3525Z" fill="#96C126"/>
<path d="M164.58 12.3015L178.767 20.4888V20.6541L175.234 22.6881L163.178 14.5577L164.58 12.6775V12.3015Z" fill="url(#paint10_linear_1_3473)"/>
<path d="M174.539 22.2892L175.234 22.688L178.767 20.654L178.066 20.2495L174.539 22.2892Z" fill="#D8D8D8"/>
<path d="M178.066 20.2494L178.043 20.2608L176.533 21.1326L175.827 21.5371L175.65 21.6453L175.018 22.01L174.539 22.2835L174.534 22.2892L161.515 14.7741L161.19 14.5861L161.179 14.5747L161.156 14.5633L161.179 14.5519L161.64 14.2841L162.449 13.8226L163.15 13.4124H163.156L164.683 12.5293H164.688L166.956 13.8283L167.754 14.2955L177.941 20.1811L178.066 20.2494Z" fill="#E9E9E9"/>
<g style="mix-blend-mode:multiply" opacity="0.1">
<path d="M178.066 20.2494L176.551 21.1269L163.156 13.4124L164.683 12.5293L166.825 13.76L167.628 14.2272L167.754 14.2955L178.066 20.2494Z" fill="#DCDBE4"/>
</g>
<g style="mix-blend-mode:multiply" opacity="0.1">
<path d="M161.64 14.2784L162.449 13.8169V13.8226L162.483 13.834L175.833 21.537L175.656 21.6453L175.018 22.0042L161.68 14.3012L161.646 14.2841L161.64 14.2784Z" fill="#DCDBE4"/>
</g>
<path d="M160.557 14.6203L173.662 22.1923L174.015 21.9872L160.911 14.4209L160.557 14.6203Z" fill="#96C126"/>
<path d="M176.323 26.3175C176.554 26.2952 176.777 26.2233 176.978 26.1067L177.838 25.6053L179.65 24.5626C179.73 24.5233 179.801 24.4673 179.858 24.3986C179.915 24.3299 179.957 24.2499 179.98 24.1638V27.1322C179.969 27.2287 179.933 27.3207 179.877 27.3995C179.82 27.4783 179.744 27.5412 179.656 27.5823L176.984 29.1264C176.693 29.2813 176.367 29.3556 176.038 29.3416C175.71 29.3276 175.391 29.2257 175.115 29.0466V26.0269C175.482 26.2357 175.901 26.3365 176.323 26.3175Z" fill="url(#paint11_linear_1_3473)"/>
<path d="M175.109 30.3398V31.6331C175.478 31.843 175.899 31.9438 176.323 31.9237C176.554 31.9042 176.778 31.8321 176.978 31.7129L177.838 31.2172L179.65 30.1745C179.731 30.1348 179.802 30.0782 179.859 30.0084C179.916 29.9385 179.958 29.8573 179.981 29.77V28.4767C179.958 28.5633 179.917 28.644 179.86 28.7129C179.803 28.7819 179.731 28.8374 179.65 28.8755L177.838 29.9239L176.978 30.4195C176.778 30.5388 176.554 30.6109 176.323 30.6303C175.899 30.6504 175.478 30.5497 175.109 30.3398Z" fill="url(#paint12_linear_1_3473)"/>
<path d="M175.109 43.2846V44.5779C175.478 44.7878 175.899 44.8886 176.323 44.8685C176.554 44.849 176.778 44.7769 176.978 44.6577L177.838 44.162L179.65 43.1137C179.731 43.0755 179.803 43.02 179.86 42.9511C179.917 42.8822 179.958 42.8015 179.981 42.7148V41.4215C179.957 41.5075 179.915 41.5876 179.858 41.6563C179.801 41.725 179.73 41.7809 179.65 41.8203L177.838 42.863L176.978 43.3644C176.777 43.481 176.554 43.5529 176.323 43.5752C175.899 43.5953 175.478 43.4945 175.109 43.2846Z" fill="url(#paint13_linear_1_3473)"/>
<g style="mix-blend-mode:overlay" opacity="0.5">
<path d="M167.423 18.6315C164.443 16.9222 161.817 15.344 161.817 15.344L167.423 18.6315Z" fill="#C1C1C1"/>
</g>
<g style="mix-blend-mode:overlay" opacity="0.5">
<path d="M174.824 22.9729L167.417 18.6313C170.198 20.2494 173.286 22.0157 174.824 22.7962V22.9729Z" fill="#C1C1C1"/>
</g>
<g style="mix-blend-mode:overlay" opacity="0.5">
<path d="M175.126 22.9502C175.31 23.0471 175.5 23.1308 175.696 23.2009C176.023 23.2978 176.371 23.2978 176.699 23.2009C176.562 23.2447 176.431 23.302 176.306 23.3718C176.183 23.4807 176.088 23.6168 176.027 23.7692C175.967 23.9216 175.943 24.086 175.958 24.2492C175.958 24.819 175.958 46.1904 175.958 46.1904C175.958 46.1904 175.736 25.1096 175.724 24.574C175.735 24.2284 175.687 23.8835 175.582 23.5541C175.545 23.4698 175.492 23.3937 175.425 23.3301C175.359 23.2665 175.28 23.2168 175.195 23.1838L175.103 23.1268L175.126 22.9502Z" fill="#C1C1C1"/>
</g>
<path d="M156.45 19.2866V42.6863L168.842 49.8367L169.77 50.378L169.867 50.4293L169.936 50.4691L170.067 50.5432C170.112 50.5723 170.159 50.5971 170.209 50.6173C170.519 50.7922 170.867 50.8899 171.223 50.9022C171.488 50.901 171.748 50.8282 171.975 50.6913L174.505 49.2328C174.59 49.195 174.662 49.1356 174.716 49.0606C174.771 48.9855 174.804 48.8975 174.813 48.8055V25.3887L171.258 27.3714L170.984 27.4227L170.203 26.984L169.93 26.8358L156.45 19.2866Z" fill="url(#paint14_linear_1_3473)"/>
<path d="M169.936 24.853V50.4919L170.067 50.566C170.112 50.5951 170.159 50.6199 170.209 50.64V24.7505L169.936 24.853Z" fill="#8B4D00"/>
<path d="M161.708 19.0416L160.375 17.3323L160.239 17.1044L160.558 16.9221L174.499 24.9898C174.589 25.0227 174.667 25.0825 174.722 25.1609C174.777 25.2394 174.806 25.3328 174.806 25.4285C174.806 25.5242 174.777 25.6177 174.722 25.6961C174.667 25.7746 174.589 25.8343 174.499 25.8672L171.975 27.303C171.406 27.6278 170.796 27.5993 169.867 27.0409L168.842 26.4712L161.708 19.0416Z" fill="#C17619"/>
<path d="M160.25 17.1045L173.673 24.8474V25.007L170.335 26.9327L158.922 19.2411L160.25 17.4577V17.1045Z" fill="url(#paint15_linear_1_3473)"/>
<path d="M169.668 26.551L170.335 26.9327L173.673 25.007L173.012 24.6252L169.668 26.551Z" fill="#D8D8D8"/>
<path d="M173.007 24.6251L172.99 24.6308L171.559 25.4626L170.893 25.8444L170.728 25.9412L170.124 26.2888L169.674 26.5509L169.668 26.5566L157.344 19.4404L157.042 19.2637L157.025 19.2523L157.008 19.2466L157.025 19.2352L157.469 18.9789L158.233 18.5402L158.894 18.1527H158.9L160.347 17.3209L160.352 17.3152L162.495 18.5515L163.252 18.9903L172.887 24.5567L173.007 24.6251Z" fill="#E9E9E9"/>
<g style="mix-blend-mode:multiply" opacity="0.1">
<path d="M173.007 24.6253L171.571 25.4514L158.9 18.1529L160.347 17.321L162.369 18.4833L163.133 18.922L163.252 18.9904L173.007 24.6253Z" fill="#DCDBE4"/>
</g>
<g style="mix-blend-mode:multiply" opacity="0.1">
<path d="M157.464 18.9731L158.233 18.5344V18.5401L158.261 18.5515L170.893 25.8443L170.728 25.9412L170.124 26.2831L157.504 18.9959L157.469 18.9788L157.464 18.9731Z" fill="#DCDBE4"/>
</g>
<path d="M156.444 19.2981L168.842 26.4599L169.178 26.2662L156.774 19.1101L156.444 19.2981Z" fill="#C17619"/>
<path d="M171.36 30.3626C171.579 30.3425 171.791 30.2744 171.981 30.1632L172.796 29.6903L174.505 28.7046C174.582 28.6679 174.649 28.6146 174.702 28.5485C174.755 28.4825 174.793 28.4054 174.813 28.3229V31.1318C174.805 31.224 174.773 31.3126 174.72 31.3885C174.667 31.4645 174.595 31.5253 174.511 31.5648L171.981 33.0005C171.707 33.1493 171.398 33.2214 171.086 33.2094C170.774 33.1974 170.471 33.1016 170.209 32.9322V30.0834C170.558 30.2845 170.958 30.3814 171.36 30.3626Z" fill="url(#paint16_linear_1_3473)"/>
<path d="M170.209 34.1685V35.3935C170.556 35.5905 170.951 35.6853 171.349 35.667C171.568 35.6496 171.781 35.5814 171.97 35.4676L172.785 35.0004L174.494 34.009C174.57 33.9729 174.637 33.9204 174.69 33.8554C174.743 33.7904 174.781 33.7144 174.801 33.633V32.4308C174.782 32.5133 174.744 32.5904 174.691 32.6564C174.638 32.7225 174.57 32.7758 174.494 32.8125L172.785 33.7982L171.97 34.2654C171.781 34.3792 171.568 34.4475 171.349 34.4648C170.948 34.4763 170.553 34.3735 170.209 34.1685Z" fill="url(#paint17_linear_1_3473)"/>
<path d="M170.209 46.4182V47.6432C170.556 47.8402 170.951 47.935 171.349 47.9166C171.568 47.8966 171.78 47.8285 171.97 47.7172L172.785 47.25L174.494 46.2587C174.57 46.222 174.638 46.1686 174.691 46.1026C174.744 46.0365 174.782 45.9595 174.801 45.8769V44.652C174.782 44.7345 174.744 44.8116 174.691 44.8776C174.638 44.9437 174.57 44.997 174.494 45.0337L172.785 46.0194L171.97 46.4923C171.78 46.6035 171.568 46.6716 171.349 46.6917C170.951 46.7101 170.556 46.6152 170.209 46.4182Z" fill="url(#paint18_linear_1_3473)"/>
<g style="mix-blend-mode:overlay" opacity="0.5">
<path d="M162.939 23.0925C160.119 21.4574 157.629 19.9817 157.629 19.9817L162.939 23.0925Z" fill="#C1C1C1"/>
</g>
<g style="mix-blend-mode:overlay" opacity="0.5">
<path d="M169.941 27.2004L162.939 23.0925C165.571 24.6252 168.488 26.2945 169.941 27.0295V27.2004Z" fill="#C1C1C1"/>
</g>
<g style="mix-blend-mode:overlay" opacity="0.5">
<path d="M170.226 27.1777C170.409 27.2732 170.599 27.3514 170.796 27.4113C171.104 27.5052 171.434 27.5052 171.742 27.4113C171.615 27.4584 171.491 27.5136 171.372 27.5766C171.256 27.6787 171.165 27.8067 171.108 27.9502C171.05 28.0937 171.028 28.2487 171.041 28.4027C171.013 28.9326 171.041 49.1645 171.041 49.1645C171.041 49.1645 170.83 29.2231 170.819 28.7161C170.833 28.3875 170.787 28.0592 170.682 27.7475C170.612 27.5863 170.481 27.4593 170.317 27.3942L170.232 27.3487L170.226 27.1777Z" fill="#C1C1C1"/>
</g>
</g>
<g clip-path="url(#clip2_1_3473)">
<path d="M56.2134 82.2712H0.796379C0.356551 82.2712 0 82.6279 0 83.0678V117.326C0 117.766 0.356551 118.123 0.796379 118.123H56.2134C56.6532 118.123 57.0097 117.766 57.0097 117.326V83.0678C57.0097 82.6279 56.6532 82.2712 56.2134 82.2712Z" fill="#E75643"/>
<path d="M53.2133 85.6292H44.0412C43.1995 85.6292 42.5171 86.3117 42.5171 87.1536V113.247C42.5171 114.089 43.1995 114.772 44.0412 114.772H53.2133C54.055 114.772 54.7374 114.089 54.7374 113.247V87.1536C54.7374 86.3117 54.055 85.6292 53.2133 85.6292Z" fill="#5E9EA7"/>
<path d="M53.7283 89.5913H43.5264V94.5354H53.7283V89.5913Z" fill="#F49A22"/>
<path d="M45.9634 90.9234V90.5114H44.0891V93.6495H45.9634V93.2237V90.9234ZM45.6201 93.2031H44.4187V90.9234H45.6201V93.2031Z" fill="#353F48"/>
<path d="M48.2083 90.9234V90.5114H46.3341V93.6495H48.2083V93.2237V90.9234ZM47.8651 93.2031H46.6705V90.9234H47.8651V93.2031Z" fill="#353F48"/>
<path d="M51.2976 90.9234V93.2031V93.6289H53.1375V90.5114H51.2908V90.944L51.2976 90.9234ZM51.634 90.9234H52.8286V93.2031H51.634V90.9234Z" fill="#353F48"/>
<path d="M49.0528 90.9234V93.2031V93.6289H50.927V90.5114H49.0184V90.944L49.0528 90.9234ZM49.3892 90.9234H50.5837V93.2031H49.3892V90.9234Z" fill="#353F48"/>
<path d="M38.4115 85.6292H3.61114C2.7694 85.6292 2.08704 86.3117 2.08704 87.1536V113.247C2.08704 114.089 2.7694 114.772 3.61114 114.772H38.4115C39.2533 114.772 39.9356 114.089 39.9356 113.247V87.1536C39.9356 86.3117 39.2533 85.6292 38.4115 85.6292Z" fill="#5E9EA7"/>
<path d="M48.627 103.799C47.8802 103.799 47.1502 104.02 46.5292 104.435C45.9083 104.85 45.4243 105.44 45.1385 106.13C44.8527 106.82 44.7779 107.58 44.9236 108.312C45.0693 109.045 45.4289 109.718 45.957 110.246C46.4851 110.774 47.1579 111.134 47.8904 111.279C48.6228 111.425 49.382 111.35 50.072 111.065C50.762 110.779 51.3517 110.295 51.7666 109.674C52.1815 109.052 52.4029 108.322 52.4029 107.575C52.4029 106.574 52.0051 105.613 51.297 104.905C50.5889 104.196 49.6284 103.799 48.627 103.799ZM45.5033 107.575C45.505 106.892 45.731 106.229 46.1465 105.686C46.562 105.144 47.1441 104.754 47.8032 104.575V110.576C47.1441 110.397 46.562 110.006 46.1465 109.464C45.731 108.922 45.505 108.258 45.5033 107.575ZM49.4508 110.576V104.575C50.1088 104.754 50.6895 105.145 51.1034 105.688C51.5174 106.23 51.7416 106.893 51.7416 107.575C51.7416 108.258 51.5174 108.921 51.1034 109.463C50.6895 110.005 50.1088 110.396 49.4508 110.576Z" fill="#353F48"/>
<path d="M52.8492 103.689C52.8506 103.794 52.8207 103.897 52.7635 103.984C52.7062 104.072 52.6241 104.141 52.5277 104.182C52.4312 104.223 52.3247 104.235 52.2217 104.215C52.1187 104.195 52.0239 104.146 51.9493 104.072C51.8747 103.998 51.8236 103.904 51.8027 103.801C51.7817 103.699 51.7918 103.592 51.8316 103.495C51.8714 103.398 51.9391 103.315 52.0262 103.256C52.1133 103.198 52.2157 103.167 52.3206 103.167C52.4596 103.167 52.593 103.222 52.692 103.319C52.7909 103.417 52.8474 103.55 52.8492 103.689Z" fill="#E75643"/>
<path d="M51.6343 102.762C50.7404 102.177 49.6954 101.865 48.6273 101.865C47.5591 101.865 46.5141 102.177 45.6202 102.762C45.7794 102.881 45.9047 103.039 45.9841 103.222C46.773 102.72 47.6887 102.453 48.6238 102.453C49.559 102.453 50.4747 102.72 51.2635 103.222C51.3454 103.039 51.4731 102.881 51.6343 102.762Z" fill="#353F48"/>
<path d="M45.4552 103.689C45.4565 103.794 45.4267 103.897 45.3694 103.984C45.3122 104.072 45.2301 104.141 45.1336 104.182C45.0372 104.223 44.9307 104.235 44.8277 104.215C44.7247 104.195 44.6299 104.146 44.5552 104.072C44.4806 103.998 44.4296 103.904 44.4086 103.801C44.3877 103.699 44.3977 103.592 44.4375 103.495C44.4773 103.398 44.5451 103.315 44.6321 103.257C44.7192 103.198 44.8217 103.167 44.9265 103.167C44.9956 103.166 45.0642 103.179 45.1283 103.205C45.1924 103.23 45.2508 103.269 45.2999 103.317C45.3491 103.366 45.3882 103.424 45.4148 103.487C45.4415 103.551 45.4552 103.62 45.4552 103.689Z" fill="#34476C"/>
<path d="M37.5807 89.7491H4.44861V110.81H37.5807V89.7491Z" fill="#34476C"/>
<path d="M36.8943 90.4427H5.13525V110.116H36.8943V90.4427Z" fill="#34476C"/>
<path d="M19.4357 110.768H12.6184L24.5366 89.7491H31.3539L19.4357 110.768Z" fill="#353F48"/>
<path d="M19.0374 110.082L30.173 90.4359H24.9348L13.7992 110.082H19.0374Z" fill="#353F48"/>
<path d="M23.4039 110.768H21.0765L32.9948 89.7491H35.3221L23.4039 110.768Z" fill="#353F48"/>
<path d="M23.0057 110.082L34.1481 90.4359H33.3929L22.2505 110.082H23.0057Z" fill="#353F48"/>
</g>
<path d="M103.659 123.205C103.272 123.208 102.886 123.166 102.51 123.079C101.753 122.932 101.06 122.569 100.527 122.037C99.9931 121.505 99.6433 120.831 99.5247 120.104L100.439 119.941C100.523 120.501 100.787 121.023 101.196 121.435C101.605 121.846 102.137 122.127 102.721 122.238C103.512 122.406 104.336 122.371 105.109 122.137C105.882 121.903 106.576 121.479 107.121 120.907C107.385 120.583 107.538 120.189 107.558 119.779C107.577 119.369 107.463 118.963 107.23 118.617C106.943 118.167 106.622 117.737 106.269 117.331C105.425 116.297 104.557 115.226 104.776 114.096C104.873 113.719 105.055 113.366 105.31 113.063C105.566 112.76 105.887 112.514 106.253 112.341C107.437 111.705 108.686 111.184 109.981 110.787C111.291 110.407 112.546 109.873 113.716 109.196C114.974 108.4 115.615 107.605 115.685 106.772C115.811 105.285 114.037 103.723 112.481 102.355C110.739 100.823 109.09 99.3807 110.137 98.0126C110.98 97.1493 112.065 96.5328 113.263 96.2354C114.389 95.942 115.419 95.3817 116.256 94.607C116.733 94.0716 117.225 93.2982 116.897 92.6736C116.569 92.049 115.334 91.6401 113.935 91.7293L113.88 90.8444C115.725 90.7329 117.202 91.2831 117.733 92.2795C118.038 92.8595 118.155 93.8336 116.951 95.1795C116.017 96.0783 114.85 96.7271 113.568 97.0608C112.539 97.3141 111.602 97.8281 110.856 98.5479C110.325 99.2172 111.38 100.236 113.06 101.701C114.74 103.166 116.717 104.913 116.561 106.839C116.467 107.962 115.685 108.973 114.216 109.932C112.99 110.645 111.678 111.214 110.309 111.628C109.073 112.004 107.881 112.503 106.753 113.115C106.504 113.226 106.281 113.387 106.101 113.585C105.921 113.784 105.786 114.016 105.706 114.267C105.565 115.011 106.308 115.925 107.019 116.803C107.401 117.247 107.748 117.716 108.058 118.208C108.382 118.702 108.538 119.279 108.506 119.86C108.474 120.441 108.255 120.999 107.879 121.458C107.353 122.026 106.702 122.476 105.973 122.778C105.244 123.08 104.454 123.226 103.659 123.205Z" fill="#22323D"/>
<path d="M112.576 101.366L111.708 101.069C112.365 99.351 114.193 98.8379 115.811 98.3397C116.6 98.146 117.359 97.8561 118.069 97.4772C118.968 96.9304 119.713 96.1835 120.24 95.3012C120.767 94.4189 121.06 93.4277 121.094 92.4134C121.094 90.8742 119.077 87.0224 116.71 85.5279C116.371 85.2591 115.964 85.0792 115.529 85.0062C115.095 84.9332 114.648 84.9694 114.232 85.1115L113.857 84.301C114.413 84.0961 115.015 84.033 115.605 84.1178C116.194 84.2025 116.75 84.4323 117.217 84.7843C119.914 86.4871 122.055 90.6288 122.024 92.4208C121.988 93.5788 121.658 94.7113 121.062 95.7214C120.466 96.7315 119.621 97.5891 118.601 98.2207C117.818 98.6454 116.98 98.9704 116.108 99.1874C114.537 99.641 113.076 100.065 112.576 101.366Z" fill="#22323D"/>
<path d="M100.978 79.7874H87.4824C83.9649 79.7874 81.1134 82.5006 81.1134 85.8475V106.638C81.1134 109.985 83.9649 112.698 87.4824 112.698H100.978C104.496 112.698 107.347 109.985 107.347 106.638V85.8475C107.347 82.5006 104.496 79.7874 100.978 79.7874Z" fill="#22323D"/>
<path d="M105.37 85.8401V100.124H83.0906V85.8401C83.0906 84.7337 83.5525 83.6727 84.3746 82.8904C85.1968 82.1081 86.3119 81.6686 87.4746 81.6686H100.986C102.148 81.6705 103.262 82.1107 104.084 82.8926C104.906 83.6744 105.368 84.7343 105.37 85.8401Z" fill="#FCBD1B"/>
<path d="M97.5087 106.749C97.5102 106.131 97.319 105.527 96.9593 105.012C96.5996 104.498 96.0876 104.096 95.488 103.859C94.8884 103.621 94.2282 103.558 93.591 103.678C92.9538 103.798 92.3682 104.095 91.9084 104.531C91.4486 104.968 91.1353 105.524 91.008 106.13C90.8807 106.736 90.9453 107.364 91.1934 107.935C91.4416 108.507 91.8623 108.995 92.4022 109.338C92.9421 109.682 93.577 109.865 94.2265 109.865C95.0956 109.865 95.9293 109.537 96.5446 108.953C97.1599 108.369 97.5066 107.576 97.5087 106.749Z" fill="#07AA9F"/>
<path d="M96.4302 106.75C96.4302 106.335 96.301 105.929 96.0588 105.585C95.8167 105.24 95.4725 104.971 95.0698 104.812C94.6671 104.654 94.224 104.612 93.7965 104.693C93.369 104.774 92.9764 104.974 92.6682 105.267C92.36 105.56 92.1501 105.934 92.0651 106.341C91.98 106.747 92.0237 107.169 92.1904 107.552C92.3572 107.935 92.6397 108.263 93.0021 108.493C93.3645 108.724 93.7906 108.847 94.2264 108.847C94.8109 108.847 95.3715 108.626 95.7847 108.232C96.198 107.839 96.4302 107.306 96.4302 106.75Z" fill="#22323D"/>
<path d="M89.9597 108.802L86.2321 106.749L89.9597 104.697V108.802Z" fill="#07AA9F"/>
<path d="M98.5013 108.802L102.237 106.749L98.5013 104.697V108.802Z" fill="#07AA9F"/>
<path d="M101.127 112.698H98.8452V117.888H101.127V112.698Z" fill="#22323D"/>
<path d="M100.572 116.684H99.4073V120.372H100.572V116.684Z" fill="#22323D"/>
<path d="M113.74 83.1632H113.717C113.272 83.1632 112.912 83.5062 112.912 83.9293V85.2681C112.912 85.6912 113.272 86.0342 113.717 86.0342H113.74C114.185 86.0342 114.545 85.6912 114.545 85.2681V83.9293C114.545 83.5062 114.185 83.1632 113.74 83.1632Z" fill="#07AA9F"/>
<path d="M111.692 81.6686H111.653C110.742 81.6686 110.004 82.371 110.004 83.2375V85.9591C110.004 86.8256 110.742 87.528 111.653 87.528H111.692C112.603 87.528 113.341 86.8256 113.341 85.9591V83.2375C113.341 82.371 112.603 81.6686 111.692 81.6686Z" fill="#22323D"/>
<path d="M113.74 89.952H113.717C113.272 89.952 112.912 90.295 112.912 90.7181V92.0568C112.912 92.4799 113.272 92.8228 113.717 92.8228H113.74C114.185 92.8228 114.545 92.4799 114.545 92.0568V90.7181C114.545 90.295 114.185 89.952 113.74 89.952Z" fill="#07AA9F"/>
<path d="M111.692 88.4574H111.653C110.742 88.4574 110.004 89.1598 110.004 90.0264V92.7479C110.004 93.6144 110.742 94.3168 111.653 94.3168H111.692C112.603 94.3168 113.341 93.6144 113.341 92.7479V90.0264C113.341 89.1598 112.603 88.4574 111.692 88.4574Z" fill="#22323D"/>
<path d="M113.279 101.217C113.279 101.007 113.213 100.802 113.09 100.627C112.968 100.452 112.793 100.315 112.589 100.235C112.385 100.154 112.16 100.133 111.943 100.174C111.726 100.215 111.527 100.317 111.371 100.465C111.215 100.614 111.108 100.804 111.065 101.01C111.022 101.216 111.044 101.43 111.129 101.624C111.213 101.819 111.357 101.985 111.54 102.102C111.724 102.219 111.94 102.281 112.161 102.281C112.458 102.281 112.742 102.169 112.951 101.97C113.161 101.77 113.279 101.5 113.279 101.217Z" fill="#22323D"/>
<path d="M93.953 94.5697C94.3593 95.5512 93.5466 96.8004 92.14 97.306C90.7333 97.8117 89.2641 97.4845 88.8578 96.5104C88.4514 95.5363 89.2563 94.2797 90.663 93.7741C92.0696 93.2684 93.5388 93.6254 93.953 94.5697Z" fill="#E84341"/>
<path d="M93.6014 95.4322C93.4755 95.4323 93.3546 95.3858 93.2642 95.3025C93.1738 95.2192 93.1209 95.1058 93.1169 94.9861L93.0074 84.9032C93.0074 84.7814 93.0571 84.6645 93.1461 84.5771C93.2351 84.4896 93.3563 84.4386 93.4842 84.4347C93.6113 84.4347 93.7334 84.4822 93.824 84.5671C93.9147 84.6519 93.9666 84.7673 93.9687 84.8883L94.0781 94.9415C94.0791 95.0017 94.0675 95.0615 94.0441 95.1173C94.0206 95.1732 93.9856 95.2241 93.9412 95.267C93.8969 95.3099 93.844 95.344 93.7856 95.3673C93.7273 95.3905 93.6646 95.4025 93.6014 95.4025V95.4322Z" fill="#E84341"/>
<path d="M93.8124 84.7395L94.0781 84.97L94.3907 85.1931C94.5079 85.2749 94.6486 85.3567 94.8049 85.4533C95.1096 85.6318 95.4847 85.8251 95.8911 86.0705C96.1083 86.1914 96.3172 86.3256 96.5163 86.472C96.7387 86.6296 96.9454 86.8063 97.1336 87C97.3293 87.2086 97.4949 87.4412 97.626 87.6915L97.6729 87.7882V87.8254V87.87L97.7276 88.0336C97.7704 88.1622 97.8018 88.294 97.8213 88.4277C97.8213 88.502 97.8213 88.5689 97.8213 88.6359C97.8295 88.6976 97.8295 88.76 97.8213 88.8218C97.8335 88.9404 97.8335 89.06 97.8213 89.1787C97.8095 89.2916 97.7886 89.4034 97.7588 89.5133C97.7588 89.6099 97.6963 89.7066 97.6729 89.8033C97.5601 90.096 97.4078 90.3735 97.2196 90.6286L96.993 90.8963C96.9853 90.7824 96.9853 90.6682 96.993 90.5543C96.993 90.4502 96.993 90.3163 96.993 90.1751C96.993 90.0338 96.993 89.8702 96.993 89.6992C96.993 89.5282 96.993 89.3571 96.9539 89.1712C96.9432 89.0783 96.925 88.9863 96.8992 88.8961V88.7623L96.8523 88.6359C96.8295 88.5456 96.7954 88.4582 96.7507 88.3756L96.6804 88.212V88.1748C96.6804 88.1748 96.6804 88.212 96.6804 88.1748L96.6413 88.1154L96.5632 87.9964L96.4694 87.8774C96.4064 87.7945 96.3386 87.7151 96.2662 87.6395C95.9488 87.3236 95.6121 87.0256 95.2581 86.7472C95.0862 86.6059 94.9143 86.4497 94.7502 86.301C94.5985 86.1598 94.455 86.0109 94.3203 85.8549C94.2039 85.7169 94.0993 85.5702 94.0078 85.4162C93.9345 85.2985 93.8743 85.1739 93.828 85.0444C93.7959 84.9651 93.7723 84.8828 93.7577 84.799L93.8124 84.7395Z" fill="#E84341"/>
<path d="M158.843 122.142H155.746C155.139 122.114 154.569 121.858 154.159 121.429C153.749 121 153.534 120.433 153.559 119.852V109.654H161.029V119.852C161.055 120.433 160.839 121 160.43 121.429C160.02 121.858 159.449 122.114 158.843 122.142Z" fill="#A97C50"/>
<path d="M190.293 122.142H187.196C186.589 122.116 186.017 121.86 185.606 121.431C185.195 121.001 184.979 120.433 185.004 119.852V109.654H192.48V119.852C192.505 120.433 192.29 121 191.88 121.429C191.47 121.858 190.9 122.114 190.293 122.142Z" fill="#A97C50"/>
<path d="M173.15 111.854H199.894C199.933 111.613 199.951 111.369 199.95 111.126V104.749C199.95 102.623 198.984 100.731 197.475 99.8278L192.935 97.8668H173.15V111.854Z" fill="#FBB040"/>
<path d="M173.15 111.854V115.107H196.775C198.329 115.107 199.622 113.704 199.894 111.854H173.15Z" fill="#A4C2D1"/>
<path d="M173.15 111.854H146.139C146.417 113.704 147.704 115.107 149.258 115.107H173.122V111.854H173.15Z" fill="#A4C2D1"/>
<path d="M173.15 108.936V97.8562H153.726L153.62 97.8934L148.586 99.8171C147.071 100.721 146.106 102.634 146.106 104.738V111.115C146.107 111.359 146.126 111.602 146.161 111.843H173.172L173.15 108.936Z" fill="#FBB040"/>
<path d="M165.852 93.5996H149.103C148.936 93.5855 148.77 93.6326 148.638 93.7312C148.506 93.8299 148.418 93.9728 148.392 94.131V95.6721C148.392 96.6606 149.413 97.463 150.673 97.463H165.852V93.5996Z" fill="#FEEBCC"/>
<path d="M196.936 93.5995H180.132V97.5054H195.36C196.62 97.5054 197.641 96.703 197.641 95.7145V94.1575C197.623 93.9948 197.539 93.8454 197.407 93.7412C197.276 93.6369 197.107 93.5861 196.936 93.5995Z" fill="#F2D49B"/>
<path d="M179.416 85.1022L178.977 80.5852H173.15V85.1022H179.416Z" fill="#FFDEAE"/>
<path d="M173.15 80.5852H167.223L166.646 85.1022H173.15V80.5852Z" fill="#FFDEAE"/>
<path d="M173.15 88.3544V97.8562H189.161C187.968 93.7908 186.636 89.9805 185.72 88.3544H173.15Z" fill="#C7DDE5"/>
<path d="M161.301 88.3544C160.297 89.9486 158.704 93.743 157.222 97.8562H173.15V88.3544H161.301Z" fill="#C7DDE5"/>
<path d="M166.646 85.1022H160.064C158.399 85.1022 155.385 92.8608 153.62 97.8933L153.726 97.8561H157.222C158.704 93.743 160.297 89.9221 161.301 88.3544H173.15V85.1022H166.646Z" fill="#FBB040"/>
<path d="M187.036 85.1022H173.161V88.3544H185.731C186.647 89.9805 187.979 93.7908 189.172 97.8561H192.691C191.242 92.8183 188.756 85.1022 187.036 85.1022Z" fill="#FBB040"/>
<path d="M155.574 104.116H151.778C151.242 104.136 150.737 104.357 150.372 104.733C150.007 105.108 149.812 105.607 149.83 106.12V107.974C149.812 108.487 150.007 108.986 150.372 109.361C150.737 109.737 151.242 109.958 151.778 109.978H155.574C156.108 109.957 156.612 109.735 156.976 109.359C157.34 108.984 157.534 108.486 157.516 107.974V106.12C157.534 105.608 157.34 105.11 156.976 104.735C156.612 104.359 156.108 104.137 155.574 104.116ZM156.839 107.974C156.857 108.314 156.735 108.646 156.497 108.899C156.26 109.152 155.928 109.305 155.574 109.324H151.778C151.423 109.305 151.091 109.152 150.854 108.899C150.617 108.646 150.494 108.314 150.513 107.974V106.12C150.494 105.78 150.617 105.448 150.854 105.195C151.091 104.942 151.423 104.789 151.778 104.77H155.574C155.928 104.789 156.26 104.942 156.497 105.195C156.735 105.448 156.857 105.78 156.839 106.12V107.974Z" fill="#A4C2D1"/>
<path d="M194.262 104.116H190.466C189.93 104.136 189.425 104.357 189.06 104.733C188.694 105.108 188.5 105.607 188.518 106.12V107.974C188.5 108.487 188.694 108.986 189.06 109.361C189.425 109.737 189.93 109.958 190.466 109.978H194.262C194.796 109.957 195.3 109.735 195.664 109.359C196.028 108.984 196.222 108.486 196.204 107.974V106.12C196.222 105.608 196.028 105.11 195.664 104.735C195.3 104.359 194.796 104.137 194.262 104.116ZM195.527 107.974C195.544 108.314 195.42 108.645 195.183 108.898C194.947 109.15 194.616 109.304 194.262 109.324H190.466C190.111 109.305 189.779 109.152 189.542 108.899C189.305 108.646 189.182 108.314 189.2 107.974V106.12C189.182 105.78 189.305 105.448 189.542 105.195C189.779 104.942 190.111 104.789 190.466 104.77H194.262C194.616 104.791 194.947 104.944 195.183 105.196C195.42 105.449 195.544 105.781 195.527 106.12V107.974Z" fill="#A4C2D1"/>
<path d="M194.262 104.77H190.465C190.111 104.789 189.779 104.942 189.542 105.195C189.305 105.448 189.182 105.78 189.2 106.12V107.974C189.192 108.245 189.27 108.512 189.423 108.74C189.577 108.968 189.799 109.146 190.06 109.25L194.661 104.844C194.534 104.796 194.398 104.771 194.262 104.77Z" fill="#95E5DD"/>
<path d="M194.65 104.844L190.049 109.25C190.178 109.299 190.315 109.324 190.454 109.324H194.25C194.604 109.304 194.935 109.15 195.172 108.898C195.409 108.645 195.532 108.313 195.516 107.974V106.12C195.523 105.848 195.444 105.581 195.289 105.353C195.135 105.126 194.912 104.948 194.65 104.844Z" fill="#C4FDF7"/>
<path d="M155.574 104.77H151.778C151.423 104.789 151.091 104.942 150.854 105.195C150.617 105.448 150.494 105.78 150.513 106.12V107.974C150.504 108.245 150.582 108.512 150.736 108.74C150.889 108.968 151.111 109.146 151.373 109.25L155.973 104.844C155.846 104.796 155.711 104.771 155.574 104.77Z" fill="#95E5DD"/>
<path d="M155.973 104.844L151.361 109.25C151.49 109.299 151.628 109.324 151.767 109.324H155.563C155.917 109.305 156.249 109.152 156.486 108.899C156.723 108.646 156.846 108.314 156.828 107.974V106.12C156.836 105.849 156.759 105.583 156.606 105.356C156.454 105.128 156.233 104.95 155.973 104.844Z" fill="#C4FDF7"/>
<path d="M169.393 82.8438H167.034V85.1028H169.393V82.8438Z" fill="#FFDEAE"/>
<path d="M171.796 80.5852H169.437V82.8442H171.796V80.5852Z" fill="#FFDEAE"/>
<path d="M174.199 82.8438H171.84V85.1028H174.199V82.8438Z" fill="#FFDEAE"/>
<path d="M176.596 80.5852H174.238V82.8442H176.596V80.5852Z" fill="#FFDEAE"/>
<path d="M178.999 82.8438H176.641V85.1028H178.999V82.8438Z" fill="#FFDEAE"/>
<path d="M185.476 104.844H173.15V109.128H185.476V104.844Z" fill="#FBB040"/>
<path d="M173.15 104.844H161.029V109.128H173.15V104.844Z" fill="#FBB040"/>
<path d="M173.15 104.844H161.029V105.467H173.15V104.844Z" fill="#A4C2D1"/>
<path d="M173.15 106.067H161.029V106.69H173.15V106.067Z" fill="#A4C2D1"/>
<path d="M173.15 107.284H161.029V107.907H173.15V107.284Z" fill="#A4C2D1"/>
<path d="M173.15 108.506H161.029V109.129H173.15V108.506Z" fill="#A4C2D1"/>
<path d="M185.47 104.844H173.15V105.467H185.47V104.844Z" fill="#A4C2D1"/>
<path d="M185.47 106.067H173.15V106.69H185.47V106.067Z" fill="#A4C2D1"/>
<path d="M185.47 107.284H173.15V107.907H185.47V107.284Z" fill="#A4C2D1"/>
<path d="M185.47 108.506H173.15V109.129H185.47V108.506Z" fill="#A4C2D1"/>
<path d="M191.07 106.067C191.07 106.163 191.041 106.256 190.985 106.336C190.93 106.415 190.851 106.477 190.759 106.514C190.666 106.551 190.565 106.56 190.467 106.542C190.369 106.523 190.279 106.477 190.208 106.409C190.138 106.341 190.089 106.255 190.07 106.161C190.051 106.067 190.061 105.97 190.099 105.882C190.137 105.793 190.202 105.718 190.285 105.665C190.368 105.611 190.465 105.583 190.565 105.583C190.699 105.583 190.828 105.634 190.922 105.725C191.017 105.816 191.07 105.939 191.07 106.067Z" fill="#FAFCFC"/>
<path d="M151.877 106.551C152.156 106.551 152.382 106.334 152.382 106.067C152.382 105.8 152.156 105.583 151.877 105.583C151.599 105.583 151.372 105.8 151.372 106.067C151.372 106.334 151.599 106.551 151.877 106.551Z" fill="#FAFCFC"/>
<path d="M159.353 115.122H155.23V122.036H159.353V115.122Z" fill="#754C29"/>
<path d="M190.665 115.122H186.542V122.036H190.665V115.122Z" fill="#754C29"/>
<path d="M271.793 79.7874H221.119C219.622 79.7874 218.409 80.9562 218.409 82.3981V114.641C218.409 116.083 219.622 117.252 221.119 117.252H271.793C273.29 117.252 274.503 116.083 274.503 114.641V82.3981C274.503 80.9562 273.29 79.7874 271.793 79.7874Z" fill="#CAC9CA"/>
<path fill-rule="evenodd" clip-rule="evenodd" d="M274.096 110.706V114.641C274.094 115.332 273.808 115.995 273.3 116.484C272.793 116.973 272.105 117.248 271.387 117.251H220.712C219.995 117.248 219.307 116.973 218.799 116.484C218.292 115.995 218.006 115.332 218.003 114.641V110.706H274.096Z" fill="white"/>
<path d="M274.503 110.706H218.409V113.152H274.503V110.706Z" fill="#CAC9CA"/>
<path fill-rule="evenodd" clip-rule="evenodd" d="M234.868 121.389H246.548H258.229L259.047 123.565H246.548H234.049L234.868 121.389Z" fill="#DBDBDB"/>
<path fill-rule="evenodd" clip-rule="evenodd" d="M275.057 110.706V114.641C275.055 115.451 274.72 116.226 274.125 116.799C273.531 117.371 272.725 117.694 271.885 117.696H221.211C220.37 117.694 219.565 117.371 218.97 116.798C218.376 116.226 218.041 115.449 218.039 114.64V110.26H275.057V110.706Z" fill="#DBDBDB"/>
<path d="M271.612 82.3986H221.3V108.094H271.612V82.3986Z" fill="#5FB0D2"/>
<path fill-rule="evenodd" clip-rule="evenodd" d="M221.3 81.9528H272.074V108.54H220.838V81.9528H221.3ZM271.15 82.8445H221.763V107.648H271.149L271.15 82.8445Z" fill="#5FB0D2"/>
<path fill-rule="evenodd" clip-rule="evenodd" d="M246.456 115.589C246.772 115.589 247.08 115.499 247.343 115.33C247.605 115.161 247.81 114.921 247.931 114.64C248.051 114.359 248.083 114.05 248.021 113.751C247.96 113.453 247.808 113.179 247.585 112.964C247.361 112.749 247.077 112.602 246.767 112.543C246.458 112.484 246.137 112.514 245.845 112.63C245.553 112.747 245.304 112.944 245.129 113.197C244.953 113.45 244.86 113.747 244.86 114.051C244.861 114.459 245.029 114.85 245.328 115.138C245.627 115.426 246.033 115.589 246.456 115.589Z" fill="#17411D"/>
<path d="M253.209 117.284H239.888V121.389H253.209V117.284Z" fill="#DBDBDB"/>
<path fill-rule="evenodd" clip-rule="evenodd" d="M253.208 121.824H239.437V116.849H253.66V121.824H253.208Z" fill="#DBDBDB"/>
<path fill-rule="evenodd" clip-rule="evenodd" d="M234.868 121.389H246.548H258.229L259.047 123.565H246.548H234.049L234.868 121.389Z" fill="#DBDBDB"/>
<path fill-rule="evenodd" clip-rule="evenodd" d="M234.868 120.954H258.544L259.69 124H233.406L234.552 120.954H234.868Z" fill="#DBDBDB"/>
<path fill-rule="evenodd" clip-rule="evenodd" d="M246.456 99.8131C249.813 99.8131 252.552 97.1754 252.552 93.9409C252.552 90.7063 249.814 88.0686 246.456 88.0686C243.098 88.0686 240.36 90.7063 240.36 93.9409C240.36 97.1754 243.099 99.8131 246.456 99.8131Z" fill="#EC4544"/>
<path fill-rule="evenodd" clip-rule="evenodd" d="M246.456 87.6349C247.316 87.6338 248.167 87.7965 248.962 88.1135C249.756 88.4305 250.478 88.8957 251.085 89.4823C251.694 90.0672 252.176 90.7622 252.505 91.5275C252.834 92.2927 253.003 93.113 253.002 93.9413C253.003 94.7697 252.835 95.5901 252.505 96.3554C252.176 97.1207 251.694 97.8158 251.085 98.4008C250.478 98.9873 249.756 99.4525 248.962 99.7695C248.167 100.087 247.316 100.249 246.456 100.248C245.596 100.249 244.744 100.087 243.95 99.7696C243.155 99.4526 242.434 98.9876 241.827 98.4012C241.218 97.8161 240.735 97.1209 240.406 96.3555C240.077 95.5901 239.908 94.7697 239.909 93.9413C239.908 93.113 240.077 92.2927 240.406 91.5275C240.735 90.7623 241.218 90.0672 241.827 89.4823C242.434 88.8958 243.155 88.4306 243.95 88.1136C244.744 87.7965 245.596 87.6339 246.456 87.6349ZM250.449 90.0973C249.925 89.5917 249.303 89.1908 248.618 88.9175C247.933 88.6442 247.199 88.504 246.458 88.5049C245.717 88.504 244.982 88.6442 244.298 88.9175C243.613 89.1908 242.991 89.5917 242.467 90.0973C241.943 90.6016 241.526 91.2008 241.243 91.8605C240.959 92.5201 240.814 93.2273 240.815 93.9413C240.814 94.6554 240.959 95.3627 241.243 96.0225C241.526 96.6824 241.943 97.2817 242.467 97.7861C242.991 98.2916 243.613 98.6924 244.298 98.9656C244.983 99.2389 245.717 99.3791 246.458 99.3782C247.199 99.3791 247.933 99.2389 248.618 98.9656C249.303 98.6923 249.925 98.2913 250.449 97.7857C250.974 97.2815 251.39 96.6822 251.673 96.0225C251.957 95.3627 252.103 94.6554 252.102 93.9413C252.103 93.2272 251.957 92.5201 251.673 91.8604C251.39 91.2007 250.973 90.6015 250.449 90.0973Z" fill="#EC4544"/>
<path fill-rule="evenodd" clip-rule="evenodd" d="M245.385 91.7965L248.269 93.1858C248.675 93.3802 248.675 94.0623 248.269 94.2567L245.385 95.6456C245.154 95.757 244.798 95.6234 244.798 95.3437V92.0988C244.798 91.8191 245.154 91.6843 245.385 91.7965Z" fill="white"/>
<path fill-rule="evenodd" clip-rule="evenodd" d="M232.331 104.459H260.582C260.699 104.459 260.812 104.504 260.895 104.585C260.979 104.665 261.026 104.774 261.026 104.887C261.026 105.001 260.979 105.109 260.896 105.19C260.812 105.27 260.699 105.315 260.582 105.316H232.331C232.213 105.315 232.1 105.27 232.017 105.19C231.933 105.109 231.886 105.001 231.886 104.887C231.886 104.774 231.933 104.665 232.017 104.585C232.1 104.504 232.213 104.459 232.331 104.459Z" fill="#17411D"/>
<path fill-rule="evenodd" clip-rule="evenodd" d="M244.513 105.879C244.717 105.879 244.916 105.821 245.085 105.712C245.254 105.603 245.386 105.448 245.464 105.267C245.542 105.085 245.563 104.886 245.523 104.693C245.483 104.501 245.385 104.324 245.241 104.185C245.097 104.047 244.914 103.952 244.714 103.914C244.514 103.875 244.307 103.895 244.119 103.97C243.931 104.045 243.77 104.173 243.656 104.336C243.543 104.499 243.483 104.691 243.483 104.887C243.484 105.15 243.592 105.402 243.785 105.588C243.978 105.774 244.24 105.879 244.513 105.879Z" fill="#17411D"/>
<defs>
<linearGradient id="paint0_linear_1_3473" x1="191.489" y1="22.9728" x2="169.896" y2="22.9728" gradientUnits="userSpaceOnUse">
<stop stop-color="#F0BF00"/>
<stop offset="0.16" stop-color="#E6AC00"/>
<stop offset="0.24" stop-color="#F6CA00"/>
<stop offset="1" stop-color="#F6C700"/>
</linearGradient>
<linearGradient id="paint1_linear_1_3473" x1="186.071" y1="26.0154" x2="185.752" y2="26.0154" gradientUnits="userSpaceOnUse">
<stop stop-color="#E3A74F"/>
<stop offset="0.99" stop-color="#FDB543"/>
</linearGradient>
<linearGradient id="paint2_linear_1_3473" x1="190.139" y1="7.58954" x2="172.802" y2="7.58954" gradientUnits="userSpaceOnUse">
<stop stop-color="#AE9025"/>
<stop offset="0.99" stop-color="#C9A41A"/>
</linearGradient>
<linearGradient id="paint3_linear_1_3473" x1="185.758" y1="26.6194" x2="164.968" y2="26.6194" gradientUnits="userSpaceOnUse">
<stop stop-color="#1A86AC"/>
<stop offset="0.16" stop-color="#1B809E"/>
<stop offset="0.24" stop-color="#198BB5"/>
<stop offset="1" stop-color="#1992B5"/>
</linearGradient>
<linearGradient id="paint4_linear_1_3473" x1="180.539" y1="29.5536" x2="180.231" y2="29.5536" gradientUnits="userSpaceOnUse">
<stop stop-color="#275D66"/>
<stop offset="0.99" stop-color="#277281"/>
</linearGradient>
<linearGradient id="paint5_linear_1_3473" x1="-2533.45" y1="-4619.39" x2="-3022.58" y2="-4619.39" gradientUnits="userSpaceOnUse">
<stop stop-color="#275D66"/>
<stop offset="0.99" stop-color="#277281"/>
</linearGradient>
<linearGradient id="paint6_linear_1_3473" x1="185.758" y1="21.7252" x2="180.539" y2="21.7252" gradientUnits="userSpaceOnUse">
<stop stop-color="#D8981E"/>
<stop offset="0.16" stop-color="#DDA11C"/>
<stop offset="1" stop-color="#F4A718"/>
</linearGradient>
<linearGradient id="paint7_linear_1_3473" x1="1043.7" y1="803.403" x2="1091.45" y2="803.403" gradientUnits="userSpaceOnUse">
<stop stop-color="#D8981E"/>
<stop offset="0.16" stop-color="#DDA11C"/>
<stop offset="1" stop-color="#F4A718"/>
</linearGradient>
<linearGradient id="paint8_linear_1_3473" x1="179.98" y1="31.3254" x2="160.563" y2="31.3254" gradientUnits="userSpaceOnUse">
<stop stop-color="#8AAC1A"/>
<stop offset="0.16" stop-color="#839E1B"/>
<stop offset="0.24" stop-color="#8FB519"/>
<stop offset="1" stop-color="#95B519"/>
</linearGradient>
<linearGradient id="paint9_linear_1_3473" x1="175.109" y1="34.0659" x2="174.818" y2="34.0659" gradientUnits="userSpaceOnUse">
<stop stop-color="#5D6627"/>
<stop offset="0.99" stop-color="#738127"/>
</linearGradient>
<linearGradient id="paint10_linear_1_3473" x1="-2498.9" y1="-4199.52" x2="-2925.55" y2="-4199.52" gradientUnits="userSpaceOnUse">
<stop stop-color="#5D6627"/>
<stop offset="0.99" stop-color="#738127"/>
</linearGradient>
<linearGradient id="paint11_linear_1_3473" x1="1030.07" y1="977.339" x2="1071.67" y2="977.339" gradientUnits="userSpaceOnUse">
<stop stop-color="#D8981E"/>
<stop offset="0.16" stop-color="#DDA11C"/>
<stop offset="1" stop-color="#F4A718"/>
</linearGradient>
<linearGradient id="paint12_linear_1_3473" x1="1031.06" y1="684.195" x2="1072.71" y2="684.195" gradientUnits="userSpaceOnUse">
<stop stop-color="#D8981E"/>
<stop offset="0.16" stop-color="#DDA11C"/>
<stop offset="1" stop-color="#F4A718"/>
</linearGradient>
<linearGradient id="paint13_linear_1_3473" x1="1031.06" y1="775.513" x2="1072.71" y2="775.513" gradientUnits="userSpaceOnUse">
<stop stop-color="#D8981E"/>
<stop offset="0.16" stop-color="#DDA11C"/>
<stop offset="1" stop-color="#F4A718"/>
</linearGradient>
<linearGradient id="paint14_linear_1_3473" x1="174.818" y1="35.1029" x2="156.45" y2="35.1029" gradientUnits="userSpaceOnUse">
<stop stop-color="#AC5D0E"/>
<stop offset="0.16" stop-color="#9E4E10"/>
<stop offset="0.24" stop-color="#B5670D"/>
<stop offset="1" stop-color="#B5640D"/>
</linearGradient>
<linearGradient id="paint15_linear_1_3473" x1="173.668" y1="22.0215" x2="158.917" y2="22.0215" gradientUnits="userSpaceOnUse">
<stop stop-color="#664220"/>
<stop offset="0.99" stop-color="#814F1E"/>
</linearGradient>
<linearGradient id="paint16_linear_1_3473" x1="1020.82" y1="962.382" x2="1058.06" y2="962.382" gradientUnits="userSpaceOnUse">
<stop stop-color="#D8981E"/>
<stop offset="0.16" stop-color="#DDA11C"/>
<stop offset="1" stop-color="#F4A718"/>
</linearGradient>
<linearGradient id="paint17_linear_1_3473" x1="1018.72" y1="669.849" x2="1055.87" y2="669.849" gradientUnits="userSpaceOnUse">
<stop stop-color="#D8981E"/>
<stop offset="0.16" stop-color="#DDA11C"/>
<stop offset="1" stop-color="#F4A718"/>
</linearGradient>
<linearGradient id="paint18_linear_1_3473" x1="1018.72" y1="757.883" x2="1055.87" y2="757.883" gradientUnits="userSpaceOnUse">
<stop stop-color="#D8981E"/>
<stop offset="0.16" stop-color="#DDA11C"/>
<stop offset="1" stop-color="#F4A718"/>
</linearGradient>
<clipPath id="clip0_1_3473">
<rect width="52.3153" height="49.3234" fill="white" transform="translate(222.057 1.5957)"/>
</clipPath>
<clipPath id="clip1_1_3473">
<rect width="35.0456" height="49.3234" fill="white" transform="translate(156.444 1.5957)"/>
</clipPath>
<clipPath id="clip2_1_3473">
<rect width="57.0098" height="35.8515" fill="white" transform="translate(0 82.2712)"/>
</clipPath>
</defs>
</svg>
