<svg width="19" height="16" viewBox="0 0 19 16" fill="none" xmlns="http://www.w3.org/2000/svg">
<g clip-path="url(#clip0_56_179)">
<path d="M5.84066 16.0012C5.58556 16.001 5.33643 15.925 5.12573 15.7833C4.91502 15.6416 4.7525 15.4406 4.65934 15.2065C3.80591 13.0669 1.52131 10.7183 0.4325 9.77597C0.179367 9.55682 0.0249233 9.24753 0.00314691 8.91615C-0.0186295 8.58476 0.0940431 8.25842 0.316379 8.00891C0.538715 7.75941 0.852503 7.60718 1.18871 7.58571C1.52492 7.56425 1.856 7.67531 2.10913 7.89446C3.05319 8.71456 4.60269 10.2791 5.79283 12.0359C8.51736 7.57312 14.5329 1.30947 17.2045 0.112821C17.3567 0.0425809 17.5214 0.00279185 17.6893 -0.00424145C17.8572 -0.0112747 18.0248 0.0145879 18.1824 0.071848C18.34 0.129108 18.4846 0.216628 18.6077 0.329339C18.7308 0.442049 18.8299 0.577711 18.8995 0.728466C18.969 0.879221 19.0075 1.04207 19.0127 1.20759C19.0179 1.37311 18.9898 1.53801 18.9299 1.69273C18.87 1.84745 18.7796 1.98892 18.6638 2.10895C18.5481 2.22898 18.4093 2.32518 18.2556 2.39198C15.9332 3.4323 8.31659 11.5111 7.04212 15.1562C6.95773 15.3987 6.79984 15.6097 6.5898 15.7608C6.37976 15.912 6.12771 15.9958 5.86772 16.0012H5.84066Z" fill="#FA7575"/>
</g>
<defs>
<clipPath id="clip0_56_179">
<rect width="19" height="16" fill="white"/>
</clipPath>
</defs>
</svg>
