<svg width="30" height="30" viewBox="0 0 30 30" fill="none" xmlns="http://www.w3.org/2000/svg">
<circle cx="15" cy="15" r="15" fill="#EAEAEA"/>
<path d="M15.0005 9.51718L15.9414 8.5838C16.4005 8.11865 16.9445 7.75659 17.5404 7.51953C18.1362 7.28248 18.7716 7.17534 19.408 7.20469C20.0443 7.23404 20.6684 7.39923 21.2423 7.69024C21.8163 7.98125 22.3281 8.39205 22.7469 8.89768C23.5177 9.81037 23.9602 10.979 23.9974 12.2C24.0347 13.421 23.6643 14.617 22.9508 15.58C22.8253 15.7452 22.6842 15.9104 22.543 16.0673L15.5494 23.7078C15.4819 23.7988 15.3957 23.8724 15.2972 23.923C15.1987 23.9736 15.0905 24 14.981 24C14.8714 24 14.7632 23.9736 14.6647 23.923C14.5662 23.8724 14.48 23.7988 14.4125 23.7078L8.72821 17.4468C8.19506 16.8686 7.63839 16.3151 7.16012 15.6956C6.7042 15.1453 6.36937 14.4956 6.17961 13.7931C5.98985 13.0905 5.94985 12.3525 6.06247 11.6317C6.14521 10.9393 6.36268 10.2724 6.7013 9.67261C7.03992 9.07283 7.49239 8.5531 8.0304 8.14599C8.80141 7.56643 9.71883 7.24202 10.6656 7.21407C11.6124 7.18612 12.5456 7.45589 13.3462 7.98905C13.7205 8.28765 14.0791 8.60754 14.4204 8.94724L15.0005 9.51718ZM15.0005 22.1963L15.1966 21.9815L19.5245 17.2815C20.2615 16.4555 21.022 15.6956 21.7276 14.8614C22.3224 14.16 22.646 13.2491 22.6344 12.3086C22.6228 11.3681 22.2768 10.4664 21.6649 9.7815C21.3633 9.42742 20.9958 9.14247 20.5852 8.94436C20.1747 8.74625 19.7298 8.63922 19.2784 8.62993C18.8269 8.62063 18.3784 8.70926 17.9608 8.89032C17.5432 9.07138 17.1654 9.34098 16.8509 9.68239C16.4275 10.1202 16.0198 10.5827 15.6043 11.037C15.5359 11.136 15.4463 11.2165 15.3427 11.2721C15.2391 11.3276 15.1246 11.3565 15.0084 11.3565C14.8922 11.3565 14.7776 11.3276 14.6741 11.2721C14.5705 11.2165 14.4809 11.136 14.4125 11.037C13.9499 10.5414 13.5109 10.021 13.0248 9.5502C12.6392 9.15684 12.1642 8.87432 11.6453 8.7297C11.1263 8.58507 10.5809 8.58318 10.0611 8.7242C9.58562 8.85024 9.13992 9.0782 8.7518 9.39381C8.36368 9.70943 8.04148 10.1059 7.80532 10.5586C7.56915 11.0113 7.42408 11.5103 7.37918 12.0247C7.33427 12.539 7.39047 13.0576 7.5443 13.5481C7.76885 14.2266 8.14853 14.8365 8.6498 15.3239C10.1238 16.9098 11.5821 18.5123 13.0561 20.1065L15.0005 22.1963Z" fill="#6D6D6D"/>
</svg>
