<svg width="134" height="31" viewBox="0 0 134 31" fill="none" xmlns="http://www.w3.org/2000/svg">
<g clip-path="url(#clip0_1_1044)">
<path d="M28.1791 14.2904C32.1417 14.2904 35.354 11.1104 35.354 7.18757C35.354 3.26477 32.1417 0.0847168 28.1791 0.0847168C24.2166 0.0847168 21.0042 3.26477 21.0042 7.18757C21.0042 11.1104 24.2166 14.2904 28.1791 14.2904Z" fill="#71BCE9"/>
<path d="M86.892 14.2904C90.8546 14.2904 94.0669 11.1104 94.0669 7.18757C94.0669 3.26477 90.8546 0.0847168 86.892 0.0847168C82.9294 0.0847168 79.7171 3.26477 79.7171 7.18757C79.7171 11.1104 82.9294 14.2904 86.892 14.2904Z" fill="#71BCE9"/>
<path d="M104.279 14.2904C108.241 14.2904 111.454 11.1104 111.454 7.18757C111.454 3.26477 108.241 0.0847168 104.279 0.0847168C100.316 0.0847168 97.1038 3.26477 97.1038 7.18757C97.1038 11.1104 100.316 14.2904 104.279 14.2904Z" fill="#71BCE9"/>
<path d="M11.5096 13.059C11.5096 12.2957 11.2939 11.7333 10.8559 11.3752C10.3465 10.9963 9.71838 10.8072 9.08205 10.8412C8.58442 10.8406 8.08869 10.9018 7.60645 11.0234C7.29443 11.1003 6.9929 11.2143 6.7084 11.3626C6.6022 11.4177 6.51307 11.5003 6.45049 11.6015C6.38791 11.7027 6.35421 11.8188 6.35299 11.9375V23.9034C6.35531 24.0526 6.3039 24.1978 6.20796 24.3129C6.11202 24.428 5.97782 24.5056 5.82939 24.5317C5.64216 24.5662 5.42638 24.6008 5.17568 24.6353C4.62456 24.7092 4.06901 24.7459 3.51286 24.7453C3.01878 24.7487 2.52526 24.712 2.03727 24.6353C1.63998 24.576 1.26259 24.4242 0.936121 24.1924C0.627237 23.9569 0.388249 23.6432 0.244339 23.2845C0.0652999 22.8055 -0.0176979 22.2965 -8.80007e-06 21.786V10.6904C-0.023899 10.1174 0.126442 9.55053 0.431564 9.06309C0.750009 8.61294 1.14902 8.22432 1.60886 7.91645C2.5869 7.26547 3.66651 6.77831 4.8044 6.47452C6.19861 6.08966 7.64111 5.90348 9.08839 5.92162C11.9042 5.92162 14.0716 6.53106 15.5905 7.74995C17.1095 8.96884 17.869 10.6652 17.869 12.8391V23.3034C17.8706 23.6273 17.7535 23.9409 17.5393 24.1858C17.3251 24.4308 17.0285 24.5905 16.7044 24.6353H16.6885C16.1374 24.7092 15.5818 24.7459 15.0257 24.7453C14.5316 24.749 14.038 24.7122 13.5501 24.6353C13.1528 24.576 12.7754 24.4242 12.4489 24.1924C12.1391 23.9578 11.9 23.6438 11.7572 23.2845C11.5781 22.8055 11.4951 22.2965 11.5128 21.786L11.5096 13.059Z" fill="#231815"/>
<path d="M31.3556 23.2059C31.3555 23.546 31.2332 23.875 31.0105 24.134C30.7879 24.393 30.4794 24.5651 30.1402 24.6196C29.603 24.7051 29.0597 24.7481 28.5155 24.7484C28.0214 24.7521 27.5279 24.7153 27.0399 24.6384C26.6426 24.5791 26.2652 24.4273 25.9388 24.1955C25.629 23.9608 25.3898 23.6469 25.247 23.2876C25.0679 22.8086 24.9849 22.2996 25.0026 21.7891V7.95409C25.0027 7.61398 25.125 7.285 25.3477 7.026C25.5704 6.767 25.8789 6.59488 26.218 6.54043C26.7551 6.45325 27.2985 6.41017 27.8428 6.41163C28.3369 6.40636 28.8306 6.44315 29.3184 6.52158C29.7167 6.58041 30.0953 6.73224 30.4227 6.96453C30.7306 7.20024 30.9685 7.51391 31.1113 7.87241C31.2906 8.35137 31.3736 8.86041 31.3556 9.37089V23.2059Z" fill="#231815"/>
<path d="M49.0533 10.8757C48.4493 10.8735 47.8494 10.9734 47.2794 11.171C46.7381 11.3597 46.2413 11.6558 45.8196 12.0412C45.3954 12.4446 45.0595 12.9301 44.8327 13.4674C44.5695 14.1005 44.4419 14.7809 44.4583 15.4654C44.4583 16.9921 44.9004 18.1388 45.7847 18.9053C46.6791 19.6735 47.8315 20.0825 49.0152 20.0519C49.6733 20.064 50.3293 19.976 50.9604 19.7912C51.1984 19.7158 51.4269 19.6404 51.6427 19.5587C51.9147 19.454 52.2126 19.4342 52.4963 19.5022C52.78 19.5702 53.0358 19.7226 53.2294 19.9388C53.3485 20.071 53.4548 20.2141 53.5467 20.3661C53.8069 20.8088 53.9366 21.3149 53.9211 21.8269C53.9211 22.8384 53.4356 23.6217 52.4646 24.1767C51.4936 24.7317 50.1481 25.0081 48.4281 25.006C46.9783 25.0261 45.536 24.7954 44.1663 24.3243C42.9586 23.9049 41.8474 23.2513 40.8978 22.4018C39.9862 21.5696 39.2665 20.5528 38.7876 19.4205C38.2768 18.2024 38.022 16.8941 38.0386 15.5753C38.0077 14.1118 38.281 12.6576 38.8415 11.303C39.3303 10.1468 40.0779 9.11559 41.0279 8.28714C41.9637 7.49166 43.05 6.88832 44.2235 6.51221C45.4599 6.11307 46.7532 5.91365 48.0537 5.92162C49.8477 5.92162 51.2302 6.24205 52.2012 6.8829C53.1722 7.52376 53.6578 8.34997 53.6578 9.36153C53.6601 9.82002 53.5455 10.2717 53.3246 10.6747C53.1558 10.9722 52.8858 11.2009 52.5628 11.3199C52.2397 11.439 51.8845 11.4408 51.5602 11.3249C51.3857 11.2621 51.2048 11.2024 51.0144 11.1459C50.3786 10.9565 49.7171 10.8654 49.0533 10.8757Z" fill="#231815"/>
<path d="M76.8357 23.2972C76.8359 23.6238 76.7168 23.9394 76.5005 24.1859C76.2841 24.4324 75.9851 24.5931 75.6584 24.6386C75.1073 24.7124 74.5517 24.7492 73.9956 24.7486C73.5015 24.752 73.008 24.7152 72.52 24.6386C72.1227 24.5793 71.7453 24.4275 71.4189 24.1957C71.11 23.9601 70.871 23.6465 70.7271 23.2878C70.5493 22.8085 70.4674 22.2996 70.4859 21.7893V13.5775C70.4859 12.566 70.2299 11.857 69.718 11.4507C69.1813 11.0349 68.5141 10.8192 67.833 10.8413C67.0981 10.8336 66.3699 10.9814 65.6974 11.2748C65.5847 11.3264 65.4898 11.4095 65.4243 11.5139C65.3589 11.6183 65.3259 11.7394 65.3293 11.8623V23.3129C65.3287 23.6348 65.2109 23.9457 64.9976 24.1886C64.7843 24.4315 64.4897 24.5901 64.1678 24.6355H64.1519C63.6008 24.7092 63.0453 24.7459 62.4891 24.7454C61.995 24.7491 61.5015 24.7123 61.0135 24.6355C60.6151 24.5766 60.2366 24.4248 59.9092 24.1925C59.6003 23.957 59.3613 23.6434 59.2174 23.2846C59.0396 22.8054 58.9577 22.2964 58.9762 21.7862V1.52997C58.9756 1.19465 59.0957 0.870084 59.315 0.614474C59.5342 0.358864 59.8383 0.188933 60.1726 0.135163C60.7107 0.0470547 61.2551 0.00293066 61.8005 0.00322644C62.2947 -0.000845067 62.7884 0.0369862 63.2761 0.116315C63.6736 0.174802 64.0512 0.326688 64.3773 0.559263C64.6853 0.794251 64.9242 1.10666 65.069 1.46401C65.2483 1.94406 65.3313 2.45412 65.3134 2.96563V5.68928C65.3147 5.78994 65.3392 5.88897 65.3851 5.97879C65.431 6.06861 65.4971 6.14684 65.5783 6.20748C65.6594 6.26812 65.7536 6.30958 65.8534 6.32866C65.9532 6.34774 66.0562 6.34395 66.1543 6.31758C66.3447 6.26417 66.5541 6.21076 66.789 6.15421C67.5055 5.98811 68.2396 5.90796 68.9754 5.91547C71.4421 5.91547 73.3662 6.52491 74.7477 7.7438C76.1291 8.96269 76.8199 10.7816 76.8199 13.2005L76.8357 23.2972Z" fill="#231815"/>
<path d="M90.0716 23.2186C90.0722 23.5548 89.9517 23.8801 89.7319 24.1363C89.5121 24.3925 89.2072 24.5628 88.872 24.6166H88.8562C88.3189 24.702 87.7756 24.745 87.2314 24.7454C86.7373 24.7491 86.2438 24.7123 85.7558 24.6354C85.3574 24.5766 84.9789 24.4248 84.6515 24.1925C84.3436 23.9568 84.1056 23.6431 83.9629 23.2846C83.7823 22.806 83.6993 22.2967 83.7185 21.7861V7.93225C83.7172 7.59639 83.8369 7.27107 84.0562 7.0148C84.2755 6.75854 84.58 6.58816 84.9149 6.5343H84.9308C85.4678 6.44712 86.0113 6.40404 86.5555 6.4055C87.0496 6.40036 87.5433 6.43715 88.0311 6.51546C88.4286 6.57394 88.8062 6.72582 89.1322 6.95839C89.442 7.19302 89.6812 7.50694 89.824 7.86628C90.0033 8.34525 90.0863 8.85428 90.0684 9.36476L90.0716 23.2186Z" fill="#231815"/>
<path d="M99.6741 26.9696C100.215 26.6311 100.634 26.1319 100.87 25.5433C101.125 24.9013 101.251 24.2163 101.242 23.5265V7.92914C101.242 7.59353 101.363 7.26891 101.582 7.01337C101.802 6.75782 102.107 6.58802 102.441 6.53432H102.457C102.994 6.44738 103.538 6.4043 104.082 6.40552C104.576 6.40026 105.07 6.43705 105.557 6.51548C105.956 6.57336 106.335 6.72527 106.662 6.95842C106.97 7.19481 107.209 7.50819 107.354 7.8663C107.532 8.34552 107.614 8.85451 107.595 9.36478V24.1297C107.609 25.0851 107.482 26.0374 107.22 26.957C107.001 27.7362 106.641 28.4696 106.157 29.1215C105.707 29.7249 105.118 30.2126 104.438 30.5439C103.758 30.8751 103.008 31.0402 102.251 31.0252C101.776 31.0511 101.301 30.9772 100.856 30.8083C100.412 30.6393 100.009 30.3792 99.6741 30.0451C99.3676 29.7251 99.1263 29.3497 98.9633 28.9393C98.8345 28.5839 98.835 28.1952 98.9648 27.8402C99.0946 27.4852 99.3455 27.1861 99.6741 26.9947V26.9696Z" fill="#231815"/>
<path d="M134.003 15.4655C134.026 16.8588 133.785 18.244 133.292 19.5494C132.858 20.6872 132.176 21.7159 131.293 22.5621C130.411 23.3904 129.359 24.0214 128.209 24.4124C126.922 24.8474 125.57 25.0599 124.21 25.0407C122.848 25.0599 121.493 24.8342 120.212 24.3747C119.062 23.9591 118.013 23.3107 117.131 22.471C116.253 21.6193 115.572 20.5907 115.131 19.4552C114.184 16.8879 114.184 14.0715 115.131 11.5041C115.572 10.3686 116.253 9.34007 117.131 8.48833C118.014 7.64871 119.063 6.99942 120.212 6.58146C121.494 6.12457 122.848 5.90003 124.21 5.91861C125.574 5.89922 126.93 6.13036 128.209 6.60031C129.358 7.02894 130.407 7.68408 131.293 8.52603C132.169 9.37723 132.851 10.4045 133.292 11.5387C133.779 12.7912 134.02 14.1238 134.003 15.4655ZM121.034 15.4655C121.034 16.5996 121.316 17.4666 121.884 18.0729C122.19 18.3821 122.56 18.6228 122.967 18.7788C123.375 18.9349 123.812 19.0027 124.248 18.9777C124.681 19.0041 125.115 18.9353 125.517 18.7761C125.92 18.617 126.282 18.3715 126.578 18.0572C127.117 17.4447 127.39 16.5807 127.39 15.4655C127.39 14.3503 127.111 13.4927 126.559 12.8864C125.919 12.3042 125.081 11.9812 124.212 11.9812C123.343 11.9812 122.505 12.3042 121.865 12.8864C121.31 13.4958 121.034 14.3535 121.034 15.4687V15.4655Z" fill="#231815"/>
</g>
<defs>
<clipPath id="clip0_1_1044">
<rect width="134" height="31" fill="white"/>
</clipPath>
</defs>
</svg>
