<svg width="26" height="26" viewBox="0 0 26 26" fill="none" xmlns="http://www.w3.org/2000/svg">
<circle cx="13" cy="13" r="13" fill="#FA7575"/>
<path d="M19.7749 19.774C20.1964 19.3511 20.1964 18.6661 19.7749 18.2447L16.3279 14.7994C17.8313 12.5822 17.6024 9.54239 15.6385 7.57861C13.4125 5.3527 9.80476 5.3527 7.57871 7.57861C5.35267 9.80451 5.35267 13.412 7.57871 15.6379C9.54262 17.6017 12.5812 17.8305 14.8 16.3273L18.2455 19.7726C18.6684 20.1969 19.352 20.1969 19.7749 19.774ZM14.1106 14.1101C12.7318 15.4888 10.4884 15.4888 9.10957 14.1101C7.73079 12.7314 7.73079 10.4881 9.10957 9.10937C10.4884 7.73067 12.7318 7.73067 14.1106 9.10937C15.4894 10.4866 15.4894 12.7314 14.1106 14.1101Z" fill="white"/>
</svg>
