<svg width="20" height="20" viewBox="0 0 20 20" fill="#FFFFFF" xmlns="http://www.w3.org/2000/svg">
<path d="M9.61599 12.3077C12.3727 12.3077 14.6154 9.71937 14.6154 6.53917C14.6154 3.35897 12.3727 0.769287 9.61599 0.769287C6.85924 0.769287 4.61536 3.35767 4.61536 6.53917C4.61536 9.72067 6.85798 12.3077 9.61599 12.3077ZM9.61599 2.08559C11.6649 2.08559 13.3339 4.08346 13.3339 6.53917C13.3339 8.99488 11.6649 10.9914 9.61599 10.9914C7.56711 10.9914 5.89812 8.99358 5.89812 6.53917C5.89812 4.08476 7.56584 2.08559 9.61599 2.08559Z" fill="white"/>
<path d="M14.8797 11.5386L13.9702 12.4129C15.1414 13.5345 15.9113 15.9944 16.2378 17.2292H2.87741C3.23819 15.0372 5.29109 12.3752 5.31904 12.346L4.29005 11.6068C4.17698 11.7505 1.53845 15.1554 1.53845 17.8454C1.53845 18.0089 1.60618 18.1656 1.72673 18.2812C1.84727 18.3967 2.01077 18.4616 2.18125 18.4616H17.0444C17.14 18.4624 17.2346 18.4426 17.3213 18.4039C17.4079 18.3651 17.4845 18.3083 17.5453 18.2376C17.6062 18.1669 17.6498 18.0841 17.673 17.9952C17.6963 17.9063 17.6985 17.8135 17.6796 17.7237C17.6415 17.5434 16.7459 13.3263 14.8797 11.5386Z" fill="white"/>
</svg>
