<svg width="240" height="50" viewBox="0 0 240 50" fill="none" xmlns="http://www.w3.org/2000/svg">
<rect x="1" y="1" width="238" height="48" rx="24" fill="white" stroke="#F58A7C" stroke-width="2"/>
<path d="M214.286 20L220 25.122L214 30" stroke="#F58A7C" stroke-width="2" stroke-linejoin="round"/>
<path d="M74.185 31H76.39V25.225C77.005 24.625 77.44 24.295 78.13 24.295C78.94 24.295 79.315 24.73 79.315 26.05V31H81.52V25.765C81.52 23.665 80.725 22.405 78.925 22.405C77.785 22.405 76.915 23.005 76.195 23.725H76.15L75.97 22.615H74.185V31ZM83.7944 31H85.9994V22.615H83.7944V31ZM84.8894 21.25C85.6544 21.25 86.1794 20.77 86.1794 20.035C86.1794 19.315 85.6544 18.85 84.8894 18.85C84.1244 18.85 83.6144 19.315 83.6144 20.035C83.6144 20.77 84.1244 21.25 84.8894 21.25ZM91.905 31.21C92.835 31.21 93.87 30.895 94.665 30.205L93.795 28.75C93.33 29.125 92.76 29.425 92.145 29.425C90.945 29.425 90.075 28.39 90.075 26.815C90.075 25.225 90.93 24.205 92.235 24.205C92.685 24.205 93.09 24.385 93.51 24.745L94.545 23.335C93.93 22.795 93.15 22.405 92.1 22.405C89.82 22.405 87.825 24.025 87.825 26.815C87.825 29.59 89.595 31.21 91.905 31.21ZM96.2602 31H98.4652V25.225C99.0802 24.625 99.5152 24.295 100.205 24.295C101.015 24.295 101.39 24.73 101.39 26.05V31H103.595V25.765C103.595 23.665 102.8 22.405 101 22.405C99.8602 22.405 99.0202 23.005 98.3602 23.635L98.4652 22.06V19.045H96.2602V31ZM105.855 31H108.06V22.615H105.855V31ZM106.95 21.25C107.715 21.25 108.24 20.77 108.24 20.035C108.24 19.315 107.715 18.85 106.95 18.85C106.185 18.85 105.675 19.315 105.675 20.035C105.675 20.77 106.185 21.25 106.95 21.25ZM109.811 34.435C111.926 34.435 112.631 33.025 112.631 31.225V22.615H110.426V31.27C110.426 32.23 110.201 32.71 109.496 32.71C109.256 32.71 109.016 32.65 108.806 32.575L108.401 34.21C108.731 34.33 109.166 34.435 109.811 34.435ZM111.521 21.25C112.271 21.25 112.811 20.77 112.811 20.035C112.811 19.315 112.271 18.85 111.521 18.85C110.771 18.85 110.246 19.315 110.246 20.035C110.246 20.77 110.771 21.25 111.521 21.25ZM118.506 31.21C120.606 31.21 122.526 29.59 122.526 26.815C122.526 24.025 120.606 22.405 118.506 22.405C116.391 22.405 114.471 24.025 114.471 26.815C114.471 29.59 116.391 31.21 118.506 31.21ZM118.506 29.425C117.351 29.425 116.721 28.39 116.721 26.815C116.721 25.225 117.351 24.205 118.506 24.205C119.646 24.205 120.276 25.225 120.276 26.815C120.276 28.39 119.646 29.425 118.506 29.425ZM135.695 22.255L134.645 20.53C134.255 20.845 133.835 21.1 133.265 21.43C132.35 21.955 130.46 22.885 129.035 23.83C127.25 25 125.855 26.335 125.855 28.24C125.855 30.82 128.12 31.66 131.12 31.66C133.07 31.66 134.645 31.495 135.935 31.285L135.95 29.125C134.615 29.44 132.59 29.68 131.06 29.68C128.975 29.68 127.925 29.095 127.925 28.015C127.925 26.98 128.765 26.11 130.01 25.3C131.39 24.415 133.265 23.53 134.195 23.065C134.75 22.795 135.23 22.525 135.695 22.255ZM128.15 19.045L126.26 19.825C127.085 21.76 127.985 23.725 128.81 25.09L130.52 24.1C129.815 22.84 128.87 21.04 128.15 19.045ZM144.05 21.79L144.065 23.59C144.95 23.65 145.805 23.68 146.69 23.68C148.49 23.665 150.38 23.545 151.955 23.305V21.445C150.395 21.775 148.52 21.925 146.69 21.925C145.775 21.925 144.92 21.88 144.05 21.79ZM149.765 19.27H147.62C147.665 19.555 147.71 20.02 147.71 20.26C147.725 20.71 147.74 21.715 147.74 22.855C147.74 25.015 147.935 27.535 147.935 28.57C147.935 29.455 147.62 29.935 146.705 29.935C145.895 29.935 145.295 29.665 145.295 29.05C145.295 28.48 145.88 28.135 146.735 28.135C148.43 28.135 149.945 29.14 151.67 30.745L152.69 29.17C151.52 28.09 149.705 26.68 146.885 26.68C144.83 26.68 143.54 27.73 143.54 29.26C143.54 30.835 144.83 31.69 146.915 31.69C149.075 31.69 149.855 30.55 149.855 28.975C149.855 27.55 149.615 25.6 149.615 22.84C149.615 21.76 149.645 20.725 149.675 20.23C149.69 19.915 149.72 19.555 149.765 19.27ZM142.445 19.42L140.36 19.255C140.345 19.72 140.285 20.305 140.225 20.725C140.045 21.88 139.595 24.715 139.595 26.98C139.595 29.005 139.895 30.73 140.195 31.765L141.89 31.645C141.875 31.435 141.875 31.18 141.875 31.015C141.86 30.865 141.905 30.535 141.95 30.325C142.115 29.5 142.61 27.985 143.03 26.74L142.1 26.005C141.89 26.515 141.635 27.025 141.425 27.55C141.38 27.25 141.365 26.86 141.365 26.575C141.365 25.075 141.86 21.775 142.085 20.77C142.145 20.5 142.325 19.72 142.445 19.42Z" fill="#F58A7C"/>
</svg>
