<svg width="44" height="44" viewBox="0 0 44 44" fill="none" xmlns="http://www.w3.org/2000/svg">
<g clip-path="url(#clip0_262_2339)">
<circle cx="21.9188" cy="21.9204" r="11.8529" transform="rotate(-45 21.9188 21.9204)" fill="white"/>
<path d="M10.9602 10.9602C4.90707 17.0133 4.90724 26.8276 10.9602 32.8806C17.0132 38.9337 26.8272 38.9335 32.8804 32.8803C38.9334 26.8273 38.9336 17.0133 32.8805 10.9603C26.8275 4.90734 17.0132 4.90717 10.9602 10.9602ZM29.7089 19.7262L29.7087 24.1141L24.1142 24.1145L24.114 29.7088L19.7261 29.7089L19.7263 24.1146L14.1316 24.1145L14.1314 19.7262L19.7258 19.726L19.7259 14.1317L24.1144 14.1317L24.1146 19.7263L29.7089 19.7262Z" fill="#FA7575"/>
</g>
<defs>
<clipPath id="clip0_262_2339">
<rect width="31" height="31" fill="white" transform="translate(0 21.9204) rotate(-45)"/>
</clipPath>
</defs>
</svg>
