<svg width="328" height="50" viewBox="0 0 328 50" fill="none" xmlns="http://www.w3.org/2000/svg">
<rect width="328" height="50" rx="4" fill="black"/>
<path d="M101.78 25.21C102.11 24.055 102.44 22.795 102.725 21.58H102.8C103.115 22.78 103.415 24.055 103.76 25.21L104.09 26.425H101.45L101.78 25.21ZM97.94 31H100.19L100.97 28.15H104.57L105.35 31H107.675L104.105 19.885H101.495L97.94 31ZM108.794 34.225H110.999V31.675L110.924 30.295C111.569 30.88 112.274 31.21 113.009 31.21C114.854 31.21 116.579 29.545 116.579 26.665C116.579 24.085 115.349 22.39 113.279 22.39C112.379 22.39 111.509 22.87 110.804 23.47H110.759L110.594 22.6H108.794V34.225ZM112.514 29.395C112.064 29.395 111.524 29.23 110.999 28.765V25.075C111.569 24.49 112.079 24.205 112.649 24.205C113.804 24.205 114.314 25.09 114.314 26.695C114.314 28.525 113.534 29.395 112.514 29.395ZM118.448 34.225H120.653V31.675L120.578 30.295C121.223 30.88 121.928 31.21 122.663 31.21C124.508 31.21 126.233 29.545 126.233 26.665C126.233 24.085 125.003 22.39 122.933 22.39C122.033 22.39 121.163 22.87 120.458 23.47H120.413L120.248 22.6H118.448V34.225ZM122.168 29.395C121.718 29.395 121.178 29.23 120.653 28.765V25.075C121.223 24.49 121.733 24.205 122.303 24.205C123.458 24.205 123.968 25.09 123.968 26.695C123.968 28.525 123.188 29.395 122.168 29.395ZM130.171 31.21C130.696 31.21 131.056 31.12 131.311 31.015L131.041 29.38C130.891 29.41 130.831 29.41 130.741 29.41C130.531 29.41 130.306 29.245 130.306 28.735V19.03H128.101V28.645C128.101 30.205 128.641 31.21 130.171 31.21ZM136.492 31.21C137.527 31.21 138.592 30.85 139.417 30.28L138.667 28.93C138.067 29.305 137.467 29.515 136.777 29.515C135.532 29.515 134.632 28.795 134.452 27.415H139.627C139.687 27.22 139.732 26.815 139.732 26.395C139.732 24.085 138.532 22.39 136.222 22.39C134.227 22.39 132.307 24.085 132.307 26.8C132.307 29.575 134.137 31.21 136.492 31.21ZM134.422 25.945C134.587 24.73 135.367 24.1 136.252 24.1C137.332 24.1 137.842 24.82 137.842 25.945H134.422ZM145.127 31H147.347V19.885H145.127V31ZM150.078 31H153.243C156.513 31 158.613 29.14 158.613 25.405C158.613 21.655 156.513 19.885 153.123 19.885H150.078V31ZM152.298 29.215V21.67H152.988C155.058 21.67 156.348 22.69 156.348 25.405C156.348 28.105 155.058 29.215 152.988 29.215H152.298ZM163.854 20.71L164.049 22.765C165.789 22.39 168.849 22.06 170.259 21.91C169.239 22.675 168.024 24.385 168.024 26.545C168.024 29.8 170.994 31.48 174.144 31.69L174.849 29.635C172.299 29.5 169.989 28.615 169.989 26.14C169.989 24.355 171.354 22.42 173.169 21.94C173.964 21.745 175.254 21.745 176.064 21.73L176.049 19.81C174.984 19.855 173.349 19.945 171.804 20.08C169.059 20.305 166.584 20.53 165.324 20.635C165.039 20.665 164.454 20.695 163.854 20.71ZM173.919 23.2L172.809 23.665C173.289 24.34 173.604 24.925 173.979 25.75L175.119 25.24C174.834 24.655 174.294 23.74 173.919 23.2ZM175.599 22.51L174.504 23.02C174.984 23.68 175.329 24.235 175.734 25.045L176.859 24.505C176.544 23.92 175.974 23.035 175.599 22.51ZM179.709 20.365C179.739 20.785 179.739 21.4 179.739 21.82V29.155C179.739 29.875 179.694 31.18 179.694 31.255H181.764C181.764 31.21 181.764 30.865 181.749 30.445H188.979C188.979 30.88 188.964 31.225 188.964 31.255H191.034C191.034 31.195 191.004 29.755 191.004 29.17V21.82C191.004 21.37 191.004 20.815 191.034 20.365C190.494 20.395 189.924 20.395 189.549 20.395H181.299C180.894 20.395 180.324 20.38 179.709 20.365ZM181.749 22.3H188.994V28.525H181.749V22.3ZM204.504 18.715L203.319 19.195C203.694 19.735 204.114 20.53 204.414 21.13L204.309 21.07C203.979 21.175 203.469 21.25 203.004 21.25H200.004C200.019 21.22 200.034 21.205 200.049 21.175C200.214 20.845 200.604 20.17 200.964 19.645L198.759 18.925C198.624 19.435 198.309 20.125 198.084 20.485C197.349 21.775 196.029 23.725 193.404 25.315L195.084 26.575C196.569 25.57 197.874 24.25 198.879 22.945H203.094C202.854 24.055 201.984 25.87 200.964 27.025C199.644 28.525 197.979 29.83 194.919 30.745L196.689 32.335C199.509 31.21 201.309 29.845 202.734 28.09C204.099 26.425 204.954 24.43 205.359 23.095C205.479 22.72 205.689 22.3 205.854 22.015L204.579 21.235L205.689 20.77C205.419 20.215 204.879 19.255 204.504 18.715ZM206.274 18.04L205.089 18.52C205.509 19.09 205.989 19.96 206.304 20.59L207.489 20.08C207.219 19.555 206.664 18.595 206.274 18.04ZM208.749 25.165L209.694 27.055C211.539 26.515 213.444 25.705 214.989 24.895V29.695C214.989 30.355 214.944 31.3 214.884 31.66H217.254C217.149 31.285 217.119 30.355 217.119 29.695V23.635C218.574 22.675 220.014 21.505 221.154 20.38L219.534 18.835C218.559 20.02 216.849 21.52 215.304 22.48C213.639 23.5 211.434 24.475 208.749 25.165ZM226.434 19.6L225.024 21.1C226.119 21.865 227.994 23.5 228.774 24.34L230.304 22.78C229.434 21.865 227.484 20.305 226.434 19.6ZM224.559 29.59L225.819 31.57C227.934 31.21 229.869 30.37 231.384 29.455C233.799 28 235.794 25.93 236.934 23.905L235.764 21.79C234.819 23.815 232.869 26.11 230.304 27.625C228.849 28.495 226.899 29.26 224.559 29.59Z" fill="white"/>
<mask id="mask0_262_1032" style="mask-type:alpha" maskUnits="userSpaceOnUse" x="20" y="10" width="30" height="30">
<path d="M46.9946 10H23.0054C21.3456 10 20 11.3456 20 13.0054V36.9946C20 38.6544 21.3456 40 23.0054 40H46.9946C48.6544 40 50 38.6544 50 36.9946V13.0054C50 11.3456 48.6544 10 46.9946 10Z" fill="#30A6DF"/>
</mask>
<g mask="url(#mask0_262_1032)">
<path d="M35.6783 18.3324C34.563 18.3324 32.8364 17.0274 31.0195 17.0767C28.6195 17.1086 26.4214 18.505 25.1832 20.7177C22.6929 25.1583 24.5416 31.7174 26.9713 35.3264C28.1628 37.0838 29.5682 39.0616 31.4324 38.9985C33.2197 38.9202 33.8917 37.8059 36.0616 37.8059C38.216 37.8059 38.8266 38.9985 40.7205 38.9514C42.6454 38.9202 43.868 37.1628 45.044 35.3895C45.8885 34.1193 46.5475 32.729 47 31.2628C46.9541 31.2468 43.2588 29.7874 43.2108 25.3939C43.1805 21.7218 46.1289 19.9644 46.2666 19.8839C44.5859 17.3573 42.0038 17.0745 41.1023 17.0122C38.7461 16.8259 36.7781 18.3324 35.6783 18.3324ZM39.6503 14.6291C40.6435 13.4075 41.3007 11.695 41.1172 10C39.6962 10.0631 37.9852 10.9729 36.9616 12.1967C36.044 13.2799 35.2506 15.0242 35.4644 16.6845C37.0379 16.8099 38.6572 15.8529 39.6503 14.6291Z" fill="white"/>
</g>
</svg>
