<svg width="20" height="20" viewBox="0 0 20 20" fill="none" xmlns="http://www.w3.org/2000/svg">
<path d="M18.6909 9.83511V6.21598C18.6909 4.73841 18.6909 3.26084 18.6909 1.78328C18.6933 1.63815 18.6545 1.49542 18.5792 1.37221C18.504 1.24899 18.3955 1.15053 18.2667 1.08864C18.1247 1.02115 17.9683 0.991391 17.812 1.00215H8.85836C8.82654 1.00215 8.79473 1.00215 8.76292 1.00215C8.62637 0.997224 8.49047 1.02355 8.36521 1.07918C8.22747 1.14354 8.1118 1.24848 8.03312 1.38048C7.95443 1.51248 7.91634 1.66549 7.92376 1.81977C7.92376 2.69009 7.92376 3.56131 7.92376 4.43344C7.9154 4.61298 7.96782 4.78999 8.07224 4.93482C8.13975 5.02984 8.22787 5.10769 8.32973 5.16231C8.4316 5.21693 8.54445 5.24684 8.65951 5.2497H8.69001C8.82559 5.25371 8.95968 5.21996 9.07787 5.1521C9.19606 5.08424 9.29387 4.98482 9.3608 4.86455C9.44077 4.71692 9.47757 4.54902 9.46685 4.38073V2.80226C9.46685 2.61981 9.51457 2.56981 9.69089 2.56981H16.9092C17.0948 2.56981 17.1399 2.61711 17.1399 2.80901V16.8828C17.1399 17.0761 17.0935 17.122 16.9026 17.122H9.69884C9.52253 17.122 9.47348 17.0734 9.47348 16.8909V16.4152C9.47348 16.0549 9.47348 15.6922 9.47348 15.3273V15.2908C9.47792 15.2152 9.47257 15.1393 9.45757 15.0652C9.43129 14.9189 9.36312 14.7839 9.26168 14.6771C9.16023 14.5704 9.03005 14.4966 8.88753 14.4651C8.82332 14.449 8.75744 14.4409 8.69132 14.4408C8.55604 14.4403 8.42314 14.477 8.30652 14.5469C8.1899 14.6168 8.09387 14.7174 8.02849 14.8381C7.95487 14.9753 7.92042 15.1307 7.92906 15.2868C7.92906 16.0724 7.92906 16.8585 7.92906 17.645C7.92906 17.7626 7.92907 17.8815 7.94365 18.0005C7.95356 18.1266 7.99542 18.248 8.06513 18.3527C8.13484 18.4574 8.23002 18.5418 8.34135 18.5978C8.4856 18.6703 8.64628 18.7021 8.80666 18.6897H17.8902C18.0667 18.6961 18.2399 18.6402 18.3807 18.5316C18.4834 18.4513 18.5653 18.3467 18.6194 18.2268C18.6734 18.1069 18.698 17.9754 18.6909 17.8437C18.6909 15.7868 18.6909 13.7308 18.6909 11.6758V9.83511Z" fill="#231815"/>
<path d="M8.29396 11.7668H10.2332C10.3287 11.7676 10.4235 11.7485 10.5119 11.7104C10.6003 11.6724 10.6806 11.6161 10.7482 11.5451C10.8587 11.4392 10.9376 11.3018 10.9752 11.1496C11.0128 10.9974 11.0076 10.837 10.9601 10.6878C10.9116 10.536 10.8255 10.4004 10.7107 10.2952L9.50365 9.02424L9.00073 8.49465L8.5072 7.97635L7.27606 6.67992C7.20188 6.5904 7.11094 6.51798 7.00893 6.46719C6.90693 6.4164 6.79607 6.38834 6.68329 6.38477C6.57614 6.38645 6.4702 6.40895 6.37081 6.45114C6.25715 6.50003 6.15619 6.57675 6.07631 6.67493C5.99643 6.77311 5.93991 6.88993 5.91146 7.01569C5.88301 7.14146 5.88344 7.27257 5.91271 7.39813C5.94199 7.52369 5.99926 7.64009 6.07979 7.73769C6.17903 7.85349 6.28229 7.96223 6.3869 8.07098L6.46603 8.1543C6.88714 8.60056 7.30959 9.04636 7.73338 9.49169C7.82189 9.58631 7.91309 9.67951 8.0016 9.77413L8.12499 9.90123L8.17327 9.95207L8.14913 10.0199L8.1384 10.0481L8.11157 10.1173H8.03916H1.8365C1.70891 10.1102 1.58153 10.1352 1.46493 10.1902C1.34832 10.2452 1.24583 10.3286 1.16594 10.4336C1.04498 10.5971 0.986674 10.8025 1.00257 11.0091C1.01846 11.2157 1.1074 11.4084 1.25178 11.5493C1.41283 11.7014 1.6245 11.7801 1.84052 11.7682H8.2886L8.29396 11.7668Z" fill="#231815"/>
</svg>
