<svg width="468" height="211" viewBox="0 0 468 211" fill="none" xmlns="http://www.w3.org/2000/svg">
<path d="M44.7936 69.2647C44.7936 69.2647 38.1628 51.1272 52.6806 46.8439C67.1984 42.5606 72.398 38.6121 68.125 30.3901" stroke="#CE7736" stroke-width="0.56877" stroke-miterlimit="10" stroke-linecap="round"/>
<path d="M37.0816 69.2649C37.0816 69.2649 46.0497 60.1763 37.0816 49.8274C28.1135 39.4785 15.5829 50.4379 20.6075 62.0964" stroke="#CE7736" stroke-width="0.56877" stroke-miterlimit="10" stroke-linecap="round"/>
<path d="M42.5795 69.2649C42.5795 69.2649 43.0634 49.2957 34.4557 42.3833C20.36 31.0694 19.4437 43.1809 10.6815 38.7302" stroke="#CE7736" stroke-width="0.56877" stroke-miterlimit="10" stroke-linecap="round"/>
<path d="M6.97515 38.7303C6.97515 38.7303 -0.232268 41.1329 4.10248 47.6415C7.33552 52.102 15.9741 55.6172 22.4093 48.8329" stroke="#CE7736" stroke-width="0.56877" stroke-miterlimit="10" stroke-linecap="round"/>
<path d="M42.7651 65.3656C42.7651 65.3656 40.7059 48.0452 51.9597 35.6975C61.9986 24.8661 56.418 7.58521 56.418 7.58521" stroke="#529E97" stroke-width="0.56877" stroke-miterlimit="10" stroke-linecap="round"/>
<path d="M39.9542 23.1823C39.9542 23.1823 44.1757 27.5345 43.2799 42.5606C42.7448 51.745 42.7861 60.9518 43.4035 70.1314" stroke="#529E97" stroke-width="0.56877" stroke-miterlimit="10" stroke-linecap="round"/>
<path d="M57.0768 10.155C57.0768 10.155 58.8684 5.61573 56.4899 2.86853C54.1115 0.121321 52.011 -0.597474 51.6918 0.475806C51.3727 1.54909 48.6029 2.31711 49.9518 5.07416C51.3006 7.83121 57.0768 10.155 57.0768 10.155Z" fill="#52A07F"/>
<path d="M57.9312 16.9001C57.9312 16.9001 58.0033 10.096 61.401 8.44174C63.553 7.45707 64.0884 9.07193 64.9327 8.44174C65.7769 7.81155 67.3832 8.09709 67.2596 10.1551C67.1361 12.213 63.8412 18.5543 57.9312 16.9001Z" fill="#52A07F"/>
<path d="M57.973 17.6979C57.973 17.6979 52.135 18.1016 49.6021 14.2121C48.14 11.6421 49.7462 11.583 49.6021 10.7854C49.4579 9.98781 48.14 9.52501 50.5288 9.64317C52.9175 9.76133 58.7143 13.2471 57.973 17.6979Z" fill="#52A07F"/>
<path d="M43.249 43.4074C43.249 43.4074 37.4212 43.8013 34.878 39.9216C33.4263 37.3516 35.0222 37.2925 34.878 36.4949C34.7339 35.6973 33.4263 35.2345 35.815 35.3526C38.2038 35.4708 44.0006 38.9468 43.249 43.4074Z" fill="#52A07F"/>
<path d="M42.8064 30.401C42.8064 30.401 37.9259 33.4837 33.725 31.2874C31.1406 29.7312 32.51 28.9334 31.9746 28.3327C31.4392 27.7319 30.0595 27.919 32.2012 26.8947C34.3428 25.8704 41.1796 26.1659 42.8064 30.401Z" fill="#52A07F"/>
<path d="M40.3969 23.1725C40.3969 23.1725 34.5692 23.5762 32.0363 19.6867C30.5742 17.1167 32.1804 17.0576 32.0363 16.26C31.8922 15.4624 30.5742 14.9996 32.963 15.1178C35.3517 15.2359 41.1485 18.7217 40.3969 23.1725Z" fill="#52A07F"/>
<path d="M56.4902 28.0564C56.4902 28.0564 58.3024 21.6463 63.3167 20.7305C65.1082 20.2677 66.1893 21.5281 67.5587 21.2426C68.9282 20.957 70.9051 20.5041 69.1135 24.0981C67.3219 27.6921 59.5791 30.075 56.4902 28.0564Z" fill="#52A07F"/>
<path d="M42.5694 30.8627C42.5694 30.8627 49.4781 30.1045 51.177 25.4963C51.9184 23.8716 50.7755 22.6703 51.28 21.41C51.7845 20.1496 52.5465 18.3575 48.5618 19.5194C44.5771 20.6813 40.9528 27.6429 42.5694 30.8627Z" fill="#52A07F"/>
<path d="M56.0474 29.2379C56.0474 29.2379 49.7461 27.5345 49.602 22.168C49.4578 19.214 51.548 20.3365 52.0834 19.4208C52.6188 18.505 53.3395 17.8256 54.3588 19.4208C55.3782 21.0159 58.7348 24.4426 56.0474 29.2379Z" fill="#52A07F"/>
<path d="M50.5184 37.401C50.5184 37.401 54.8326 31.9853 60.2073 33.9251C61.2369 34.5553 60.8044 35.5301 61.2369 35.983C61.6693 36.436 66.6115 37.529 62.5445 39.3605C58.4775 41.192 53.8544 42.2357 50.5184 37.401Z" fill="#52A07F"/>
<path d="M49.6121 38.6219C49.6121 38.6219 43.2593 35.018 44.2168 29.819C45.1744 26.5598 46.3481 27.8497 46.863 27.2983C47.3778 26.7469 47.0792 23.5861 50.3122 27.2983C53.5453 31.0105 52.701 36.5738 49.6121 38.6219Z" fill="#52A07F"/>
<path d="M32.9629 49.7586C32.9629 49.7586 41.0352 57.9806 34.5794 64.1545C30.0902 68.4378 15.2224 77.3589 33.8587 89.6968H49.993C49.993 89.6968 64.4079 82.1542 55.9649 69.6391C48.9222 60.5604 45.5141 57.6458 51.7846 52.1612C51.7846 52.1612 42.6414 46.7061 32.9629 49.7586Z" fill="#FFAE2C"/>
<g style="mix-blend-mode:multiply" opacity="0.24">
<path d="M55.9649 69.6095C54.8014 68.1128 53.7512 66.7933 52.8039 65.5822C55.2751 70.801 55.275 76.7188 50.6417 80.4114C44.4639 86.3194 33.138 84.3501 29.0194 77.4573C26.9602 71.5493 33.138 67.6106 36.2269 62.6873C36.3823 62.2394 36.4893 61.7775 36.546 61.3087C36.1049 62.3693 35.4348 63.3289 34.5794 64.1249C30.0902 68.4082 15.2224 77.3293 33.8587 89.6673H49.993C49.993 89.6673 64.4491 82.1542 55.9649 69.6095Z" fill="#FFAE2C"/>
</g>
<path d="M38.4506 57.439C38.5929 59.8912 38.1639 62.3429 37.1945 64.6172C37.0709 64.9126 37.5651 65.0406 37.6887 64.7452C38.6751 62.4304 39.1112 59.9348 38.9654 57.439C38.9654 57.1239 38.43 57.1239 38.4506 57.439Z" fill="#FFCE88"/>
<path d="M36.927 65.6708H36.8138C36.7994 65.6639 36.7835 65.6603 36.7674 65.6603C36.7514 65.6603 36.7355 65.6639 36.7211 65.6708C36.6901 65.681 36.662 65.6979 36.6388 65.72C36.6156 65.7422 36.598 65.7691 36.5873 65.7988C36.5769 65.8308 36.5769 65.8651 36.5873 65.8972V65.9562C36.6013 65.9976 36.6261 66.0348 36.6594 66.0644H36.7108C36.7515 66.073 36.7937 66.073 36.8344 66.0644H36.9477C36.9779 66.0729 37.0101 66.0729 37.0403 66.0644C37.0713 66.0542 37.0995 66.0374 37.1227 66.0152C37.1459 65.9931 37.1635 65.9661 37.1742 65.9365C37.183 65.9076 37.183 65.8769 37.1742 65.8479V65.7791C37.1602 65.7377 37.1354 65.7005 37.1021 65.6708H37.0506H36.927Z" fill="#FFCE88"/>
<path d="M35.8562 67.3841C34.9505 68.6491 34.1746 69.9948 33.5395 71.4025C33.4159 71.698 33.8587 71.9442 33.9822 71.6585C34.6236 70.2506 35.3991 68.9022 36.2989 67.6304C36.4945 67.3644 36.0415 67.1182 35.8562 67.3841Z" fill="#FFCE88"/>
<path d="M35.115 29.238C36.7517 29.8508 38.509 30.113 40.2631 30.0062C40.5926 30.0062 40.5926 29.4941 40.2631 29.5138C38.5477 29.6225 36.8283 29.3669 35.2282 28.7653C34.9194 28.657 34.7855 29.1297 35.0841 29.238H35.115Z" fill="#28776D"/>
<path d="M35.6504 19.5194C36.7094 20.8728 37.9764 22.0649 39.4086 23.0553C39.6866 23.2326 39.944 22.8091 39.6763 22.622C38.3081 21.6858 37.0994 20.5528 36.0932 19.2633C36.0571 19.209 36.0003 19.1704 35.9349 19.1557C35.8695 19.141 35.8006 19.1513 35.7431 19.1845C35.6846 19.2174 35.6421 19.271 35.6248 19.3337C35.6074 19.3964 35.6166 19.4631 35.6504 19.5194Z" fill="#28776D"/>
<path d="M45.9467 25.2305C44.9788 26.57 43.9698 27.87 42.9299 29.1701C42.724 29.4163 43.0843 29.7611 43.2902 29.5148C44.3199 28.2049 45.401 26.8654 46.3791 25.5063C46.5644 25.2404 46.1217 24.9941 45.9364 25.2502L45.9467 25.2305Z" fill="#28776D"/>
<path d="M36.8961 38.3168C37.457 39.4385 38.2512 40.4389 39.2303 41.2568C40.2093 42.0747 41.3525 42.693 42.59 43.0737C42.9091 43.1722 43.043 42.6995 42.7238 42.601C41.5519 42.237 40.4705 41.6472 39.5461 40.8681C38.6217 40.0889 37.874 39.1368 37.3491 38.0706C37.205 37.785 36.7623 38.0706 36.8961 38.3168Z" fill="#28776D"/>
<path d="M47.8825 29.5629C47.8551 32.385 48.9268 35.1159 50.889 37.2238C51.1052 37.4601 51.4656 37.1057 51.2494 36.8693C49.383 34.857 48.3664 32.2526 48.3973 29.5629C48.3973 29.4977 48.3701 29.4351 48.3219 29.3889C48.2736 29.3427 48.2081 29.3168 48.1399 29.3168C48.0716 29.3168 48.0061 29.3427 47.9578 29.3889C47.9096 29.4351 47.8825 29.4977 47.8825 29.5629Z" fill="#28776D"/>
<path d="M56.943 36.5247C56.0135 36.9764 54.9987 37.2449 53.9587 37.3143C52.9187 37.3837 51.8747 37.2525 50.8887 36.9285C50.5799 36.8202 50.446 37.293 50.7549 37.4013C51.8064 37.7415 52.9186 37.8766 54.0256 37.7988C55.1326 37.721 56.2121 37.4318 57.2004 36.9482C57.499 36.8103 57.2004 36.3769 56.943 36.5247Z" fill="#28776D"/>
<path d="M43.2182 42.6098C43.2182 42.6098 43.28 35.8058 46.6881 34.1516C48.84 33.1669 49.3754 34.7818 50.2094 34.1516C51.0434 33.5214 52.6599 33.807 52.5467 35.8649C52.4334 37.9229 49.1283 44.2641 43.2182 42.6098Z" fill="#52A07F"/>
<path d="M46.9559 38.8681C45.9918 40.2097 44.7384 41.3381 43.2801 42.1774C43.2286 42.2132 43.1927 42.2661 43.1796 42.3257C43.1665 42.3854 43.1769 42.4475 43.209 42.5002C43.241 42.5529 43.2923 42.5924 43.353 42.611C43.4137 42.6296 43.4794 42.6259 43.5375 42.6008C45.0735 41.7201 46.391 40.5304 47.3986 39.1144C47.584 38.8484 47.1412 38.6022 46.9559 38.8681Z" fill="#28776D"/>
<path d="M53.2674 21.5182C52.9379 23.9109 54.4206 25.9984 55.8003 27.8496C55.9959 28.1056 56.4387 27.8496 56.243 27.6034C54.9148 25.8212 53.463 23.8321 53.7822 21.5182C53.7822 21.2031 53.3086 21.2031 53.2674 21.5182Z" fill="#28776D"/>
<path d="M61.813 23.7928C60.3815 25.5922 58.3808 26.9013 56.1089 27.5256C56.0495 27.5475 56.0007 27.5897 55.972 27.644C55.9432 27.6983 55.9365 27.7609 55.9532 27.8196C55.9698 27.8784 56.0086 27.9292 56.0621 27.9622C56.1155 27.9952 56.1799 28.008 56.2427 27.9983C58.6418 27.346 60.753 25.9628 62.2557 24.0587C62.4617 23.8026 62.0086 23.5564 61.813 23.8125V23.7928Z" fill="#28776D"/>
<path d="M52.289 12.9222C53.1668 14.6376 54.6462 16.004 56.4693 16.7829C56.7782 16.911 57.0356 16.4875 56.737 16.3595C54.9894 15.6222 53.5706 14.3174 52.7318 12.676C52.5876 12.3903 52.1449 12.676 52.289 12.9222Z" fill="#28776D"/>
<path d="M63.7595 10.293L60.1558 14.3211C59.9396 14.5575 60.2999 14.9121 60.5162 14.6658L64.1302 10.6377C64.3361 10.4013 63.9757 10.0468 63.7595 10.293Z" fill="#28776D"/>
<path d="M140.333 54.723L127.993 79.3395H129.786L144.884 57.1021L140.333 54.723Z" fill="#93401F"/>
<path d="M199.051 55.2473L205.068 80.9844L202.956 81.8233L192.61 56.8923L199.051 55.2473Z" fill="#93401F"/>
<path d="M133.17 46.8387C133.17 46.8387 130.071 41.7594 139.798 43.2799C149.525 44.8004 158.398 33.0427 167.903 18.3029C177.408 3.56316 193.243 -2.01423 203.269 3.36654C213.295 8.7473 212.621 47.7824 205.082 53.9824C197.543 60.1824 167.563 69.7118 150.887 61.1262C134.212 52.5406 133.17 46.8387 133.17 46.8387Z" fill="#FFBAB3"/>
<path d="M203.269 3.36654C193.243 -2.01423 177.401 3.56316 167.903 18.3029C158.405 33.0427 149.525 44.7939 139.798 43.2799C130.071 41.7659 133.17 46.8387 133.17 46.8387C133.17 46.8387 134.052 51.5444 146.663 58.8192C145.123 57.2936 143.754 55.6222 142.577 53.8317C140.493 50.5547 143.967 46.6224 146.746 45.967C164.116 42.0347 170.37 24.9945 184.96 19.7513C198.801 14.6393 206.388 28.219 209.973 40.8943C212.058 26.9606 210.217 7.08916 203.269 3.36654Z" fill="#FFBAB3"/>
<g style="mix-blend-mode:multiply" opacity="0.22">
<path d="M184.96 19.7514C170.369 24.9946 164.116 42.0348 146.746 45.9671C143.967 46.6225 140.493 50.5549 142.577 53.8318C143.754 55.6224 145.123 57.2937 146.663 58.8194C147.95 59.5665 149.363 60.3355 150.901 61.1264C167.576 69.6989 197.536 60.1826 205.096 53.9826C207.409 52.0754 209.077 47.0682 209.959 40.8747C206.388 28.2191 198.801 14.6394 184.96 19.7514Z" fill="#FFBAB3"/>
</g>
<path d="M182.258 66.022C166.84 68.3028 147.205 66.1072 132.85 51.1709C132.536 50.7804 132.252 50.3686 132.002 49.9387C131.127 48.4576 130.092 45.9605 131.662 44.0402C134.038 41.2024 140.931 42.7294 150.422 47.5859C159.913 52.4423 175.914 55.3195 186.148 50.7383L189.053 49.4275C197.96 45.3051 205.103 41.6612 207.965 45.8819C211.182 50.5548 197.682 63.7281 182.258 66.022Z" fill="#FFBAB3"/>
<g style="mix-blend-mode:multiply" opacity="0.22">
<path d="M173.149 59.0747C179.082 58.0654 183.786 54.1265 187.628 50.109L186.162 50.7644C175.928 55.3521 159.94 52.5011 150.435 47.612C149.164 46.9566 147.948 46.3733 146.774 45.8424C144.731 46.4716 141.083 64.5471 173.149 59.0747Z" fill="#FFBAB3"/>
</g>
<path d="M180.833 54.854C180.833 54.854 168.473 44.9052 166.36 37.7614C173.253 23.2183 189.476 19.5154 189.476 19.5154C189.476 19.5154 204.582 25.178 205.068 36.5555C201.712 49.6699 180.833 54.854 180.833 54.854Z" fill="#529E97"/>
<g style="mix-blend-mode:multiply" opacity="0.18">
<path d="M187.739 45.5409C182.876 43.5748 177.317 34.8253 179.402 28.2714C180.625 23.0742 189.476 19.5154 189.476 19.5154C189.476 19.5154 173.253 23.2183 166.36 37.7614C168.445 44.9052 180.833 54.854 180.833 54.854C180.833 54.854 201.323 49.7616 204.957 36.9094C201.226 42.3754 193.131 48.0904 187.739 45.5409Z" fill="#529E97"/>
</g>
<path d="M190.519 90.0095H187.74L183.182 63.4005C185.449 62.9105 187.654 62.1966 189.762 61.2705L190.519 90.0095Z" fill="#93401F"/>
<path d="M147.782 43.6141C147.782 43.6141 157.46 31.3059 164.867 28.8285C180.722 34.3141 185.753 49.3291 185.753 49.3291C185.753 49.3291 179.402 58.144 167.382 59.3762C153.278 57.1085 147.782 43.6141 147.782 43.6141Z" fill="white"/>
<g style="mix-blend-mode:multiply" opacity="0.22">
<path d="M183.015 43.7781C186.607 54.5527 170.96 57.1087 163.421 54.4871C156.473 52.2981 150.477 45.5476 152.305 38.417C149.609 41.2679 147.76 43.6142 147.76 43.6142C147.76 43.6142 153.256 57.1218 167.361 59.3436C179.353 58.1114 185.732 49.2964 185.732 49.2964C185.017 47.3785 184.107 45.5304 183.015 43.7781Z" fill="#D7E2E0"/>
</g>
<path d="M182.258 66.0221C166.84 68.3028 147.205 66.1073 132.85 51.1708C132.536 50.7804 132.252 50.3686 132.003 49.9387C136.171 54.1201 145.28 60.1825 161.99 58.7931C171.64 57.5993 180.892 54.4127 189.088 49.4603C197.995 45.3378 205.138 41.6938 208 45.9146C211.182 50.5548 197.682 63.7282 182.258 66.0221Z" fill="#F77F72"/>
<g style="mix-blend-mode:multiply" opacity="0.09">
<path d="M204.415 47.2778C190.519 59.0749 172.454 66.9396 153.694 61.6965C148.344 60.2546 142.786 58.0197 138.409 54.6641C136.041 53.3905 133.884 51.7987 132.003 49.9387C132.252 50.3685 132.536 50.7804 132.85 51.1708C147.205 66.1073 166.84 68.3029 182.258 66.0221C196.411 63.9183 208.945 52.6651 208.459 47.2057C207.815 46.9588 207.124 46.838 206.429 46.8504C205.734 46.8627 205.049 47.0082 204.415 47.2778Z" fill="#F77F72"/>
</g>
<path d="M184.509 5.15019C180.451 7.17022 176.993 10.1147 174.448 13.7161C174.323 13.8865 174.622 14.0569 174.747 13.8799C177.261 10.3292 180.677 7.42756 184.682 5.43856C184.884 5.34025 184.682 5.05844 184.509 5.15019Z" fill="#FFE7E6"/>
<path d="M173.642 15.0019H173.76C173.806 15.0019 173.85 14.9845 173.883 14.9536C173.916 14.9227 173.934 14.8807 173.934 14.837C173.934 14.7933 173.916 14.7513 173.883 14.7204C173.85 14.6895 173.806 14.6721 173.76 14.6721H173.642C173.596 14.6721 173.552 14.6895 173.519 14.7204C173.487 14.7513 173.468 14.7933 173.468 14.837C173.468 14.8807 173.487 14.9227 173.519 14.9536C173.552 14.9845 173.596 15.0019 173.642 15.0019H173.76C173.806 15.0019 173.85 14.9845 173.883 14.9536C173.916 14.9227 173.934 14.8807 173.934 14.837C173.934 14.7933 173.916 14.7513 173.883 14.7204C173.85 14.6895 173.806 14.6721 173.76 14.6721H173.642C173.596 14.6721 173.552 14.6895 173.519 14.7204C173.487 14.7513 173.468 14.7933 173.468 14.837C173.468 14.8807 173.487 14.9227 173.519 14.9536C173.552 14.9845 173.596 15.0019 173.642 15.0019Z" fill="#FFE7E6"/>
<path d="M172.162 16.7824C170.881 18.1592 169.886 19.7516 169.23 21.4761C169.154 21.6728 169.487 21.7645 169.564 21.5613C170.205 19.8907 171.171 18.3478 172.412 17.0119C172.558 16.8545 172.315 16.6251 172.162 16.7824Z" fill="#FFE7E6"/>
<path d="M165.152 31.0437C172.319 34.3559 178.215 39.6908 182.021 46.3078C182.047 46.3406 182.084 46.3634 182.126 46.3718C182.168 46.3801 182.212 46.3735 182.249 46.3531C182.286 46.3327 182.314 46.3 182.327 46.2614C182.34 46.2228 182.338 46.1809 182.32 46.1439C178.483 39.4782 172.544 34.1028 165.325 30.7619C165.131 30.6701 164.95 30.952 165.152 31.0437Z" fill="#DDEDEA"/>
<path d="M150.866 44.6564C154.409 50.4261 160.088 54.7563 166.812 56.8137C167.027 56.8792 167.118 56.5647 166.909 56.4991C160.266 54.4585 154.66 50.1695 151.172 44.4598C151.061 44.2763 150.755 44.4598 150.866 44.6302V44.6564Z" fill="#DDEDEA"/>
<path d="M202.074 52.1146C197.999 56.1575 192.992 59.2612 187.441 61.1851C187.232 61.2572 187.323 61.5718 187.538 61.4997C193.146 59.5523 198.203 56.4127 202.317 52.3243C202.47 52.1736 202.226 51.9376 202.074 52.0949V52.1146Z" fill="#E26259"/>
<path d="M181.167 63.4288L184.342 62.6146C184.382 62.6 184.415 62.5719 184.434 62.5357C184.454 62.4995 184.458 62.4578 184.447 62.4186C184.436 62.3794 184.41 62.3456 184.374 62.3236C184.337 62.3016 184.294 62.293 184.252 62.2995L181.076 63.1137C181.036 63.1283 181.003 63.1564 180.984 63.1926C180.965 63.2288 180.96 63.2705 180.971 63.3097C180.983 63.3489 181.009 63.3827 181.045 63.4047C181.081 63.4267 181.124 63.4353 181.167 63.4288Z" fill="#E26259"/>
<path d="M164.901 64.5952C169.157 65.0147 173.455 64.7931 177.637 63.9385C177.86 63.8925 177.762 63.5707 177.547 63.6167C173.396 64.4712 169.127 64.6929 164.901 64.2734C164.679 64.2734 164.686 64.5821 164.901 64.6018V64.5952Z" fill="#E26259"/>
<path d="M189.248 21.3833C192.392 22.6719 195.235 24.5363 197.611 26.8684C199.987 29.2005 201.848 31.954 203.088 34.9695C203.171 35.1661 203.505 35.0809 203.422 34.8843C202.167 31.8317 200.284 29.0438 197.881 26.6816C195.478 24.3193 192.603 22.4294 189.421 21.1211C189.22 21.0425 189.046 21.3243 189.248 21.4095V21.3833Z" fill="#84C1B9"/>
<path d="M188.539 22.419L188.921 23.7306C188.936 23.7684 188.966 23.7995 189.004 23.8178C189.043 23.8361 189.087 23.8404 189.128 23.8298C189.17 23.8192 189.205 23.7945 189.229 23.7604C189.252 23.7264 189.261 23.6854 189.254 23.6454L188.872 22.3337C188.816 22.1304 188.483 22.2222 188.539 22.4255V22.419Z" fill="#84C1B9"/>
<path d="M189.192 24.0122L190.866 24.091C191.089 24.091 191.089 23.7757 190.866 23.7626L189.192 23.6837C188.97 23.6837 188.97 23.9991 189.192 24.0122Z" fill="#84C1B9"/>
<path d="M190.818 23.9525C190.818 24.6084 190.852 25.2642 190.873 25.9725C190.873 26.016 190.892 26.0577 190.924 26.0884C190.957 26.1192 191.001 26.1365 191.047 26.1365C191.093 26.1365 191.137 26.1192 191.17 26.0884C191.202 26.0577 191.221 26.016 191.221 25.9725C191.221 25.3167 191.186 24.6215 191.165 23.9525C191.165 23.909 191.147 23.8673 191.114 23.8366C191.082 23.8058 191.038 23.7886 190.991 23.7886C190.945 23.7886 190.901 23.8058 190.869 23.8366C190.836 23.8673 190.818 23.909 190.818 23.9525Z" fill="#84C1B9"/>
<path d="M191.214 26.3055L193.361 26.2268C193.583 26.2268 193.583 25.8859 193.361 25.8991L191.214 25.9777C190.991 25.9777 190.991 26.3186 191.214 26.3055Z" fill="#84C1B9"/>
<path d="M193.229 26.3054L193.396 28.3254C193.396 28.5352 193.757 28.5418 193.743 28.3254L193.576 26.3054C193.576 26.0955 193.208 26.0955 193.229 26.3054Z" fill="#84C1B9"/>
<path d="M193.799 28.7567L195.848 29.0192C195.892 29.0346 195.94 29.0336 195.982 29.0165C196.025 28.9994 196.059 28.9675 196.078 28.9273C196.084 28.9062 196.086 28.8841 196.083 28.8624C196.08 28.8406 196.072 28.8196 196.061 28.8007C196.049 28.7817 196.033 28.7651 196.015 28.752C195.996 28.7388 195.975 28.7292 195.953 28.7239L193.903 28.4615C193.86 28.455 193.817 28.4636 193.781 28.4855C193.745 28.5075 193.719 28.5414 193.707 28.5805C193.696 28.6196 193.701 28.6613 193.72 28.6975C193.74 28.7337 193.772 28.7618 193.813 28.7764L193.799 28.7567Z" fill="#84C1B9"/>
<path d="M195.973 28.9924C195.807 29.8188 195.64 30.6386 195.48 31.4649C195.438 31.6748 195.772 31.7601 195.813 31.5502C195.98 30.7304 196.14 29.904 196.307 29.0776C196.348 28.8743 196.015 28.7825 195.973 28.9924Z" fill="#84C1B9"/>
<path d="M195.89 31.7536H198.217C198.263 31.7536 198.308 31.7362 198.34 31.7053C198.373 31.6744 198.391 31.6324 198.391 31.5887C198.391 31.545 198.373 31.503 198.34 31.4721C198.308 31.4412 198.263 31.4238 198.217 31.4238H195.89C195.844 31.4238 195.8 31.4412 195.767 31.4721C195.734 31.503 195.716 31.545 195.716 31.5887C195.716 31.6324 195.734 31.6744 195.767 31.7053C195.8 31.7362 195.844 31.7536 195.89 31.7536Z" fill="#84C1B9"/>
<path d="M198.113 31.7188C197.932 32.5973 197.752 33.4757 197.564 34.3411C197.523 34.5443 197.856 34.6361 197.898 34.4263C198.085 33.5479 198.266 32.6694 198.454 31.804C198.495 31.5943 198.162 31.509 198.113 31.7188Z" fill="#84C1B9"/>
<path d="M197.801 34.4915L201.427 35.0227C201.65 35.0227 201.74 34.7407 201.518 34.7079L197.891 34.1701C197.669 34.1373 197.578 34.4521 197.801 34.4849V34.4915Z" fill="#84C1B9"/>
<path d="M201.149 34.8254C200.962 35.7039 200.767 36.5823 200.58 37.4476C200.531 37.6509 200.872 37.7361 200.913 37.5329C201.101 36.6544 201.295 35.776 201.483 34.9106C201.532 34.7074 201.198 34.6222 201.149 34.8254Z" fill="#84C1B9"/>
<path d="M200.878 37.4475L203.018 37.7232C203.062 37.7334 203.108 37.7275 203.146 37.7067C203.185 37.686 203.214 37.6519 203.227 37.6116C203.233 37.5909 203.235 37.5692 203.233 37.5478C203.23 37.5264 203.223 37.5056 203.212 37.4867C203.202 37.4678 203.187 37.4511 203.169 37.4376C203.151 37.4242 203.131 37.4141 203.109 37.4081L200.941 37.1127C200.897 37.1022 200.85 37.1079 200.81 37.1286C200.77 37.1493 200.74 37.1834 200.726 37.2243C200.719 37.2454 200.718 37.2675 200.721 37.2893C200.723 37.311 200.731 37.332 200.743 37.351C200.754 37.3699 200.77 37.3865 200.788 37.3997C200.807 37.4129 200.828 37.4224 200.851 37.4278L200.878 37.4475Z" fill="#84C1B9"/>
<g clip-path="url(#clip0_1_4)">
<path d="M406.234 42.3241C410.872 38.7905 424.399 33.4239 436.347 34.6827C442.155 35.2901 445.711 34.1085 447.831 32.7503C445.708 32.3494 443.61 31.8259 441.548 31.1823C428.021 26.5997 445.512 18.1413 435.717 13.5145C424.322 8.1148 399.101 14.6188 388.357 23.8171C385.044 26.666 379.202 32.4853 378.021 41.7609C376.718 51.9641 381.93 63.9119 394.783 67.7988H394.849C389.88 57.2534 402.104 45.4712 406.234 42.3241Z" fill="#CE7259"/>
<path d="M447.831 32.7504C445.711 34.1086 442.155 35.2901 436.347 34.6828C424.399 33.424 410.872 38.7906 406.234 42.3241C402.443 45.3105 399.207 48.9397 396.672 53.0462C397.776 52.7923 399.046 53.3996 400.05 55.0449C401.055 56.6902 403.948 56.3479 404.07 57.684C404.236 59.5612 403.871 61.4164 401.983 62.1672C401.482 62.3508 400.945 62.4151 400.415 62.355C399.119 62.2482 397.824 62.5786 396.738 63.2936C396.473 63.4084 396.187 63.4677 395.899 63.4677C395.61 63.4677 395.324 63.4084 395.059 63.2936C394.462 62.9401 393.988 62.4121 393.701 61.7808C393.553 63.8408 393.934 65.9045 394.805 67.7768C417.442 74.6009 453.948 66.1094 455.406 43.7375C456.013 34.9589 452.866 33.8215 447.831 32.7504ZM442.862 43.2737C442.553 46.1227 438.997 48.0661 434.922 47.6244C430.848 47.1827 427.8 44.5105 428.109 41.6726C428.418 38.8347 431.974 36.8802 436.049 37.3219C440.123 37.7636 443.171 40.4359 442.862 43.2737Z" fill="#C6664F"/>
<path d="M386.954 43.6602C388.38 43.7469 389.761 44.1871 390.974 44.9411C394.717 46.5091 393.591 43.0639 393.403 41.8161C393.182 40.3475 394.353 38.6801 395.28 37.2335C394.302 36.6949 393.288 36.2262 392.244 35.8311C389.726 34.4398 387.694 36.3832 386.59 38.5475C385.986 39.5573 385.284 40.5043 384.492 41.3744C384.491 41.69 384.555 42.0024 384.681 42.2919C384.807 42.5814 384.991 42.8418 385.223 43.0565C385.454 43.2712 385.727 43.4357 386.025 43.5396C386.323 43.6435 386.64 43.6846 386.954 43.6602Z" fill="#FFB600"/>
<path d="M383.034 44.6429C383.034 46.3766 384.978 46.7631 386.236 46.5533C388.025 46.233 389.174 46.752 390.819 47.3042C391.558 47.5711 392.352 47.6434 393.127 47.514C394.353 47.3152 394.651 45.8245 394.772 44.8307C394.894 43.8368 394.861 43.086 394.982 42.2136C395.148 41.1094 395.943 40.1045 396.086 38.9009C396.121 38.5738 396.069 38.2432 395.936 37.9426C395.802 37.642 395.591 37.3821 395.324 37.1893C394.397 38.6359 393.226 40.3033 393.447 41.7719C393.635 43.0197 394.761 46.4649 391.018 44.8969C389.805 44.1429 388.424 43.7027 386.998 43.616C386.684 43.6404 386.367 43.5994 386.069 43.4955C385.771 43.3916 385.498 43.2271 385.267 43.0123C385.035 42.7976 384.851 42.5373 384.725 42.2478C384.599 41.9583 384.535 41.6459 384.536 41.3302C383.659 42.2222 383.127 43.3959 383.034 44.6429Z" fill="#FF9100"/>
<path d="M399.465 29.5481C400.14 29.899 400.903 30.0451 401.661 29.9686C402.418 29.8921 403.136 29.5963 403.728 29.1174C404.832 28.3776 407.835 27.8475 408.432 26.9642C408.808 26.3252 409.232 25.7161 409.701 25.1422C409.501 24.3305 409.14 23.5673 408.639 22.8977C408.138 22.2282 407.508 21.6659 406.786 21.2442C406.009 20.9577 405.159 20.9378 404.369 21.1877C403.579 21.4376 402.895 21.9431 402.425 22.6245C401.32 24.0048 400.68 24.833 398.769 25.2747C397.794 25.427 396.88 25.8475 396.13 26.4893C395.969 26.6708 395.825 26.8667 395.7 27.0746C395.799 28.2451 398.604 29.1395 399.465 29.5481Z" fill="#D34040"/>
<path d="M396.384 30.0781C397.381 30.6487 398.304 31.3384 399.134 32.132C399.676 32.7619 400.351 33.2635 401.111 33.6006C402.988 34.3515 404.357 32.397 405.439 31.2265C406.786 29.7579 409.856 29.4928 409.944 26.9973C409.957 26.3642 409.863 25.7335 409.668 25.1311C409.199 25.705 408.775 26.3142 408.398 26.9531C407.802 27.8365 404.777 28.3665 403.694 29.1064C403.107 29.5803 402.396 29.8742 401.645 29.9526C400.895 30.0309 400.138 29.8905 399.465 29.5481C398.637 29.1505 395.832 28.2561 395.7 27.0746C395.524 27.3092 395.402 27.5792 395.341 27.8658C395.28 28.1525 395.282 28.449 395.347 28.7347C395.412 29.0205 395.539 29.2886 395.718 29.5206C395.897 29.7525 396.124 29.9428 396.384 30.0781Z" fill="#C13030"/>
<path d="M418.315 21.4982C419.01 23.0773 417.961 25.4955 420.081 26.0587C421.983 26.5324 423.986 26.3893 425.801 25.6501C427.458 24.7667 425.868 22.5693 426.055 21.0234C426.478 19.782 427.172 18.6504 428.087 17.7107C427.704 17.5446 427.298 17.4367 426.883 17.3904C425.031 17.3278 423.178 17.4835 421.362 17.8542C419.739 18.053 417.641 16.75 416.393 18.5168C416.227 18.7382 416.111 18.9933 416.054 19.2641C415.997 19.535 416 19.8151 416.062 20.0848C416.89 20.5817 418.127 21.0565 418.315 21.4982Z" fill="#41A4D6"/>
<path d="M417.398 22.8564C415.609 25.8268 417.752 26.6439 420.159 26.8758C422.754 27.1188 427.127 28.7309 428.441 26.4231C429.401 24.7226 426.972 22.7791 427.888 21.3215C428.231 20.7694 428.882 20.4823 429.059 19.6099C429.16 19.2337 429.116 18.8334 428.936 18.4879C428.756 18.1424 428.453 17.8769 428.087 17.7438C427.172 18.6835 426.478 19.8151 426.055 21.0565C425.868 22.6024 427.458 24.7999 425.801 25.6832C424.145 26.5666 422.102 26.1691 420.545 25.7605C418.425 25.2084 419.021 22.4478 419.441 20.7363C419.861 19.0247 416.923 20.6148 416.051 20.151C416.102 20.3284 416.188 20.4937 416.305 20.6369C416.802 21.2332 417.994 21.8184 417.398 22.8564Z" fill="#2090BC"/>
<path d="M394.386 60.301C395.921 62.1009 396.594 60.6212 397.831 60.301C399.609 59.8041 401.619 60.7427 401.817 57.3858C401.827 57.0503 401.891 56.7186 402.005 56.403C401.221 56.2048 400.53 55.7403 400.05 55.089C399.046 53.4437 397.787 52.8805 396.672 53.0903C396.262 53.1747 395.881 53.3651 395.567 53.6424C394.529 54.5148 393.878 55.5307 392.365 55.6521C391.537 55.6336 390.711 55.7568 389.925 56.0165C389.613 56.1798 389.375 56.4558 389.261 56.7883C389.146 57.1208 389.162 57.4846 389.306 57.8054C390.333 58.1477 392.045 58.1367 392.707 58.4348C393.558 58.7771 393.823 59.6495 394.386 60.301Z" fill="#7BB23F"/>
<path d="M393.591 61.5709L393.701 61.7586C393.988 62.39 394.462 62.918 395.059 63.2714C395.324 63.3863 395.61 63.4456 395.899 63.4456C396.187 63.4456 396.473 63.3863 396.738 63.2714C397.824 62.5564 399.119 62.226 400.415 62.3328C400.945 62.3929 401.482 62.3286 401.983 62.1451C403.871 61.3942 404.191 59.5391 404.07 57.6619C404.004 56.8889 403.021 56.7012 402.005 56.3368C401.891 56.6524 401.827 56.9841 401.817 57.3196C401.618 60.6323 399.609 59.7378 397.831 60.2348C396.561 60.5991 395.921 62.0788 394.386 60.2348C393.823 59.5832 393.558 58.7109 392.718 58.3244C392.056 58.0263 390.344 58.0373 389.317 57.695C389.427 58.076 389.656 58.4123 389.969 58.6557C391.316 59.6495 392.774 60.0581 393.591 61.5709Z" fill="#6A9B2C"/>
<path d="M420.832 57.2203C422.246 56.5356 422.864 57.3859 424.344 55.9283C424.863 55.4204 425.382 54.8241 425.956 54.3382C425.801 53.4879 425.393 52.7923 424.443 52.8475C418.281 53.1346 419.165 50.2194 416.625 51.1138C414.306 51.931 416.128 55.0118 414.836 55.6412C414.163 55.9614 412.981 56.0498 412.23 56.4804C412.937 57.5847 415.035 59.2521 415.543 60.0471C416.978 62.2004 419.617 57.8055 420.832 57.2203Z" fill="#3A3A3A"/>
<path d="M411.667 58.1257C411.727 58.3776 411.857 58.6073 412.042 58.7882C413.097 59.517 413.921 60.5324 414.417 61.7144C414.77 62.653 416.007 63.1058 416.868 63.3487C418.999 63.956 420.302 62.1561 420.744 60.3893C421.362 57.8717 425.569 59.1857 425.967 56.2816C426.066 55.6376 426.066 54.9822 425.967 54.3381C425.393 54.813 424.863 55.4424 424.355 55.9282C422.875 57.3858 422.257 56.5356 420.843 57.2202C419.629 57.8054 416.989 62.2003 415.576 60.047C415.046 59.252 412.948 57.6067 412.263 56.4804C411.968 56.6216 411.74 56.8732 411.628 57.1809C411.517 57.4887 411.531 57.828 411.667 58.1257Z" fill="#262626"/>
<path d="M407.714 19.7314C407.663 20.2166 407.773 20.7051 408.029 21.1206C408.285 21.5362 408.671 21.8553 409.127 22.0283C410.132 22.3706 411.722 21.9068 411.523 20.7363C411.137 18.3953 407.968 18.8591 407.714 19.7314Z" fill="#D34040"/>
<path d="M432.913 19.6651C432.537 19.6381 432.16 19.7014 431.813 19.8498C431.467 19.9982 431.161 20.2273 430.921 20.518C430.681 20.8087 430.514 21.1526 430.434 21.521C430.354 21.8894 430.363 22.2715 430.461 22.6355C430.562 22.9859 430.762 23.2999 431.036 23.5406C431.31 23.7813 431.647 23.9385 432.007 23.9937C432.648 24.071 432.968 23.5631 433.211 23.0551C433.328 22.7326 433.496 22.4307 433.708 22.1607C433.986 21.9046 434.179 21.5693 434.26 21.2C434.27 20.8215 434.137 20.453 433.887 20.1683C433.637 19.8837 433.289 19.704 432.913 19.6651Z" fill="#41A4D6"/>
<path d="M465.068 21.4099C464.957 21.1117 465.068 19.3118 464.096 19.8419C462.142 20.8909 461.777 19.1351 460.96 18.053C460.505 18.9033 460.23 19.8383 460.152 20.7996C460.074 21.7609 460.195 22.7279 460.507 23.6404C461.302 26.4231 460.894 27.439 464.46 23.8171C464.932 23.3402 465.337 22.8016 465.664 22.216C465.393 22.0092 465.186 21.7296 465.068 21.4099Z" fill="#9B3723"/>
<path d="M465.72 11.9796C465.532 12.9465 465.14 13.8618 464.568 14.6639C463.997 15.4659 463.26 16.1358 462.407 16.6285C461.833 16.9886 461.349 17.4759 460.993 18.0529C461.811 19.1572 462.175 20.8908 464.129 19.8418C465.123 19.3118 464.991 21.1117 465.101 21.4098C465.22 21.7296 465.426 22.0091 465.697 22.2159C468.292 17.7106 465.72 11.9796 465.72 11.9796Z" fill="#41A4D6"/>
<path d="M459.679 31.116L457.846 30.4756C457.846 30.4756 449.542 50.2856 446.517 59.3624C443.974 67.6236 441.935 76.0312 440.41 84.5391C440.235 85.2311 440.235 85.9561 440.41 86.6482L459.679 31.116Z" fill="#A85439"/>
<path d="M459.679 31.1161L461.523 31.7455C461.523 31.7455 455.781 52.4499 452.557 61.4495C449.439 69.5147 445.837 77.3839 441.768 85.0139C441.463 85.656 441.008 86.2162 440.443 86.6482L459.679 31.1161Z" fill="#9B3723"/>
<path d="M458.288 35.1134L456.212 34.3956L460.529 23.7618L462.042 24.2919L458.288 35.1134Z" fill="#E0E0E0"/>
<path d="M458.288 35.1134L460.364 35.8311L463.555 24.8109L462.042 24.2919L458.288 35.1134Z" fill="#C9C9C9"/>
<path d="M449.553 12.1343C449.388 11.8582 449.233 10.0583 448.339 10.743C446.572 12.0901 445.943 10.4117 444.949 9.48413C444.646 10.387 444.53 11.3421 444.608 12.2912C444.686 13.2404 444.956 14.1638 445.401 15.0053C446.638 17.6334 446.406 18.6935 449.333 14.5526C449.718 14.005 450.033 13.4115 450.271 12.7858C449.976 12.6398 449.727 12.4141 449.553 12.1343Z" fill="#9B3723"/>
<path d="M448.648 2.71509C448.62 3.70231 448.379 4.67189 447.943 5.55791C447.507 6.44392 446.885 7.22559 446.119 7.84979C445.615 8.3029 445.215 8.86064 444.949 9.48407C445.943 10.4116 446.572 12.0901 448.339 10.7429C449.233 10.0583 449.443 11.8471 449.554 12.1342C449.719 12.4345 449.969 12.68 450.271 12.8409C452.137 7.96022 448.648 2.71509 448.648 2.71509Z" fill="#FFB600"/>
<path d="M445.843 22.5803L443.933 22.238C443.933 22.238 438.92 43.1302 437.385 52.5714C436.202 61.1328 435.538 69.758 435.397 78.3995C435.353 79.1117 435.482 79.824 435.773 80.4755L445.843 22.5803Z" fill="#A85439"/>
<path d="M445.843 22.5803L447.764 22.9116C447.764 22.9116 445.423 44.2565 443.679 53.6646C441.899 62.1248 439.609 70.4697 436.821 78.6535C436.624 79.3364 436.264 79.9614 435.772 80.4755L445.843 22.5803Z" fill="#9B3723"/>
<path d="M445.059 26.7432L442.895 26.3678L445.446 15.1819L447.025 15.4579L445.059 26.7432Z" fill="#E0E0E0"/>
<path d="M445.059 26.7433L447.223 27.1188L448.604 15.7341L447.025 15.458L445.059 26.7433Z" fill="#C9C9C9"/>
</g>
<g clip-path="url(#clip1_1_4)">
<path d="M289.071 7.45557V54.2879L313.849 68.5964L315.711 69.6724L315.905 69.7791L316.05 69.8566L316.302 70.002C316.395 70.0582 316.492 70.1068 316.593 70.1474C317.213 70.496 317.908 70.6921 318.619 70.7194C319.148 70.7142 319.666 70.5704 320.122 70.3025L325.192 67.3943C325.361 67.3173 325.508 67.1971 325.617 67.0457C325.726 66.8943 325.793 66.717 325.812 66.5315V19.6605L318.706 23.6157L318.154 23.7223L316.593 22.8498L316.05 22.5493L289.071 7.45557Z" fill="url(#paint0_linear_1_4)"/>
<path d="M316.089 18.5747V69.8566L316.341 70.002C316.434 70.0582 316.531 70.1068 316.632 70.1474V18.342L316.089 18.5747Z" fill="url(#paint1_linear_1_4)"/>
<path d="M299.609 6.96118L296.943 3.53916L296.671 3.08353L297.302 2.72485L325.201 18.8559C325.368 18.9342 325.509 19.0582 325.607 19.2136C325.706 19.3689 325.758 19.5492 325.758 19.7332C325.758 19.9172 325.706 20.0974 325.607 20.2528C325.509 20.4081 325.368 20.5322 325.201 20.6105L320.131 23.5187C318.997 24.1682 317.776 24.1004 315.914 22.9953L313.869 21.7932L299.609 6.96118Z" fill="#FFD507"/>
<path d="M296.671 3.0835L323.524 18.5747V18.8849L316.845 22.7432L294.015 7.3586L296.671 3.79117V3.0835Z" fill="url(#paint2_linear_1_4)"/>
<path d="M315.517 21.9872L316.845 22.7433L323.524 18.885L322.196 18.1289L315.517 21.9872Z" fill="#D8D8D8"/>
<path d="M322.187 18.1192L322.158 18.1386L319.298 19.7963L317.96 20.5621L317.621 20.756L316.428 21.454L315.517 21.9774L315.507 21.9871L290.865 7.76585L290.254 7.40717L290.225 7.38778L290.186 7.3587L290.225 7.349L291.107 6.83522L292.639 5.95305L293.967 5.17752L296.875 3.51983V3.51013L301.16 5.97244L302.672 6.8546L321.954 17.9931L322.187 18.1192Z" fill="#E9E9E9"/>
<g style="mix-blend-mode:multiply" opacity="0.1">
<path d="M322.187 18.1288L319.327 19.7865L293.967 5.17747L296.875 3.51978L300.918 5.84636L302.44 6.72853L302.672 6.85455L322.187 18.1288Z" fill="#DCDBE4"/>
</g>
<g style="mix-blend-mode:multiply" opacity="0.1">
<path d="M291.107 6.82547L292.639 5.953L292.649 5.9627L292.697 5.98209L317.96 20.562L317.63 20.7559L316.428 21.4442L291.185 6.86425L291.117 6.83517L291.107 6.82547Z" fill="#DCDBE4"/>
</g>
<path d="M289.061 7.4653L313.859 21.8029L314.528 21.4151L289.721 7.09692L289.061 7.4653Z" fill="#FFD507"/>
<g style="mix-blend-mode:overlay" opacity="0.5">
<path d="M302.052 15.0654C296.41 11.7888 291.388 8.8418 291.388 8.8418L302.052 15.0654Z" fill="#C1C1C1"/>
</g>
<g style="mix-blend-mode:overlay" opacity="0.5">
<path d="M316.089 23.2862L302.081 15.0656C307.345 18.1289 313.19 21.4637 316.089 22.9469V23.2862Z" fill="#C1C1C1"/>
</g>
<g style="mix-blend-mode:overlay" opacity="0.5">
<path d="M316.632 23.1892C316.984 23.3762 317.35 23.535 317.727 23.6642C318.354 23.8721 319.029 23.889 319.666 23.7127C319.406 23.796 319.156 23.9065 318.92 24.0423C318.687 24.2447 318.505 24.4998 318.39 24.7864C318.276 25.0731 318.231 25.383 318.26 25.6903C318.26 26.747 318.26 67.2199 318.26 67.2199C318.26 67.2199 317.834 27.3383 317.805 26.3107C317.838 25.6538 317.749 24.9964 317.543 24.3719C317.4 24.0484 317.135 23.7943 316.806 23.6642L316.642 23.5673L316.632 23.1892Z" fill="#C1C1C1"/>
</g>
<path d="M280.686 14.8329V59.9299L304.543 73.6956L306.337 74.7425L306.521 74.8395L306.657 74.917L306.899 75.0625L307.19 75.1982C307.784 75.5305 308.448 75.7167 309.129 75.7411C309.637 75.7412 310.136 75.6038 310.573 75.3436L315.42 72.542C315.584 72.4664 315.725 72.35 315.83 72.204C315.935 72.0579 316.001 71.8872 316.021 71.7083V26.5918L309.177 30.4016L308.644 30.5083L307.151 29.6649L306.618 29.3741L280.686 14.8329Z" fill="url(#paint3_linear_1_4)"/>
<path d="M306.656 25.5545V74.9169L306.899 75.0623L307.19 75.1981V25.3606L306.656 25.5545Z" fill="url(#paint4_linear_1_4)"/>
<path d="M290.807 14.3675L288.247 11.0715L287.976 10.5868L288.587 10.2378L315.439 25.7484C315.615 25.8088 315.767 25.9225 315.875 26.0737C315.983 26.2249 316.041 26.406 316.041 26.5918C316.041 26.7775 315.983 26.9586 315.875 27.1098C315.767 27.261 315.615 27.3748 315.439 27.4352L310.592 30.2465C309.497 30.8669 308.324 30.8087 306.53 29.7424L304.592 28.5888L290.807 14.3675Z" fill="#2691C1"/>
<path d="M287.995 10.6353L313.85 25.5448V25.8453L307.422 29.5582L285.446 14.7456L287.995 11.3235V10.6353Z" fill="url(#paint5_linear_1_4)"/>
<path d="M306.143 28.8311L307.422 29.5582L313.85 25.8453L312.57 25.1183L306.143 28.8311Z" fill="#D8D8D8"/>
<path d="M312.57 25.1183L312.531 25.128L309.788 26.7276L308.498 27.4643L308.178 27.6485L307.015 28.3174L306.143 28.8215L306.133 28.8312L282.411 15.1334L281.82 14.7941L281.801 14.7747L281.762 14.7553L281.801 14.7359L282.644 14.2415L284.118 13.3982L285.397 12.6517L288.189 11.0522L288.199 11.0425L292.328 13.4175L293.783 14.2609L312.337 24.9923L312.57 25.1183Z" fill="#E9E9E9"/>
<g style="mix-blend-mode:multiply" opacity="0.1">
<path d="M312.57 25.1183L309.807 26.7081L285.397 12.6517L288.189 11.0521L292.096 13.2915L293.55 14.1349L293.783 14.2609L312.57 25.1183Z" fill="#DCDBE4"/>
</g>
<g style="mix-blend-mode:multiply" opacity="0.1">
<path d="M282.644 14.2318L284.117 13.3981H284.127L284.176 13.4272L308.498 27.4642L308.178 27.6581L307.025 28.3173L282.712 14.2705L282.654 14.2415L282.644 14.2318Z" fill="#DCDBE4"/>
</g>
<path d="M280.676 14.8522L304.553 28.6469L305.193 28.2786L281.316 14.4935L280.676 14.8522Z" fill="#2691C1"/>
<path d="M309.39 36.1599C309.814 36.1233 310.224 35.9942 310.592 35.7818L312.163 34.8706L315.459 32.9318C315.606 32.8619 315.736 32.7606 315.84 32.6349C315.944 32.5093 316.019 32.3625 316.06 32.2047V37.614C316.04 37.7905 315.975 37.959 315.872 38.1032C315.768 38.2475 315.629 38.3628 315.469 38.438L310.622 41.2396C310.094 41.5248 309.5 41.6627 308.902 41.6388C308.303 41.615 307.722 41.4302 307.219 41.1039V35.5977C307.874 35.9882 308.628 36.1832 309.39 36.1599Z" fill="url(#paint6_linear_1_4)"/>
<path d="M307.19 67.0841V69.4398C307.858 69.8222 308.622 70.0039 309.39 69.9633C309.816 69.9293 310.227 69.7965 310.592 69.5755L312.163 68.674L315.459 66.7351C315.606 66.6652 315.736 66.5639 315.84 66.4383C315.944 66.3127 316.019 66.1658 316.06 66.0081V63.6427C316.021 63.8025 315.947 63.9516 315.843 64.079C315.739 64.2065 315.608 64.3091 315.459 64.3795L312.163 66.3183L310.592 67.2198C310.227 67.4408 309.816 67.5736 309.39 67.6076C308.623 67.6383 307.861 67.4572 307.19 67.0841Z" fill="url(#paint7_linear_1_4)"/>
<g style="mix-blend-mode:overlay" opacity="0.5">
<path d="M293.182 22.2198C287.753 19.0595 282.964 16.2191 282.964 16.2191L293.182 22.2198Z" fill="#C1C1C1"/>
</g>
<g style="mix-blend-mode:overlay" opacity="0.5">
<path d="M306.666 30.0817L293.182 22.2197C298.252 25.128 303.845 28.3755 306.666 29.8005V30.0817Z" fill="#C1C1C1"/>
</g>
<g style="mix-blend-mode:overlay" opacity="0.5">
<path d="M307.219 30.0332C307.56 30.2092 307.913 30.3614 308.276 30.4888C308.87 30.665 309.503 30.665 310.098 30.4888C309.853 30.5738 309.616 30.6809 309.39 30.8087C309.169 31.007 308.996 31.2535 308.885 31.5291C308.774 31.8048 308.728 32.1023 308.751 32.3986C308.702 33.4165 308.751 72.3771 308.751 72.3771C308.751 72.3771 308.343 33.9787 308.324 32.9996C308.354 32.3651 308.266 31.7304 308.062 31.1286C307.996 30.9764 307.9 30.8389 307.78 30.724C307.661 30.6092 307.519 30.5193 307.364 30.4597L307.199 30.3628L307.219 30.0332Z" fill="#C1C1C1"/>
</g>
<path d="M273.192 24.8564V66.9677L295.489 79.8221L297.156 80.7915L297.331 80.8885L297.457 80.966L297.689 81.092C297.772 81.1448 297.86 81.1903 297.951 81.2278C298.511 81.5358 299.135 81.7085 299.774 81.7319C300.248 81.7315 300.713 81.6043 301.121 81.3635L305.677 78.7364C305.827 78.6664 305.956 78.5593 306.053 78.4253C306.15 78.2913 306.211 78.1347 306.23 77.9705V35.7914L299.832 39.3492L299.347 39.4461L297.941 38.6609L297.447 38.3894L273.192 24.8564Z" fill="url(#paint8_linear_1_4)"/>
<path d="M297.447 34.8221V80.9661L297.68 81.0921C297.763 81.1449 297.85 81.1903 297.941 81.2278V34.696L297.447 34.8221Z" fill="url(#paint9_linear_1_4)"/>
<path d="M282.644 24.4203L280.221 21.3376L279.988 20.9207L280.55 20.6008L305.629 35.142C305.791 35.1998 305.931 35.3063 306.03 35.4469C306.129 35.5874 306.183 35.7552 306.183 35.9272C306.183 36.0992 306.129 36.267 306.03 36.4076C305.931 36.5482 305.791 36.6547 305.629 36.7125L301.073 39.3396C300.055 39.9212 298.95 39.8727 297.282 38.8742L295.44 37.7982L282.644 24.4203Z" fill="#96C126"/>
<path d="M280.027 20.9304L304.165 34.8609V35.142L298.155 38.6028L277.642 24.7693L280.027 21.5702V20.9304Z" fill="url(#paint10_linear_1_4)"/>
<path d="M296.972 37.9242L298.155 38.6028L304.165 35.142L302.973 34.4537L296.972 37.9242Z" fill="#D8D8D8"/>
<path d="M302.973 34.4538L302.934 34.4732L300.365 35.9564L299.163 36.6446L298.862 36.8288L297.786 37.4493L296.972 37.9146L296.962 37.9243L274.811 25.1377L274.259 24.8178L274.239 24.7984L274.2 24.779L274.239 24.7597L275.024 24.304L276.401 23.5188L277.593 22.8208H277.603L280.201 21.3182H280.211L284.069 23.5285L285.426 24.3234L302.759 34.3374L302.973 34.4538Z" fill="#E9E9E9"/>
<g style="mix-blend-mode:multiply" opacity="0.1">
<path d="M302.973 34.4538L300.394 35.9467L277.603 22.8208L280.201 21.3182L283.846 23.4122L285.213 24.2071L285.426 24.3234L302.973 34.4538Z" fill="#DCDBE4"/>
</g>
<g style="mix-blend-mode:multiply" opacity="0.1">
<path d="M275.025 24.2943L276.401 23.509V23.5187L276.459 23.5381L299.173 36.6446L298.872 36.8288L297.786 37.4395L275.092 24.333L275.034 24.304L275.025 24.2943Z" fill="#DCDBE4"/>
</g>
<path d="M273.182 24.8759L295.479 37.7594L296.08 37.4104L273.783 24.5366L273.182 24.8759Z" fill="#96C126"/>
<path d="M300.006 44.778C300.399 44.7401 300.78 44.6177 301.121 44.4193L302.585 43.5663L305.668 41.7922C305.804 41.7252 305.925 41.6301 306.022 41.5131C306.118 41.3962 306.189 41.26 306.23 41.1136V46.1643C306.211 46.3284 306.15 46.485 306.053 46.619C305.957 46.7531 305.827 46.8602 305.677 46.9301L301.131 49.5572C300.637 49.8209 300.082 49.9473 299.522 49.9235C298.963 49.8996 298.421 49.7263 297.951 49.4215V44.2836C298.576 44.639 299.288 44.8104 300.006 44.778Z" fill="url(#paint11_linear_1_4)"/>
<path d="M297.942 51.622V53.8226C298.569 54.1797 299.285 54.3512 300.006 54.317C300.4 54.2838 300.782 54.1611 301.121 53.9583L302.585 53.1149L305.668 51.3409C305.805 51.2733 305.927 51.1769 306.024 51.0581C306.121 50.9393 306.191 50.801 306.23 50.6526V48.452C306.192 48.5995 306.122 48.7367 306.025 48.854C305.927 48.9713 305.806 49.0657 305.668 49.1306L302.585 50.9143L301.121 51.7577C300.782 51.9606 300.4 52.0833 300.006 52.1164C299.285 52.1506 298.569 51.9791 297.942 51.622Z" fill="url(#paint12_linear_1_4)"/>
<path d="M297.942 73.647V75.8476C298.569 76.2047 299.285 76.3762 300.006 76.342C300.4 76.3088 300.782 76.1862 301.121 75.9833L302.585 75.1399L305.668 73.3562C305.806 73.2913 305.927 73.1969 306.025 73.0796C306.122 72.9623 306.192 72.8251 306.23 72.6776V70.4771C306.19 70.6234 306.118 70.7596 306.022 70.8765C305.925 70.9935 305.804 71.0886 305.668 71.1556L302.585 72.9297L301.121 73.7828C300.78 73.9812 300.399 74.1035 300.006 74.1414C299.285 74.1756 298.569 74.0042 297.942 73.647Z" fill="url(#paint13_linear_1_4)"/>
<g style="mix-blend-mode:overlay" opacity="0.5">
<path d="M284.864 31.7006C279.794 28.7923 275.325 26.1071 275.325 26.1071L284.864 31.7006Z" fill="#C1C1C1"/>
</g>
<g style="mix-blend-mode:overlay" opacity="0.5">
<path d="M297.457 39.0875L284.854 31.7006C289.585 34.4537 294.839 37.4589 297.457 38.787V39.0875Z" fill="#C1C1C1"/>
</g>
<g style="mix-blend-mode:overlay" opacity="0.5">
<path d="M297.971 39.0487C298.283 39.2135 298.607 39.3561 298.94 39.4752C299.497 39.6401 300.089 39.6401 300.646 39.4752C300.414 39.5498 300.19 39.6472 299.977 39.7661C299.769 39.9514 299.607 40.1829 299.504 40.4422C299.401 40.7015 299.361 40.9812 299.386 41.259C299.386 42.2284 299.386 78.591 299.386 78.591C299.386 78.591 299.008 42.7228 298.988 41.8115C299.007 41.2235 298.925 40.6366 298.746 40.0763C298.683 39.9329 298.593 39.8033 298.48 39.6951C298.366 39.587 298.233 39.5023 298.087 39.4462L297.932 39.3492L297.971 39.0487Z" fill="#C1C1C1"/>
</g>
<path d="M266.193 32.8154V72.6292L287.278 84.7953L288.858 85.7163L289.023 85.8035L289.139 85.8714L289.362 85.9974C289.439 86.047 289.52 86.0891 289.604 86.1234C290.132 86.421 290.724 86.5872 291.33 86.6081C291.781 86.6061 292.223 86.4822 292.61 86.2494L296.914 83.7677C297.057 83.7035 297.182 83.6024 297.273 83.4747C297.365 83.347 297.422 83.1973 297.437 83.0407V43.1978L291.388 46.5714L290.923 46.6586L289.595 45.9122L289.129 45.6601L266.193 32.8154Z" fill="url(#paint14_linear_1_4)"/>
<path d="M289.139 42.2865V85.9101L289.362 86.0361C289.439 86.0857 289.52 86.1279 289.604 86.1622V42.1121L289.139 42.2865Z" fill="#8B4D00"/>
<path d="M275.141 32.3986L272.872 29.4903L272.64 29.1026L273.183 28.7924L296.904 42.5192C297.057 42.5752 297.189 42.6769 297.283 42.8104C297.376 42.9439 297.426 43.1028 297.426 43.2657C297.426 43.4286 297.376 43.5875 297.283 43.721C297.189 43.8545 297.057 43.9561 296.904 44.0121L292.61 46.4551C291.64 47.0076 290.603 46.9591 289.023 46.0091L287.278 45.0397L275.141 32.3986Z" fill="#C17619"/>
<path d="M272.659 29.1025L295.498 42.2769V42.5483L289.818 45.8249L270.4 32.7378L272.659 29.7036V29.1025Z" fill="url(#paint15_linear_1_4)"/>
<path d="M288.683 45.1754L289.818 45.8249L295.498 42.5483L294.374 41.8988L288.683 45.1754Z" fill="#D8D8D8"/>
<path d="M294.364 41.8987L294.335 41.9084L291.902 43.3238L290.768 43.9733L290.487 44.1381L289.459 44.7294L288.693 45.1754L288.683 45.185L267.715 33.0771L267.201 32.7766L267.172 32.7572L267.143 32.7475L267.172 32.7281L267.928 32.2919L269.227 31.5454L270.352 30.8862H270.362L272.824 29.4709L272.834 29.4612L276.479 31.5648L277.768 32.3113L294.161 41.7824L294.364 41.8987Z" fill="#E9E9E9"/>
<g style="mix-blend-mode:multiply" opacity="0.1">
<path d="M294.364 41.8988L291.921 43.3045L270.361 30.8863L272.824 29.4709L276.265 31.4485L277.564 32.195L277.768 32.3113L294.364 41.8988Z" fill="#DCDBE4"/>
</g>
<g style="mix-blend-mode:multiply" opacity="0.1">
<path d="M267.919 32.2822L269.227 31.5358V31.5455L269.276 31.5648L290.768 43.9733L290.487 44.1381L289.459 44.7198L267.987 32.321L267.928 32.2919L267.919 32.2822Z" fill="#DCDBE4"/>
</g>
<path d="M266.183 32.8348L287.278 45.0203L287.85 44.6907L266.746 32.5149L266.183 32.8348Z" fill="#C17619"/>
<path d="M291.563 51.6608C291.935 51.6267 292.296 51.5108 292.619 51.3215L294.006 50.5169L296.914 48.8398C297.044 48.7774 297.158 48.6866 297.249 48.5743C297.34 48.4619 297.404 48.3307 297.437 48.1903V52.9695C297.423 53.1265 297.369 53.2772 297.279 53.4064C297.189 53.5357 297.066 53.6391 296.923 53.7063L292.619 56.1492C292.153 56.4023 291.626 56.525 291.096 56.5045C290.565 56.4841 290.05 56.3211 289.604 56.0329V51.1858C290.198 51.528 290.878 51.6928 291.563 51.6608Z" fill="url(#paint16_linear_1_4)"/>
<path d="M289.604 58.1365V60.2207C290.194 60.556 290.866 60.7173 291.543 60.6861C291.917 60.6566 292.279 60.5404 292.6 60.3468L293.986 59.5518L296.894 57.8651C297.023 57.8036 297.137 57.7144 297.228 57.6038C297.318 57.4932 297.383 57.3639 297.418 57.2253V55.1798C297.384 55.3202 297.32 55.4514 297.23 55.5638C297.139 55.6761 297.024 55.7668 296.894 55.8293L293.986 57.5064L292.6 58.3013C292.279 58.4949 291.917 58.6111 291.543 58.6406C290.862 58.6601 290.19 58.4853 289.604 58.1365Z" fill="url(#paint17_linear_1_4)"/>
<path d="M289.604 78.9788V81.063C290.194 81.3983 290.866 81.5596 291.543 81.5284C291.916 81.4942 292.277 81.3784 292.6 81.1891L293.986 80.3941L296.894 78.7074C297.024 78.6449 297.139 78.5542 297.23 78.4418C297.32 78.3294 297.384 78.1983 297.418 78.0579V75.9736C297.384 76.114 297.32 76.2452 297.23 76.3576C297.139 76.4699 297.024 76.5607 296.894 76.6231L293.986 78.3002L292.6 79.1048C292.277 79.2941 291.916 79.41 291.543 79.4441C290.866 79.4754 290.194 79.314 289.604 78.9788Z" fill="url(#paint18_linear_1_4)"/>
<g style="mix-blend-mode:overlay" opacity="0.5">
<path d="M277.235 39.291C272.436 36.5088 268.2 33.998 268.2 33.998L277.235 39.291Z" fill="#C1C1C1"/>
</g>
<g style="mix-blend-mode:overlay" opacity="0.5">
<path d="M289.149 46.2806L277.235 39.2911C281.713 41.8989 286.677 44.7392 289.149 45.9898V46.2806Z" fill="#C1C1C1"/>
</g>
<g style="mix-blend-mode:overlay" opacity="0.5">
<path d="M289.634 46.2418C289.944 46.4042 290.268 46.5373 290.603 46.6393C291.127 46.799 291.688 46.799 292.212 46.6393C291.996 46.7194 291.786 46.8133 291.582 46.9204C291.385 47.0942 291.231 47.312 291.133 47.5562C291.036 47.8004 290.997 48.0641 291.02 48.3261C290.971 49.2276 291.02 83.6514 291.02 83.6514C291.02 83.6514 290.661 49.722 290.642 48.8592C290.666 48.3003 290.587 47.7416 290.409 47.2112C290.29 46.9369 290.067 46.7209 289.789 46.6102L289.643 46.5326L289.634 46.2418Z" fill="#C1C1C1"/>
</g>
</g>
<g clip-path="url(#clip2_1_4)">
<path d="M95.645 139.981H1.35501C0.606658 139.981 0 140.588 0 141.337V199.626C0 200.375 0.606658 200.981 1.35501 200.981H95.645C96.3933 200.981 97 200.375 97 199.626V141.337C97 140.588 96.3933 139.981 95.645 139.981Z" fill="#E75643"/>
<path d="M90.5402 145.695H74.9343C73.5021 145.695 72.3411 146.856 72.3411 148.288V192.686C72.3411 194.119 73.5021 195.28 74.9343 195.28H90.5402C91.9724 195.28 93.1334 194.119 93.1334 192.686V148.288C93.1334 146.856 91.9724 145.695 90.5402 145.695Z" fill="#5E9EA7"/>
<path d="M91.4164 152.436H74.0583V160.848H91.4164V152.436Z" fill="#F49A22"/>
<path d="M78.205 154.703V154.002H75.0161V159.341H78.205V158.617V154.703ZM77.6209 158.582H75.5767V154.703H77.6209V158.582Z" fill="#353F48"/>
<path d="M82.0247 154.703V154.002H78.8358V159.341H82.0247V158.617V154.703ZM81.4407 158.582H79.4082V154.703H81.4407V158.582Z" fill="#353F48"/>
<path d="M87.2811 154.703V158.582V159.306H90.4116V154.002H87.2694V154.738L87.2811 154.703ZM87.8535 154.703H89.886V158.582H87.8535V154.703Z" fill="#353F48"/>
<path d="M83.4615 154.703V158.582V159.306H86.6505V154.002H83.4031V154.738L83.4615 154.703ZM84.0339 154.703H86.0664V158.582H84.0339V154.703Z" fill="#353F48"/>
<path d="M65.3559 145.695H6.14429C4.71211 145.695 3.55109 146.856 3.55109 148.288V192.686C3.55109 194.119 4.71211 195.28 6.14429 195.28H65.3559C66.7881 195.28 67.9491 194.119 67.9491 192.686V148.288C67.9491 146.856 66.7881 145.695 65.3559 145.695Z" fill="#5E9EA7"/>
<path d="M82.7372 176.609C81.4666 176.609 80.2244 176.986 79.1679 177.692C78.1114 178.399 77.2879 179.402 76.8017 180.576C76.3154 181.751 76.1882 183.043 76.4361 184.289C76.684 185.536 77.2959 186.681 78.1944 187.579C79.0929 188.478 80.2376 189.09 81.4839 189.338C82.7301 189.586 84.0219 189.459 85.1958 188.972C86.3698 188.486 87.3732 187.662 88.0791 186.606C88.7851 185.549 89.1618 184.306 89.1618 183.035C89.1618 181.331 88.485 179.697 87.2801 178.492C86.0753 177.287 84.4412 176.609 82.7372 176.609ZM77.4223 183.035C77.4252 181.873 77.8097 180.744 78.5167 179.821C79.2237 178.899 80.2141 178.234 81.3355 177.93V188.141C80.2141 187.837 79.2237 187.172 78.5167 186.249C77.8097 185.327 77.4252 184.198 77.4223 183.035ZM84.139 188.141V177.93C85.2585 178.236 86.2465 178.901 86.9508 179.824C87.6551 180.746 88.0366 181.875 88.0366 183.035C88.0366 184.196 87.6551 185.325 86.9508 186.247C86.2465 187.17 85.2585 187.835 84.139 188.141Z" fill="#353F48"/>
<path d="M89.9211 176.423C89.9234 176.601 89.8726 176.776 89.7752 176.926C89.6778 177.075 89.5381 177.192 89.374 177.262C89.2099 177.332 89.0287 177.351 88.8534 177.318C88.6782 177.285 88.5168 177.2 88.3899 177.075C88.2629 176.949 88.1761 176.789 88.1404 176.614C88.1047 176.439 88.1219 176.258 88.1896 176.093C88.2573 175.928 88.3726 175.787 88.5207 175.687C88.6689 175.588 88.8432 175.535 89.0216 175.535C89.2581 175.535 89.4852 175.628 89.6535 175.794C89.8219 175.96 89.918 176.186 89.9211 176.423Z" fill="#E75643"/>
<path d="M87.8537 174.845C86.3329 173.85 84.5549 173.32 82.7374 173.32C80.92 173.32 79.142 173.85 77.6211 174.845C77.8918 175.048 78.1052 175.318 78.2402 175.628C79.5824 174.773 81.1405 174.32 82.7316 174.32C84.3227 174.32 85.8808 174.773 87.223 175.628C87.3622 175.317 87.5795 175.047 87.8537 174.845Z" fill="#353F48"/>
<path d="M77.3404 176.423C77.3428 176.601 77.292 176.776 77.1946 176.926C77.0972 177.075 76.9575 177.192 76.7934 177.262C76.6292 177.332 76.448 177.351 76.2728 177.318C76.0976 177.285 75.9362 177.2 75.8092 177.075C75.6823 176.949 75.5954 176.789 75.5598 176.614C75.5241 176.439 75.5412 176.258 75.609 176.093C75.6767 175.928 75.7919 175.786 75.9401 175.687C76.0883 175.588 76.2626 175.535 76.441 175.535C76.5586 175.533 76.6753 175.555 76.7843 175.599C76.8934 175.643 76.9926 175.708 77.0763 175.791C77.16 175.873 77.2264 175.972 77.2718 176.08C77.3171 176.189 77.3405 176.305 77.3404 176.423Z" fill="#34476C"/>
<path d="M63.9422 152.705H7.56915V188.538H63.9422V152.705Z" fill="#34476C"/>
<path d="M62.7742 153.885H8.73737V187.358H62.7742V153.885Z" fill="#34476C"/>
<path d="M33.0691 188.468H21.4697L41.7481 152.705H53.3475L33.0691 188.468Z" fill="#353F48"/>
<path d="M32.3916 187.3L51.3383 153.873H42.4256L23.4789 187.3H32.3916Z" fill="#353F48"/>
<path d="M39.8208 188.468H35.8609L56.1393 152.705H60.0992L39.8208 188.468Z" fill="#353F48"/>
<path d="M39.1434 187.3L58.1018 153.873H56.8169L37.8585 187.3H39.1434Z" fill="#353F48"/>
</g>
<path d="M176.371 209.629C175.713 209.634 175.056 209.562 174.417 209.414C173.128 209.165 171.951 208.547 171.043 207.642C170.134 206.737 169.539 205.589 169.337 204.353L170.893 204.075C171.036 205.029 171.486 205.917 172.181 206.617C172.876 207.317 173.783 207.795 174.776 207.984C176.123 208.269 177.524 208.209 178.839 207.811C180.154 207.414 181.335 206.692 182.262 205.72C182.712 205.168 182.972 204.497 183.006 203.799C183.039 203.102 182.844 202.411 182.448 201.823C181.96 201.056 181.413 200.325 180.812 199.634C179.376 197.876 177.9 196.054 178.273 194.131C178.437 193.489 178.748 192.889 179.182 192.373C179.616 191.857 180.163 191.438 180.786 191.145C182.801 190.062 184.926 189.176 187.128 188.501C189.357 187.854 191.492 186.944 193.484 185.793C195.625 184.439 196.715 183.086 196.835 181.669C197.047 179.138 194.029 176.481 191.383 174.153C188.418 171.547 185.612 169.093 187.394 166.765C188.829 165.296 190.674 164.247 192.713 163.741C194.629 163.242 196.381 162.289 197.805 160.97C198.616 160.059 199.454 158.744 198.895 157.681C198.337 156.618 196.236 155.922 193.856 156.074L193.763 154.569C196.901 154.379 199.414 155.315 200.318 157.01C200.837 157.997 201.036 159.655 198.989 161.945C197.398 163.474 195.412 164.578 193.231 165.145C191.481 165.576 189.887 166.451 188.617 167.676C187.713 168.814 189.508 170.548 192.367 173.04C195.226 175.532 198.59 178.506 198.324 181.782C198.164 183.693 196.835 185.414 194.335 187.046C192.249 188.258 190.017 189.227 187.687 189.93C185.583 190.571 183.555 191.419 181.637 192.461C181.212 192.65 180.834 192.923 180.527 193.261C180.22 193.599 179.991 193.994 179.855 194.422C179.616 195.687 180.879 197.243 182.089 198.736C182.738 199.491 183.329 200.29 183.857 201.127C184.408 201.967 184.673 202.948 184.619 203.937C184.564 204.926 184.191 205.875 183.551 206.656C182.657 207.622 181.55 208.389 180.309 208.903C179.068 209.417 177.724 209.665 176.371 209.629Z" fill="#22323D"/>
<path d="M191.543 172.471L190.067 171.965C191.184 169.042 194.295 168.169 197.048 167.322C198.39 166.992 199.681 166.499 200.89 165.854C202.419 164.924 203.687 163.653 204.583 162.152C205.48 160.65 205.978 158.964 206.036 157.238C206.036 154.619 202.606 148.066 198.577 145.523C198 145.065 197.308 144.759 196.568 144.635C195.829 144.511 195.068 144.573 194.362 144.814L193.724 143.435C194.669 143.087 195.694 142.979 196.697 143.123C197.7 143.268 198.646 143.659 199.441 144.257C204.028 147.155 207.671 154.202 207.618 157.251C207.558 159.221 206.996 161.148 205.982 162.867C204.968 164.585 203.531 166.044 201.794 167.119C200.462 167.842 199.036 168.395 197.553 168.764C194.88 169.536 192.394 170.257 191.543 172.471Z" fill="#22323D"/>
<path d="M171.811 135.755H148.848C142.863 135.755 138.011 140.372 138.011 146.067V181.441C138.011 187.136 142.863 191.752 148.848 191.752H171.811C177.796 191.752 182.648 187.136 182.648 181.441V146.067C182.648 140.372 177.796 135.755 171.811 135.755Z" fill="#22323D"/>
<path d="M179.284 146.054V170.358H141.376V146.054C141.376 144.171 142.161 142.366 143.56 141.035C144.959 139.704 146.857 138.956 148.835 138.956H171.824C173.802 138.96 175.697 139.708 177.095 141.039C178.493 142.369 179.28 144.172 179.284 146.054Z" fill="#FCBD1B"/>
<path d="M165.907 181.631C165.91 180.579 165.585 179.55 164.973 178.675C164.361 177.799 163.489 177.116 162.469 176.712C161.449 176.308 160.326 176.201 159.241 176.405C158.157 176.608 157.161 177.113 156.379 177.856C155.596 178.599 155.063 179.545 154.847 180.577C154.63 181.608 154.74 182.677 155.162 183.648C155.584 184.62 156.3 185.451 157.219 186.035C158.137 186.62 159.218 186.932 160.323 186.932C161.802 186.932 163.22 186.374 164.267 185.38C165.314 184.386 165.904 183.038 165.907 181.631Z" fill="#07AA9F"/>
<path d="M164.072 181.631C164.072 180.925 163.853 180.235 163.441 179.649C163.029 179.062 162.443 178.604 161.758 178.334C161.073 178.064 160.319 177.994 159.591 178.131C158.864 178.269 158.196 178.609 157.672 179.108C157.147 179.607 156.79 180.243 156.645 180.935C156.501 181.627 156.575 182.344 156.859 182.996C157.143 183.648 157.623 184.205 158.24 184.597C158.856 184.989 159.581 185.198 160.323 185.198C161.317 185.198 162.271 184.823 162.974 184.153C163.677 183.484 164.072 182.577 164.072 181.631Z" fill="#22323D"/>
<path d="M153.063 185.122L146.721 181.63L153.063 178.138V185.122Z" fill="#07AA9F"/>
<path d="M167.596 185.122L173.952 181.63L167.596 178.138V185.122Z" fill="#07AA9F"/>
<path d="M172.064 191.752H168.181V200.583H172.064V191.752Z" fill="#22323D"/>
<path d="M171.119 198.533H169.138V204.808H171.119V198.533Z" fill="#22323D"/>
<path d="M193.525 141.499H193.485C192.728 141.499 192.115 142.083 192.115 142.803V145.081C192.115 145.8 192.728 146.384 193.485 146.384H193.525C194.281 146.384 194.894 145.8 194.894 145.081V142.803C194.894 142.083 194.281 141.499 193.525 141.499Z" fill="#07AA9F"/>
<path d="M190.04 138.956H189.974C188.424 138.956 187.168 140.151 187.168 141.626V146.256C187.168 147.731 188.424 148.926 189.974 148.926H190.04C191.59 148.926 192.846 147.731 192.846 146.256V141.626C192.846 140.151 191.59 138.956 190.04 138.956Z" fill="#22323D"/>
<path d="M193.525 153.05H193.485C192.728 153.05 192.115 153.634 192.115 154.354V156.631C192.115 157.351 192.728 157.935 193.485 157.935H193.525C194.281 157.935 194.894 157.351 194.894 156.631V154.354C194.894 153.634 194.281 153.05 193.525 153.05Z" fill="#07AA9F"/>
<path d="M190.04 150.507H189.974C188.424 150.507 187.168 151.702 187.168 153.177V157.807C187.168 159.282 188.424 160.477 189.974 160.477H190.04C191.59 160.477 192.846 159.282 192.846 157.807V153.177C192.846 151.702 191.59 150.507 190.04 150.507Z" fill="#22323D"/>
<path d="M192.74 172.218C192.74 171.86 192.628 171.51 192.419 171.213C192.21 170.915 191.913 170.683 191.566 170.546C191.218 170.409 190.836 170.373 190.467 170.443C190.098 170.513 189.76 170.685 189.494 170.938C189.228 171.191 189.047 171.514 188.973 171.865C188.9 172.216 188.938 172.58 189.081 172.91C189.225 173.241 189.469 173.524 189.782 173.723C190.094 173.921 190.462 174.028 190.838 174.028C191.342 174.028 191.826 173.837 192.183 173.497C192.539 173.158 192.74 172.698 192.74 172.218Z" fill="#22323D"/>
<path d="M159.857 160.907C160.549 162.577 159.166 164.702 156.773 165.563C154.379 166.423 151.88 165.866 151.188 164.209C150.497 162.552 151.866 160.414 154.26 159.553C156.653 158.693 159.153 159.3 159.857 160.907Z" fill="#E84341"/>
<path d="M159.259 162.375C159.045 162.375 158.839 162.296 158.685 162.154C158.531 162.012 158.442 161.819 158.435 161.616L158.249 144.46C158.248 144.253 158.333 144.054 158.484 143.905C158.636 143.756 158.842 143.669 159.06 143.663C159.276 143.663 159.484 143.744 159.638 143.888C159.792 144.032 159.881 144.229 159.884 144.434L160.07 161.54C160.072 161.642 160.052 161.744 160.012 161.839C159.972 161.934 159.913 162.021 159.837 162.094C159.762 162.167 159.672 162.225 159.573 162.264C159.473 162.304 159.367 162.324 159.259 162.324V162.375Z" fill="#E84341"/>
<path d="M159.618 144.181L160.07 144.573L160.602 144.953C160.802 145.092 161.041 145.231 161.307 145.396C161.826 145.699 162.464 146.028 163.155 146.446C163.525 146.652 163.88 146.88 164.219 147.129C164.597 147.397 164.949 147.698 165.269 148.027C165.602 148.382 165.884 148.778 166.107 149.204L166.187 149.368V149.432V149.508L166.28 149.786C166.353 150.005 166.406 150.229 166.439 150.457C166.439 150.583 166.439 150.697 166.439 150.811C166.453 150.916 166.453 151.022 166.439 151.127C166.46 151.329 166.46 151.532 166.439 151.734C166.419 151.926 166.384 152.117 166.333 152.304C166.333 152.468 166.227 152.633 166.187 152.797C165.995 153.295 165.736 153.767 165.416 154.201L165.03 154.657C165.017 154.463 165.017 154.269 165.03 154.075C165.03 153.898 165.03 153.67 165.03 153.43C165.03 153.189 165.03 152.911 165.03 152.62C165.03 152.329 165.03 152.038 164.963 151.722C164.945 151.564 164.914 151.407 164.87 151.254V151.026L164.791 150.811C164.752 150.657 164.694 150.508 164.618 150.368L164.498 150.09V150.026C164.498 150.026 164.498 150.09 164.498 150.026L164.432 149.925L164.299 149.723L164.139 149.52C164.032 149.379 163.917 149.244 163.793 149.115C163.253 148.578 162.681 148.071 162.078 147.597C161.786 147.357 161.493 147.091 161.214 146.838C160.956 146.598 160.712 146.344 160.483 146.079C160.284 145.844 160.107 145.595 159.951 145.333C159.826 145.132 159.724 144.92 159.645 144.7C159.59 144.565 159.55 144.425 159.525 144.282L159.618 144.181Z" fill="#E84341"/>
<path d="M270.265 207.82H264.996C263.964 207.773 262.993 207.337 262.296 206.607C261.599 205.877 261.232 204.912 261.276 203.923V186.572H273.986V203.923C274.029 204.912 273.662 205.877 272.965 206.607C272.268 207.337 271.297 207.773 270.265 207.82Z" fill="#A97C50"/>
<path d="M323.777 207.82H318.508C317.474 207.776 316.501 207.34 315.802 206.61C315.103 205.879 314.734 204.913 314.778 203.923V186.572H327.497V203.923C327.541 204.912 327.174 205.877 326.477 206.607C325.78 207.337 324.809 207.773 323.777 207.82Z" fill="#A97C50"/>
<path d="M294.608 190.315H340.113C340.178 189.905 340.21 189.491 340.207 189.077V178.226C340.207 174.609 338.564 171.391 335.996 169.853L328.272 166.517H294.608V190.315Z" fill="#FBB040"/>
<path d="M294.608 190.315V195.85H334.806C337.45 195.85 339.65 193.463 340.113 190.315H294.608Z" fill="#A4C2D1"/>
<path d="M294.609 190.315H248.651C249.123 193.463 251.314 195.85 253.957 195.85H294.561V190.315H294.609Z" fill="#A4C2D1"/>
<path d="M294.608 185.351V166.499H261.559L261.379 166.562L252.815 169.835C250.237 171.372 248.594 174.627 248.594 178.208V189.058C248.596 189.473 248.627 189.887 248.688 190.297H294.646L294.608 185.351Z" fill="#FBB040"/>
<path d="M282.191 159.256H253.693C253.409 159.233 253.127 159.313 252.902 159.48C252.678 159.648 252.528 159.891 252.484 160.161V162.783C252.484 164.465 254.222 165.83 256.365 165.83H282.191V159.256Z" fill="#FEEBCC"/>
<path d="M335.08 159.256H306.487V165.902H332.398C334.542 165.902 336.279 164.537 336.279 162.855V160.206C336.248 159.929 336.106 159.675 335.881 159.497C335.657 159.32 335.37 159.234 335.08 159.256Z" fill="#F2D49B"/>
<path d="M305.269 144.798L304.523 137.113H294.608V144.798H305.269Z" fill="#FFDEAE"/>
<path d="M294.609 137.113H284.524L283.542 144.798H294.609V137.113Z" fill="#FFDEAE"/>
<path d="M294.608 150.332V166.499H321.85C319.82 159.582 317.554 153.099 315.996 150.332H294.608Z" fill="#C7DDE5"/>
<path d="M274.448 150.332C272.739 153.044 270.029 159.5 267.508 166.499H294.608V150.332H274.448Z" fill="#C7DDE5"/>
<path d="M283.542 144.798H272.343C269.51 144.798 264.382 157.999 261.38 166.562L261.559 166.499H267.508C270.029 159.5 272.739 152.999 274.448 150.332H294.609V144.798H283.542Z" fill="#FBB040"/>
<path d="M318.234 144.798H294.627V150.332H316.015C317.573 153.099 319.839 159.582 321.87 166.499H327.856C325.392 157.927 321.161 144.798 318.234 144.798Z" fill="#FBB040"/>
<path d="M264.703 177.15H258.244C257.334 177.183 256.473 177.56 255.852 178.199C255.231 178.838 254.899 179.687 254.93 180.559V183.715C254.899 184.587 255.231 185.436 255.852 186.074C256.473 186.713 257.334 187.09 258.244 187.123H264.703C265.613 187.088 266.47 186.71 267.089 186.071C267.709 185.433 268.039 184.586 268.008 183.715V180.559C268.039 179.688 267.709 178.841 267.089 178.202C266.47 177.564 265.613 177.186 264.703 177.15ZM266.856 183.715C266.887 184.292 266.678 184.858 266.275 185.288C265.871 185.719 265.306 185.979 264.703 186.011H258.244C257.641 185.979 257.077 185.719 256.673 185.288C256.27 184.858 256.061 184.292 256.092 183.715V180.559C256.061 179.982 256.27 179.416 256.673 178.985C257.077 178.555 257.641 178.295 258.244 178.262H264.703C265.306 178.295 265.871 178.555 266.275 178.985C266.678 179.416 266.887 179.982 266.856 180.559V183.715Z" fill="#A4C2D1"/>
<path d="M330.529 177.15H324.07C323.159 177.183 322.299 177.56 321.678 178.199C321.057 178.838 320.725 179.687 320.756 180.559V183.715C320.725 184.587 321.057 185.436 321.678 186.074C322.299 186.713 323.159 187.09 324.07 187.123H330.529C331.438 187.088 332.296 186.71 332.915 186.071C333.534 185.433 333.865 184.586 333.834 183.715V180.559C333.865 179.688 333.534 178.841 332.915 178.202C332.296 177.564 331.438 177.186 330.529 177.15ZM332.682 183.715C332.71 184.292 332.5 184.856 332.097 185.286C331.695 185.716 331.131 185.976 330.529 186.011H324.07C323.467 185.979 322.902 185.719 322.499 185.288C322.095 184.858 321.886 184.292 321.917 183.715V180.559C321.886 179.982 322.095 179.416 322.499 178.985C322.902 178.555 323.467 178.295 324.07 178.262H330.529C331.131 178.297 331.695 178.558 332.097 178.988C332.5 179.418 332.71 179.982 332.682 180.559V183.715Z" fill="#A4C2D1"/>
<path d="M330.529 178.262H324.07C323.467 178.295 322.902 178.555 322.499 178.985C322.095 179.416 321.886 179.982 321.917 180.559V183.715C321.903 184.176 322.035 184.63 322.297 185.017C322.558 185.405 322.936 185.707 323.381 185.885L331.209 178.389C330.992 178.307 330.762 178.264 330.529 178.262Z" fill="#95E5DD"/>
<path d="M331.19 178.389L323.362 185.885C323.581 185.968 323.815 186.011 324.051 186.011H330.51C331.112 185.976 331.675 185.716 332.078 185.286C332.481 184.856 332.691 184.292 332.663 183.715V180.559C332.675 180.097 332.54 179.643 332.277 179.255C332.015 178.868 331.635 178.566 331.19 178.389Z" fill="#C4FDF7"/>
<path d="M264.703 178.262H258.244C257.641 178.295 257.077 178.555 256.673 178.985C256.27 179.416 256.061 179.982 256.091 180.559V183.715C256.077 184.176 256.21 184.63 256.471 185.017C256.732 185.405 257.11 185.707 257.555 185.885L265.383 178.389C265.167 178.307 264.936 178.264 264.703 178.262Z" fill="#95E5DD"/>
<path d="M265.383 178.389L257.536 185.885C257.756 185.968 257.989 186.011 258.225 186.011H264.684C265.287 185.979 265.852 185.719 266.256 185.288C266.659 184.858 266.868 184.292 266.837 183.715V180.559C266.851 180.099 266.719 179.646 266.46 179.259C266.2 178.872 265.825 178.569 265.383 178.389Z" fill="#C4FDF7"/>
<path d="M288.216 140.956H284.203V144.799H288.216V140.956Z" fill="#FFDEAE"/>
<path d="M292.305 137.113H288.291V140.957H292.305V137.113Z" fill="#FFDEAE"/>
<path d="M296.393 140.956H292.38V144.799H296.393V140.956Z" fill="#FFDEAE"/>
<path d="M300.473 137.113H296.459V140.957H300.473V137.113Z" fill="#FFDEAE"/>
<path d="M304.561 140.956H300.548V144.799H304.561V140.956Z" fill="#FFDEAE"/>
<path d="M315.58 178.389H294.608V185.677H315.58V178.389Z" fill="#FBB040"/>
<path d="M294.608 178.389H273.985V185.677H294.608V178.389Z" fill="#FBB040"/>
<path d="M294.608 178.389H273.985V179.449H294.608V178.389Z" fill="#A4C2D1"/>
<path d="M294.608 180.469H273.985V181.529H294.608V180.469Z" fill="#A4C2D1"/>
<path d="M294.608 182.539H273.985V183.599H294.608V182.539Z" fill="#A4C2D1"/>
<path d="M294.608 184.619H273.985V185.679H294.608V184.619Z" fill="#A4C2D1"/>
<path d="M315.571 178.389H294.608V179.449H315.571V178.389Z" fill="#A4C2D1"/>
<path d="M315.571 180.469H294.608V181.529H315.571V180.469Z" fill="#A4C2D1"/>
<path d="M315.571 182.539H294.608V183.599H315.571V182.539Z" fill="#A4C2D1"/>
<path d="M315.571 184.619H294.608V185.679H315.571V184.619Z" fill="#A4C2D1"/>
<path d="M325.099 180.469C325.099 180.632 325.049 180.791 324.954 180.927C324.86 181.062 324.726 181.168 324.569 181.23C324.412 181.292 324.239 181.309 324.072 181.277C323.906 181.245 323.753 181.167 323.632 181.052C323.512 180.936 323.43 180.79 323.397 180.63C323.364 180.47 323.381 180.305 323.446 180.154C323.511 180.004 323.621 179.875 323.763 179.785C323.904 179.694 324.07 179.646 324.24 179.646C324.468 179.646 324.686 179.733 324.848 179.887C325.009 180.041 325.099 180.251 325.099 180.469Z" fill="#FAFCFC"/>
<path d="M258.414 181.293C258.889 181.293 259.273 180.924 259.273 180.469C259.273 180.015 258.889 179.646 258.414 179.646C257.94 179.646 257.555 180.015 257.555 180.469C257.555 180.924 257.94 181.293 258.414 181.293Z" fill="#FAFCFC"/>
<path d="M271.134 195.876H264.118V207.639H271.134V195.876Z" fill="#754C29"/>
<path d="M324.41 195.876H317.394V207.639H324.41V195.876Z" fill="#754C29"/>
<path d="M462.446 135.755H376.226C373.68 135.755 371.615 137.744 371.615 140.198V195.057C371.615 197.511 373.68 199.5 376.226 199.5H462.446C464.993 199.5 467.057 197.511 467.057 195.057V140.198C467.057 137.744 464.993 135.755 462.446 135.755Z" fill="#CAC9CA"/>
<path fill-rule="evenodd" clip-rule="evenodd" d="M466.365 188.362V195.057C466.361 196.234 465.874 197.361 465.01 198.193C464.147 199.025 462.977 199.494 461.755 199.498H375.534C374.313 199.494 373.143 199.025 372.279 198.193C371.416 197.361 370.929 196.234 370.925 195.057V188.362H466.365Z" fill="white"/>
<path d="M467.057 188.362H371.615V192.524H467.057V188.362Z" fill="#CAC9CA"/>
<path fill-rule="evenodd" clip-rule="evenodd" d="M399.619 206.54H419.493H439.367L440.759 210.242H419.493H398.227L399.619 206.54Z" fill="#DBDBDB"/>
<path fill-rule="evenodd" clip-rule="evenodd" d="M468 188.362V195.057C467.996 196.435 467.426 197.755 466.414 198.729C465.403 199.703 464.032 200.252 462.602 200.256H376.383C374.952 200.252 373.581 199.703 372.57 198.728C371.558 197.754 370.988 196.433 370.985 195.055V187.604H468V188.362Z" fill="#DBDBDB"/>
<path d="M462.138 140.198H376.535V183.919H462.138V140.198Z" fill="#5FB0D2"/>
<path fill-rule="evenodd" clip-rule="evenodd" d="M376.535 139.44H462.924V184.677H375.747V139.44H376.535ZM461.351 140.957H377.322V183.16H461.35L461.351 140.957Z" fill="#5FB0D2"/>
<path fill-rule="evenodd" clip-rule="evenodd" d="M419.336 196.671C419.873 196.671 420.398 196.518 420.845 196.23C421.291 195.943 421.639 195.534 421.845 195.056C422.05 194.578 422.104 194.052 421.999 193.544C421.895 193.036 421.636 192.57 421.256 192.204C420.876 191.838 420.392 191.589 419.866 191.488C419.339 191.387 418.793 191.439 418.296 191.637C417.8 191.835 417.376 192.17 417.078 192.601C416.779 193.031 416.62 193.537 416.62 194.054C416.621 194.748 416.908 195.413 417.417 195.903C417.926 196.394 418.616 196.67 419.336 196.671Z" fill="#17411D"/>
<path d="M430.825 199.554H408.161V206.54H430.825V199.554Z" fill="#DBDBDB"/>
<path fill-rule="evenodd" clip-rule="evenodd" d="M430.825 207.279H407.393V198.814H431.593V207.279H430.825Z" fill="#DBDBDB"/>
<path fill-rule="evenodd" clip-rule="evenodd" d="M399.619 206.54H419.493H439.368L440.76 210.242H419.493H398.226L399.619 206.54Z" fill="#DBDBDB"/>
<path fill-rule="evenodd" clip-rule="evenodd" d="M399.619 205.799H439.903L441.853 210.981H397.133L399.082 205.799H399.619Z" fill="#DBDBDB"/>
<path fill-rule="evenodd" clip-rule="evenodd" d="M419.336 169.828C425.048 169.828 429.708 165.34 429.708 159.837C429.708 154.334 425.049 149.846 419.336 149.846C413.623 149.846 408.964 154.334 408.964 159.837C408.964 165.34 413.625 169.828 419.336 169.828Z" fill="#EC4544"/>
<path fill-rule="evenodd" clip-rule="evenodd" d="M419.335 149.108C420.798 149.106 422.247 149.383 423.599 149.922C424.951 150.461 426.179 151.253 427.212 152.251C428.247 153.246 429.069 154.429 429.629 155.731C430.188 157.033 430.476 158.429 430.474 159.838C430.476 161.247 430.189 162.643 429.629 163.945C429.069 165.247 428.248 166.43 427.212 167.425C426.179 168.423 424.951 169.215 423.599 169.754C422.247 170.294 420.798 170.571 419.335 170.569C417.872 170.57 416.423 170.294 415.072 169.754C413.72 169.215 412.492 168.424 411.459 167.426C410.423 166.431 409.602 165.248 409.042 163.945C408.482 162.643 408.195 161.247 408.197 159.838C408.195 158.429 408.482 157.033 409.042 155.731C409.602 154.429 410.423 153.246 411.459 152.251C412.492 151.253 413.72 150.462 415.072 149.922C416.423 149.383 417.872 149.106 419.335 149.108ZM426.129 153.297C425.238 152.437 424.18 151.755 423.015 151.29C421.85 150.825 420.6 150.586 419.339 150.588C418.078 150.586 416.829 150.825 415.663 151.29C414.498 151.755 413.44 152.437 412.549 153.297C411.656 154.155 410.948 155.175 410.466 156.297C409.983 157.42 409.736 158.623 409.737 159.838C409.736 161.053 409.983 162.256 410.466 163.379C410.948 164.502 411.656 165.521 412.549 166.38C413.44 167.24 414.498 167.922 415.664 168.387C416.829 168.851 418.078 169.09 419.339 169.088C420.6 169.09 421.85 168.851 423.015 168.386C424.18 167.921 425.238 167.239 426.129 166.379C427.022 165.521 427.731 164.501 428.213 163.379C428.696 162.256 428.944 161.053 428.942 159.838C428.943 158.623 428.696 157.42 428.213 156.297C427.73 155.175 427.022 154.155 426.129 153.297Z" fill="#EC4544"/>
<path fill-rule="evenodd" clip-rule="evenodd" d="M417.513 156.188L422.42 158.552C423.112 158.883 423.112 160.044 422.42 160.374L417.513 162.738C417.121 162.927 416.515 162.7 416.515 162.224V156.703C416.515 156.227 417.121 155.998 417.513 156.188Z" fill="white"/>
<path fill-rule="evenodd" clip-rule="evenodd" d="M395.302 177.733H443.37C443.57 177.734 443.762 177.811 443.904 177.947C444.046 178.084 444.126 178.269 444.126 178.462C444.126 178.655 444.046 178.84 443.904 178.977C443.763 179.113 443.571 179.19 443.37 179.191H395.302C395.102 179.19 394.909 179.113 394.768 178.977C394.626 178.84 394.546 178.655 394.545 178.462C394.546 178.268 394.626 178.083 394.768 177.947C394.909 177.81 395.102 177.733 395.302 177.733Z" fill="#17411D"/>
<path fill-rule="evenodd" clip-rule="evenodd" d="M416.03 180.15C416.377 180.15 416.715 180.051 417.004 179.865C417.292 179.68 417.516 179.416 417.649 179.108C417.782 178.799 417.816 178.46 417.749 178.132C417.681 177.805 417.514 177.504 417.269 177.268C417.024 177.031 416.712 176.871 416.372 176.805C416.032 176.74 415.68 176.774 415.359 176.901C415.039 177.029 414.765 177.246 414.573 177.523C414.38 177.801 414.277 178.128 414.277 178.461C414.278 178.909 414.463 179.338 414.792 179.654C415.12 179.971 415.565 180.149 416.03 180.15Z" fill="#17411D"/>
<defs>
<linearGradient id="paint0_linear_1_4" x1="325.812" y1="39.0875" x2="289.071" y2="39.0875" gradientUnits="userSpaceOnUse">
<stop stop-color="#F0BF00"/>
<stop offset="0.16" stop-color="#E6AC00"/>
<stop offset="0.24" stop-color="#F6CA00"/>
<stop offset="1" stop-color="#F6C700"/>
</linearGradient>
<linearGradient id="paint1_linear_1_4" x1="316.593" y1="44.2641" x2="316.05" y2="44.2641" gradientUnits="userSpaceOnUse">
<stop stop-color="#E3A74F"/>
<stop offset="0.99" stop-color="#FDB543"/>
</linearGradient>
<linearGradient id="paint2_linear_1_4" x1="323.514" y1="12.9133" x2="294.015" y2="12.9133" gradientUnits="userSpaceOnUse">
<stop stop-color="#AE9025"/>
<stop offset="0.99" stop-color="#C9A41A"/>
</linearGradient>
<linearGradient id="paint3_linear_1_4" x1="316.06" y1="45.2918" x2="280.686" y2="45.2918" gradientUnits="userSpaceOnUse">
<stop stop-color="#1A86AC"/>
<stop offset="0.16" stop-color="#1B809E"/>
<stop offset="0.24" stop-color="#198BB5"/>
<stop offset="1" stop-color="#1992B5"/>
</linearGradient>
<linearGradient id="paint4_linear_1_4" x1="307.18" y1="50.2842" x2="306.656" y2="50.2842" gradientUnits="userSpaceOnUse">
<stop stop-color="#275D66"/>
<stop offset="0.99" stop-color="#277281"/>
</linearGradient>
<linearGradient id="paint5_linear_1_4" x1="-4310.57" y1="-7859.72" x2="-5142.81" y2="-7859.72" gradientUnits="userSpaceOnUse">
<stop stop-color="#275D66"/>
<stop offset="0.99" stop-color="#277281"/>
</linearGradient>
<linearGradient id="paint6_linear_1_4" x1="316.06" y1="36.9645" x2="307.18" y2="36.9645" gradientUnits="userSpaceOnUse">
<stop stop-color="#D8981E"/>
<stop offset="0.16" stop-color="#DDA11C"/>
<stop offset="1" stop-color="#F4A718"/>
</linearGradient>
<linearGradient id="paint7_linear_1_4" x1="1775.82" y1="1366.96" x2="1857.07" y2="1366.96" gradientUnits="userSpaceOnUse">
<stop stop-color="#D8981E"/>
<stop offset="0.16" stop-color="#DDA11C"/>
<stop offset="1" stop-color="#F4A718"/>
</linearGradient>
<linearGradient id="paint8_linear_1_4" x1="306.23" y1="53.299" x2="273.192" y2="53.299" gradientUnits="userSpaceOnUse">
<stop stop-color="#8AAC1A"/>
<stop offset="0.16" stop-color="#839E1B"/>
<stop offset="0.24" stop-color="#8FB519"/>
<stop offset="1" stop-color="#95B519"/>
</linearGradient>
<linearGradient id="paint9_linear_1_4" x1="297.941" y1="57.9619" x2="297.447" y2="57.9619" gradientUnits="userSpaceOnUse">
<stop stop-color="#5D6627"/>
<stop offset="0.99" stop-color="#738127"/>
</linearGradient>
<linearGradient id="paint10_linear_1_4" x1="-4251.78" y1="-7145.33" x2="-4977.72" y2="-7145.33" gradientUnits="userSpaceOnUse">
<stop stop-color="#5D6627"/>
<stop offset="0.99" stop-color="#738127"/>
</linearGradient>
<linearGradient id="paint11_linear_1_4" x1="1752.62" y1="1662.91" x2="1823.41" y2="1662.91" gradientUnits="userSpaceOnUse">
<stop stop-color="#D8981E"/>
<stop offset="0.16" stop-color="#DDA11C"/>
<stop offset="1" stop-color="#F4A718"/>
</linearGradient>
<linearGradient id="paint12_linear_1_4" x1="1754.31" y1="1164.13" x2="1825.18" y2="1164.13" gradientUnits="userSpaceOnUse">
<stop stop-color="#D8981E"/>
<stop offset="0.16" stop-color="#DDA11C"/>
<stop offset="1" stop-color="#F4A718"/>
</linearGradient>
<linearGradient id="paint13_linear_1_4" x1="1754.31" y1="1319.51" x2="1825.18" y2="1319.51" gradientUnits="userSpaceOnUse">
<stop stop-color="#D8981E"/>
<stop offset="0.16" stop-color="#DDA11C"/>
<stop offset="1" stop-color="#F4A718"/>
</linearGradient>
<linearGradient id="paint14_linear_1_4" x1="297.447" y1="59.7263" x2="266.193" y2="59.7263" gradientUnits="userSpaceOnUse">
<stop stop-color="#AC5D0E"/>
<stop offset="0.16" stop-color="#9E4E10"/>
<stop offset="0.24" stop-color="#B5670D"/>
<stop offset="1" stop-color="#B5640D"/>
</linearGradient>
<linearGradient id="paint15_linear_1_4" x1="295.489" y1="37.4686" x2="270.391" y2="37.4686" gradientUnits="userSpaceOnUse">
<stop stop-color="#664220"/>
<stop offset="0.99" stop-color="#814F1E"/>
</linearGradient>
<linearGradient id="paint16_linear_1_4" x1="1736.89" y1="1637.46" x2="1800.26" y2="1637.46" gradientUnits="userSpaceOnUse">
<stop stop-color="#D8981E"/>
<stop offset="0.16" stop-color="#DDA11C"/>
<stop offset="1" stop-color="#F4A718"/>
</linearGradient>
<linearGradient id="paint17_linear_1_4" x1="1733.31" y1="1139.72" x2="1796.52" y2="1139.72" gradientUnits="userSpaceOnUse">
<stop stop-color="#D8981E"/>
<stop offset="0.16" stop-color="#DDA11C"/>
<stop offset="1" stop-color="#F4A718"/>
</linearGradient>
<linearGradient id="paint18_linear_1_4" x1="1733.31" y1="1289.51" x2="1796.52" y2="1289.51" gradientUnits="userSpaceOnUse">
<stop stop-color="#D8981E"/>
<stop offset="0.16" stop-color="#DDA11C"/>
<stop offset="1" stop-color="#F4A718"/>
</linearGradient>
<clipPath id="clip0_1_4">
<rect width="89.0125" height="83.922" fill="white" transform="translate(377.822 2.71509)"/>
</clipPath>
<clipPath id="clip1_1_4">
<rect width="59.6288" height="83.922" fill="white" transform="translate(266.183 2.71509)"/>
</clipPath>
<clipPath id="clip2_1_4">
<rect width="97" height="61" fill="white" transform="translate(0 139.981)"/>
</clipPath>
</defs>
</svg>
