<svg width="63" height="44" viewBox="0 0 63 44" fill="none" xmlns="http://www.w3.org/2000/svg">
<path d="M51.9171 20.5722C51.9419 20.2558 51.9582 19.9369 51.9582 19.614C51.9582 12.9025 46.5175 7.46183 39.806 7.46183C37.7377 7.46183 35.791 7.97996 34.0862 8.8913C32.247 3.71087 27.3046 0 21.4935 0C14.1142 0 8.13197 5.98218 8.13197 13.3615C8.13197 14.7487 8.34353 16.0864 8.73589 17.3444C3.62155 19.3577 0 24.3377 0 30.1669C0 37.7769 6.16906 43.9459 13.779 43.9459H49.3386C49.7057 43.9804 50.0773 44 50.4535 44C56.9488 44 62.2145 38.7345 62.2145 32.2391C62.2143 26.2397 57.7213 21.2932 51.9171 20.5722ZM37.8765 26.8881H35.3913C34.6569 26.8881 34.056 27.489 34.056 28.2236V35.2803C34.056 36.0147 33.455 36.6157 32.7207 36.6157H29.4936C28.7592 36.6157 28.1583 36.0147 28.1583 35.2803V28.2236C28.1583 27.4891 27.5574 26.8881 26.823 26.8881H24.3378C23.6034 26.8881 23.3657 26.4094 23.8096 25.8243L30.3001 17.2692C30.7439 16.684 31.4704 16.684 31.9143 17.2692L38.4047 25.8243C38.8486 26.4095 38.6109 26.8881 37.8765 26.8881Z" fill="#4B4B4B"/>
</svg>
