<svg width="20" height="20" viewBox="0 0 20 20" fill="none" xmlns="http://www.w3.org/2000/svg">
<g clip-path="url(#clip0_262_1675)">
<path d="M3.10938 5.41368L16.9118 5.47107L16.9206 3.04639L13.0332 3.03204L13.0419 0.966045C13.0419 0.444763 12.6575 0.0191296 12.1814 0.0191296L7.87909 0C7.40299 0 7.01425 0.420851 7.01425 0.937351L7.00552 3.00335L3.11811 2.989L3.10938 5.41368ZM11.3166 1.89861C11.3166 2.32425 11.3166 2.6638 11.3122 3.02248L8.73083 3.01291C8.73083 2.65901 8.73083 2.31468 8.73519 1.88905C9.56072 1.89383 10.4911 1.89861 11.3166 1.89861Z" fill="#6D6D6D"/>
<path d="M3.07617 6.62866V9.20638H4.41711L4.78401 20.005H15.1664L15.5333 9.20638H16.8786V6.62866H3.07617Z" fill="#6D6D6D"/>
</g>
<defs>
<clipPath id="clip0_262_1675">
<rect width="13.8462" height="20" fill="white" transform="translate(3.07617)"/>
</clipPath>
</defs>
</svg>
