<svg width="328" height="50" viewBox="0 0 328 50" fill="none" xmlns="http://www.w3.org/2000/svg">
<rect width="328" height="50" rx="4" fill="#305095"/>
<path d="M99.365 31H101.585V26.5H105.53V24.64H101.585V21.745H106.205V19.885H99.365V31ZM109.4 31.21C110.36 31.21 111.2 30.73 111.935 30.1H111.995L112.145 31H113.945V26.095C113.945 23.665 112.85 22.39 110.72 22.39C109.4 22.39 108.2 22.885 107.21 23.5L108.005 24.955C108.785 24.505 109.535 24.16 110.315 24.16C111.35 24.16 111.71 24.79 111.755 25.615C108.365 25.975 106.91 26.92 106.91 28.72C106.91 30.145 107.9 31.21 109.4 31.21ZM110.12 29.485C109.475 29.485 109.01 29.2 109.01 28.54C109.01 27.79 109.7 27.22 111.755 26.965V28.66C111.215 29.185 110.75 29.485 110.12 29.485ZM119.762 31.21C120.692 31.21 121.712 30.895 122.522 30.19L121.637 28.735C121.172 29.125 120.602 29.41 120.002 29.41C118.802 29.41 117.917 28.39 117.917 26.8C117.917 25.225 118.787 24.19 120.077 24.19C120.542 24.19 120.932 24.385 121.352 24.745L122.402 23.32C121.787 22.795 120.992 22.39 119.957 22.39C117.677 22.39 115.667 24.01 115.667 26.8C115.667 29.59 117.437 31.21 119.762 31.21ZM127.308 31.21C128.343 31.21 129.408 30.85 130.233 30.28L129.483 28.93C128.883 29.305 128.283 29.515 127.593 29.515C126.348 29.515 125.448 28.795 125.268 27.415H130.443C130.503 27.22 130.548 26.815 130.548 26.395C130.548 24.085 129.348 22.39 127.038 22.39C125.043 22.39 123.123 24.085 123.123 26.8C123.123 29.575 124.953 31.21 127.308 31.21ZM125.238 25.945C125.403 24.73 126.183 24.1 127.068 24.1C128.148 24.1 128.658 24.82 128.658 25.945H125.238ZM136.579 31.21C138.424 31.21 140.149 29.545 140.149 26.65C140.149 24.085 138.904 22.39 136.834 22.39C136.009 22.39 135.169 22.795 134.509 23.395L134.569 22.045V19.03H132.364V31H134.089L134.284 30.115H134.344C135.019 30.82 135.829 31.21 136.579 31.21ZM136.084 29.395C135.634 29.395 135.094 29.23 134.569 28.765V25.075C135.139 24.49 135.649 24.205 136.219 24.205C137.374 24.205 137.884 25.09 137.884 26.695C137.884 28.525 137.104 29.395 136.084 29.395ZM145.527 31.21C147.627 31.21 149.562 29.59 149.562 26.8C149.562 24.01 147.627 22.39 145.527 22.39C143.427 22.39 141.492 24.01 141.492 26.8C141.492 29.59 143.427 31.21 145.527 31.21ZM145.527 29.41C144.387 29.41 143.742 28.39 143.742 26.8C143.742 25.225 144.387 24.19 145.527 24.19C146.667 24.19 147.312 25.225 147.312 26.8C147.312 28.39 146.667 29.41 145.527 29.41ZM154.917 31.21C157.017 31.21 158.952 29.59 158.952 26.8C158.952 24.01 157.017 22.39 154.917 22.39C152.817 22.39 150.882 24.01 150.882 26.8C150.882 29.59 152.817 31.21 154.917 31.21ZM154.917 29.41C153.777 29.41 153.132 28.39 153.132 26.8C153.132 25.225 153.777 24.19 154.917 24.19C156.057 24.19 156.702 25.225 156.702 26.8C156.702 28.39 156.057 29.41 154.917 29.41ZM160.796 31H162.971V28.87L164.156 27.52L166.196 31H168.581L165.431 26.065L168.311 22.6H165.896L163.031 26.215H162.971V19.03H160.796V31ZM173.127 20.71L173.322 22.765C175.062 22.39 178.122 22.06 179.532 21.91C178.512 22.675 177.297 24.385 177.297 26.545C177.297 29.8 180.267 31.48 183.417 31.69L184.122 29.635C181.572 29.5 179.262 28.615 179.262 26.14C179.262 24.355 180.627 22.42 182.442 21.94C183.237 21.745 184.527 21.745 185.337 21.73L185.322 19.81C184.257 19.855 182.622 19.945 181.077 20.08C178.332 20.305 175.857 20.53 174.597 20.635C174.312 20.665 173.727 20.695 173.127 20.71ZM183.192 23.2L182.082 23.665C182.562 24.34 182.877 24.925 183.252 25.75L184.392 25.24C184.107 24.655 183.567 23.74 183.192 23.2ZM184.872 22.51L183.777 23.02C184.257 23.68 184.602 24.235 185.007 25.045L186.132 24.505C185.817 23.92 185.247 23.035 184.872 22.51ZM188.982 20.365C189.012 20.785 189.012 21.4 189.012 21.82V29.155C189.012 29.875 188.967 31.18 188.967 31.255H191.037C191.037 31.21 191.037 30.865 191.022 30.445H198.252C198.252 30.88 198.237 31.225 198.237 31.255H200.307C200.307 31.195 200.277 29.755 200.277 29.17V21.82C200.277 21.37 200.277 20.815 200.307 20.365C199.767 20.395 199.197 20.395 198.822 20.395H190.572C190.167 20.395 189.597 20.38 188.982 20.365ZM191.022 22.3H198.267V28.525H191.022V22.3ZM213.777 18.715L212.592 19.195C212.967 19.735 213.387 20.53 213.687 21.13L213.582 21.07C213.252 21.175 212.742 21.25 212.277 21.25H209.277C209.292 21.22 209.307 21.205 209.322 21.175C209.487 20.845 209.877 20.17 210.237 19.645L208.032 18.925C207.897 19.435 207.582 20.125 207.357 20.485C206.622 21.775 205.302 23.725 202.677 25.315L204.357 26.575C205.842 25.57 207.147 24.25 208.152 22.945H212.367C212.127 24.055 211.257 25.87 210.237 27.025C208.917 28.525 207.252 29.83 204.192 30.745L205.962 32.335C208.782 31.21 210.582 29.845 212.007 28.09C213.372 26.425 214.227 24.43 214.632 23.095C214.752 22.72 214.962 22.3 215.127 22.015L213.852 21.235L214.962 20.77C214.692 20.215 214.152 19.255 213.777 18.715ZM215.547 18.04L214.362 18.52C214.782 19.09 215.262 19.96 215.577 20.59L216.762 20.08C216.492 19.555 215.937 18.595 215.547 18.04ZM218.022 25.165L218.967 27.055C220.812 26.515 222.717 25.705 224.262 24.895V29.695C224.262 30.355 224.217 31.3 224.157 31.66H226.527C226.422 31.285 226.392 30.355 226.392 29.695V23.635C227.847 22.675 229.287 21.505 230.427 20.38L228.807 18.835C227.832 20.02 226.122 21.52 224.577 22.48C222.912 23.5 220.707 24.475 218.022 25.165ZM235.707 19.6L234.297 21.1C235.392 21.865 237.267 23.5 238.047 24.34L239.577 22.78C238.707 21.865 236.757 20.305 235.707 19.6ZM233.832 29.59L235.092 31.57C237.207 31.21 239.142 30.37 240.657 29.455C243.072 28 245.067 25.93 246.207 23.905L245.037 21.79C244.092 23.815 242.142 26.11 239.577 27.625C238.122 28.495 236.172 29.26 233.832 29.59Z" fill="white"/>
<path d="M46.9946 10H23.0054C21.3456 10 20 11.3456 20 13.0054V36.9946C20 38.6544 21.3456 40 23.0054 40H46.9946C48.6544 40 50 38.6544 50 36.9946V13.0054C50 11.3456 48.6544 10 46.9946 10Z" fill="#305095"/>
<path d="M46.164 27.96L46.756 23.368H42.208V20.436C42.208 19.104 42.58 18.2 44.484 18.2H46.916V14.092C45.7389 13.9656 44.5558 13.9042 43.372 13.908C39.868 13.908 37.468 16.052 37.468 19.98V23.368H33.5V27.96H37.468V39.74H42.208V27.96H46.164Z" fill="white"/>
</svg>
