<svg width="190" height="444" viewBox="0 0 190 444" fill="none" xmlns="http://www.w3.org/2000/svg">
<g clip-path="url(#clip0_262_1843)">
<path d="M38.3535 163.266C34.2018 154.779 30.0502 147.879 25.9069 145.656C20.9789 154.728 16.0931 153.294 11.2495 162.35C15.3674 168.435 19.4853 171.541 23.6033 171.397C28.4722 171.219 33.3833 164.251 38.3535 163.266Z" fill="white"/>
<path d="M106.035 96.9592C102.736 92.0877 99.4195 87.2926 96.1032 84.2288C91.7827 87.6745 87.4876 93.2674 83.2093 95.8305C86.5172 101.22 89.8082 105.641 93.0991 105.803C97.3858 104.606 101.698 97.9947 106.035 96.9592Z" fill="#D2FFC8"/>
<path d="M158.088 181.667C156.189 179.061 154.299 174.512 152.409 163.36C146.333 166.45 140.308 173.545 134.342 172.552C136.216 181.039 138.089 186.767 139.962 190.663C145.945 187.896 151.987 188.923 158.088 181.667Z" fill="#FFF7C5"/>
<path d="M116.691 40.407C118.252 33.9824 119.847 24.9437 121.459 19.2744C113.653 21.2688 105.916 16.601 98.2535 19.7072C96.608 25.3002 94.9878 34.1351 93.393 42.8004C101.089 38.7945 108.852 41.3236 116.691 40.407Z" fill="#B2EEFF"/>
<path d="M98.3223 171.487C97.6978 161.099 97.0987 147.724 96.4996 142.335C85.8588 141.749 75.3193 142.046 64.8979 148.53C65.4379 156.049 66.0033 165.826 66.5855 174.246C77.0407 174.899 87.6224 168.211 98.3223 171.487Z" fill="#FFF7C5"/>
<path d="M176.588 384.035C175.963 373.647 175.364 360.271 174.765 354.882C164.124 354.296 153.585 354.593 143.163 361.077C143.704 368.597 144.269 378.374 144.851 386.793C155.306 387.446 165.888 380.759 176.588 384.035Z" fill="#FFF7C5"/>
<path d="M111.276 228.872C112.963 224.628 114.651 224.399 116.381 218.195C112.339 219.197 108.322 216.311 104.339 215.437C102.652 217.61 100.964 221.87 99.2763 224.875C103.225 224.934 107.234 228.083 111.276 228.872Z" fill="#EAD4FF"/>
<path d="M175.953 420.606C177.641 416.362 179.329 416.133 181.059 409.929C177.017 410.931 173 408.045 169.017 407.171C167.329 409.344 165.642 413.604 163.954 416.608C167.903 416.668 171.911 419.817 175.953 420.606Z" fill="#EAD4FF"/>
<path d="M160.245 124.437C164 116.018 167.78 115.102 171.586 104.773C166.078 101.239 160.249 98.2384 154.178 95.8108C150.372 99.562 146.583 106.683 142.828 111.707C148.574 115.883 154.38 119.065 160.245 124.437Z" fill="#FFC6BF"/>
<path d="M112.717 347.566C116.472 339.147 120.253 338.23 124.059 327.902C118.55 324.368 112.721 321.367 106.65 318.939C102.845 322.691 99.0557 329.811 95.3006 334.836C101.047 339.011 106.853 342.194 112.717 347.566Z" fill="#FFC6BF"/>
<path d="M187.003 70.6692C191.492 71.0002 195.998 58.9402 200.504 48.1447C191.542 43.9012 182.665 43.9012 173.872 39.8359C169.29 47.6864 164.734 53.6273 160.202 64.3209C169.063 69.3452 177.982 73.8772 187.003 70.6692Z" fill="#EAD4FF"/>
<path d="M107.958 277.185C112.447 277.516 116.953 265.456 121.459 254.66C112.497 250.417 103.62 250.417 94.8275 246.352C90.2454 254.202 85.6887 260.143 81.1573 270.836C90.0176 275.861 98.937 280.393 107.958 277.185Z" fill="#EAD4FF"/>
<path d="M179.121 237.327C179.788 232.193 180.463 224.996 181.146 219.81C174.092 221.261 167.097 220.913 160.169 219.81C159.477 226.396 158.785 233.712 158.11 238.439C165.029 239.271 172.033 237.344 179.121 237.327Z" fill="#B2EEFF"/>
<path d="M132.465 182.471C131.57 181.504 130.676 174.756 129.781 173.093C125.081 172.244 120.415 173.407 115.774 176.717C116.618 178.329 117.537 182.615 118.423 189.829C123.081 186.095 127.756 185.823 132.465 182.471Z" fill="white"/>
<path d="M53.8647 62.9978C60.9694 62.7256 68.0827 53.3931 75.1875 44.9794C65.4302 28.1266 55.8093 27.3779 46.3079 18.6069C39.2116 21.3718 32.1239 28.4924 25.0618 42.2741C34.5462 46.1024 44.1415 53.4782 53.8647 62.9978Z" fill="#FFC6BF"/>
<path d="M156.11 287.696C153.412 294.2 158.91 304.497 163.58 314.402C182.874 312.667 187.537 304.327 199.411 299.445C199.849 291.908 196.342 282.558 186.797 270.449C179.403 277.38 168.753 282.928 156.11 287.696Z" fill="#FFC6BF"/>
</g>
<defs>
<clipPath id="clip0_262_1843">
<rect width="190" height="444" fill="white" transform="matrix(-1 0 0 1 190 0)"/>
</clipPath>
</defs>
</svg>
