<svg width="34" height="34" viewBox="0 0 34 34" fill="none" xmlns="http://www.w3.org/2000/svg">
<path d="M3.01836 7H22.8261C23.2281 7 23.6262 7.07013 23.9977 7.2064C24.3691 7.34266 24.7066 7.54238 24.9909 7.79416C25.2752 8.04594 25.5007 8.34485 25.6546 8.67381C25.8084 9.00278 25.8876 9.35536 25.8876 9.71143V24.2886C25.8876 24.6446 25.8084 24.9972 25.6546 25.3262C25.5007 25.6552 25.2752 25.9541 24.9909 26.2058C24.7066 26.4576 24.3691 26.6573 23.9977 26.7936C23.6262 26.9299 23.2281 27 22.8261 27H3.06155C2.6594 27 2.26119 26.9298 1.88967 26.7935C1.51815 26.6572 1.18059 26.4574 0.896283 26.2055C0.611976 25.9536 0.386489 25.6545 0.232702 25.3255C0.0789157 24.9964 -0.000157347 24.6437 2.35066e-07 24.2875V9.67318C2.35066e-07 8.96421 0.318005 8.28428 0.884058 7.78296C1.45011 7.28164 2.21784 7 3.01836 7V7Z" fill="#E84341"/>
<path d="M34 9.60675V24.3921C33.9999 24.5179 33.9613 24.6414 33.8885 24.7494C33.8157 24.8574 33.7112 24.946 33.5862 25.0058C33.4612 25.0655 33.3203 25.0943 33.1784 25.0889C33.0364 25.0836 32.8988 25.0444 32.7799 24.9754L25.4224 20.7053V13.2935L32.7763 9.02345C32.8952 8.95366 33.0332 8.91374 33.1757 8.90796C33.3182 8.90217 33.4598 8.93074 33.5854 8.99061C33.711 9.05047 33.8158 9.1394 33.8889 9.24791C33.9619 9.35641 34.0003 9.48044 34 9.60675Z" fill="#E84341"/>
<path d="M17.8116 16.5778L10.7336 12.9654C10.6497 12.9226 10.5545 12.9002 10.4577 12.9004C10.3608 12.9006 10.2658 12.9234 10.1821 12.9665C10.0984 13.0096 10.029 13.0714 9.9809 13.1459C9.93281 13.2203 9.90774 13.3047 9.90821 13.3904V20.6248C9.90774 20.7105 9.93281 20.7949 9.9809 20.8693C10.029 20.9437 10.0984 21.0056 10.1821 21.0487C10.2658 21.0918 10.3608 21.1146 10.4577 21.1148C10.5545 21.115 10.6497 21.0926 10.7336 21.0498L17.8116 17.4374C17.8997 17.3959 17.9734 17.334 18.0248 17.2583C18.0762 17.1826 18.1034 17.0959 18.1034 17.0076C18.1034 16.9193 18.0762 16.8326 18.0248 16.7569C17.9734 16.6812 17.8997 16.6193 17.8116 16.5778Z" fill="white"/>
</svg>
