<svg width="190" height="444" viewBox="0 0 190 444" fill="none" xmlns="http://www.w3.org/2000/svg">
<g clip-path="url(#clip0_262_1826)">
<path d="M151.646 163.266C155.798 154.779 159.95 147.879 164.093 145.656C169.021 154.728 173.907 153.294 178.751 162.35C174.633 168.435 170.515 171.541 166.397 171.397C161.528 171.219 156.617 164.251 151.646 163.266Z" fill="white"/>
<path d="M83.9648 96.9592C87.2642 92.0877 90.5805 87.2926 93.8968 84.2288C98.2173 87.6745 102.512 93.2674 106.791 95.8305C103.483 101.22 100.192 105.641 96.9009 105.803C92.6142 104.606 88.3022 97.9947 83.9648 96.9592Z" fill="#D2FFC8"/>
<path d="M31.9121 181.667C33.8107 179.061 35.7009 174.512 37.5911 163.36C43.6668 166.45 49.6918 173.545 55.6577 172.552C53.7844 181.039 51.9111 186.767 50.0377 190.663C44.0549 187.896 38.0131 188.923 31.9121 181.667Z" fill="#FFF7C5"/>
<path d="M73.3087 40.407C71.7476 33.9824 70.1527 24.9437 68.541 19.2744C76.3465 21.2688 84.0845 16.601 91.7465 19.7072C93.392 25.3002 95.0122 34.1351 96.607 42.8004C88.9112 38.7945 81.1479 41.3236 73.3087 40.407Z" fill="#B2EEFF"/>
<path d="M91.6777 171.487C92.3022 161.099 92.9013 147.724 93.5004 142.335C104.141 141.749 114.681 142.046 125.102 148.53C124.562 156.049 123.997 165.826 123.414 174.246C112.959 174.899 102.378 168.211 91.6777 171.487Z" fill="#FFF7C5"/>
<path d="M13.4121 384.035C14.0365 373.647 14.6357 360.271 15.2348 354.882C25.8756 354.296 36.4151 354.593 46.8365 361.077C46.2965 368.597 45.7311 378.374 45.1488 386.793C34.6937 387.446 24.112 380.759 13.4121 384.035Z" fill="#FFF7C5"/>
<path d="M78.7244 228.872C77.0367 224.628 75.349 224.399 73.6191 218.195C77.6611 219.197 81.6778 216.311 85.6607 215.437C87.3484 217.61 89.0361 221.87 90.7237 224.875C86.7746 224.934 82.7663 228.083 78.7244 228.872Z" fill="#EAD4FF"/>
<path d="M14.0466 420.606C12.359 416.362 10.6713 416.133 8.94141 409.929C12.9834 410.931 17.0001 408.045 20.983 407.171C22.6707 409.344 24.3583 413.604 26.046 416.608C22.0968 416.668 18.0886 419.817 14.0466 420.606Z" fill="#EAD4FF"/>
<path d="M29.7552 124.437C26.0002 116.018 22.2198 115.102 18.4141 104.773C23.9223 101.239 29.7512 98.2384 35.8224 95.8108C39.6281 99.562 43.417 106.683 47.1721 111.707C41.4255 115.883 35.6199 119.065 29.7552 124.437Z" fill="#FFC6BF"/>
<path d="M77.2826 347.566C73.5275 339.147 69.7471 338.23 65.9414 327.902C71.4497 324.368 77.2785 321.367 83.3498 318.939C87.1555 322.691 90.9443 329.811 94.6994 334.836C88.9529 339.011 83.1473 342.194 77.2826 347.566Z" fill="#FFC6BF"/>
<path d="M2.99749 70.6692C-1.49172 71.0002 -5.99781 58.9402 -10.5039 48.1447C-1.54235 43.9012 7.33482 43.9012 16.1276 39.8359C20.7096 47.6864 25.2664 53.6273 29.7978 64.3209C20.9375 69.3452 12.0181 73.8772 2.99749 70.6692Z" fill="#EAD4FF"/>
<path d="M82.0424 277.185C77.5532 277.516 73.0471 265.456 68.541 254.66C77.5026 250.417 86.3797 250.417 95.1725 246.352C99.7546 254.202 104.311 260.143 108.843 270.836C99.9824 275.861 91.063 280.393 82.0424 277.185Z" fill="#EAD4FF"/>
<path d="M10.8787 237.327C10.2121 232.193 9.53702 224.996 8.85352 219.81C15.908 221.261 22.9034 220.913 29.8313 219.81C30.5233 226.396 31.2152 233.712 31.8903 238.439C24.9708 239.271 17.967 237.344 10.8787 237.327Z" fill="#B2EEFF"/>
<path d="M57.5352 182.471C58.4296 181.504 59.3241 174.756 60.2186 173.093C64.9187 172.244 69.5851 173.407 74.2262 176.717C73.3824 178.329 72.4626 182.615 71.5766 189.829C66.9186 186.095 62.2438 185.823 57.5352 182.471Z" fill="white"/>
<path d="M136.135 62.9978C129.031 62.7256 121.917 53.3931 114.812 44.9794C124.57 28.1266 134.191 27.3779 143.692 18.6069C150.788 21.3718 157.876 28.4924 164.938 42.2741C155.454 46.1024 145.859 53.4782 136.135 62.9978Z" fill="#FFC6BF"/>
<path d="M33.8902 287.696C36.5876 294.2 31.0897 304.497 26.4197 314.402C7.12642 312.667 2.46272 304.327 -9.4111 299.445C-9.84933 291.908 -6.34244 282.558 3.2029 270.449C10.5969 277.38 21.247 282.928 33.8902 287.696Z" fill="#FFC6BF"/>
</g>
<defs>
<clipPath id="clip0_262_1826">
<rect width="190" height="444" fill="white"/>
</clipPath>
</defs>
</svg>
