<svg width="20" height="20" viewBox="0 0 20 20" fill="none" xmlns="http://www.w3.org/2000/svg">
<path d="M9.43964 12.3077C12.1458 12.3077 14.3473 9.71937 14.3473 6.53917C14.3473 3.35897 12.1458 0.769287 9.43964 0.769287C6.73348 0.769287 4.53076 3.35767 4.53076 6.53917C4.53076 9.72067 6.73223 12.3077 9.43964 12.3077ZM9.43964 2.08559C11.4509 2.08559 13.0893 4.08346 13.0893 6.53917C13.0893 8.99488 11.4509 10.9914 9.43964 10.9914C7.42835 10.9914 5.78999 8.99358 5.78999 6.53917C5.78999 4.08476 7.42711 2.08559 9.43964 2.08559Z" fill="white"/>
<path d="M14.6068 11.5386L13.7139 12.4129C14.8636 13.5345 15.6194 15.9944 15.9398 17.2292H2.82464C3.17881 15.0372 5.19403 12.3752 5.22147 12.346L4.21136 11.6068C4.10037 11.7505 1.51025 15.1554 1.51025 17.8454C1.51025 18.0089 1.57674 18.1656 1.69507 18.2812C1.81341 18.3967 1.97391 18.4616 2.14126 18.4616H16.7317C16.8256 18.4624 16.9184 18.4426 17.0035 18.4039C17.0885 18.3651 17.1637 18.3083 17.2234 18.2376C17.2831 18.1669 17.326 18.0841 17.3488 17.9952C17.3716 17.9063 17.3738 17.8135 17.3552 17.7237C17.3178 17.5434 16.4387 13.3263 14.6068 11.5386Z" fill="white"/>
</svg>
