<svg width="20" height="20" viewBox="0 0 20 20" fill="none" xmlns="http://www.w3.org/2000/svg">
<path d="M9.43817 12.3077C12.1443 12.3077 14.3458 9.71937 14.3458 6.53917C14.3458 3.35897 12.1443 0.769287 9.43817 0.769287C6.73201 0.769287 4.5293 3.35767 4.5293 6.53917C4.5293 9.72067 6.73077 12.3077 9.43817 12.3077ZM9.43817 2.08559C11.4495 2.08559 13.0878 4.08346 13.0878 6.53917C13.0878 8.99488 11.4495 10.9914 9.43817 10.9914C7.42689 10.9914 5.78853 8.99358 5.78853 6.53917C5.78853 4.08476 7.42564 2.08559 9.43817 2.08559Z" fill="#231815"/>
<path d="M14.6063 11.5386L13.7134 12.4129C14.8632 13.5345 15.6189 15.9944 15.9394 17.2292H2.82416C3.17832 15.0372 5.19355 12.3752 5.22098 12.346L4.21087 11.6068C4.09988 11.7505 1.50977 15.1554 1.50977 17.8454C1.50977 18.0089 1.57625 18.1656 1.69459 18.2812C1.81292 18.3967 1.97342 18.4616 2.14077 18.4616H16.7312C16.8251 18.4624 16.9179 18.4426 17.003 18.4039C17.0881 18.3651 17.1632 18.3083 17.2229 18.2376C17.2827 18.1669 17.3255 18.0841 17.3483 17.9952C17.3711 17.9063 17.3733 17.8135 17.3548 17.7237C17.3173 17.5434 16.4382 13.3263 14.6063 11.5386Z" fill="#231815"/>
</svg>
